<svg xmlns="http://www.w3.org/2000/svg" viewBox="0 0 257.64 299.6" id="chair-yoga-pose"><g><g><path fill="#f7bfbf" d="m161.26,34.73h0c33.83,0,61.29,27.46,61.29,61.29v77.72c0,1.84-1.49,3.33-3.33,3.33h-115.92c-1.84,0-3.33-1.49-3.33-3.33v-77.72c0-33.83,27.46-61.29,61.29-61.29Z"></path><path fill="none" stroke="#f7bfbf" stroke-miterlimit="10" d="M250.08 34.23h0v142.35s-24.2 0-24.2 0c-1.84 0-3.33-1.49-3.33-3.33v-88.25c0-15.2 12.33-50.76 27.53-50.76zM72.94 34.23h0v142.35s24.2 0 24.2 0c1.84 0 3.33-1.49 3.33-3.33v-88.25c0-15.2-12.33-50.76-27.53-50.76z"></path><line x1="160.91" x2="160.91" y1="35.2" y2="177.32" fill="none" stroke="#fff" stroke-miterlimit="10"></line><line x1="72.94" x2="99.97" y1="93.08" y2="93.08" fill="none" stroke="#f7bfbf" stroke-miterlimit="10"></line><line x1="72.94" x2="99.97" y1="133.67" y2="133.67" fill="none" stroke="#f7bfbf" stroke-miterlimit="10"></line><line x1="222.8" x2="249.83" y1="93.08" y2="93.08" fill="none" stroke="#f7bfbf" stroke-miterlimit="10"></line><line x1="222.8" x2="249.83" y1="133.67" y2="133.67" fill="none" stroke="#f7bfbf" stroke-miterlimit="10"></line><path fill="#a59a55" d="m57.04,299.15c-18.74-2.52-34.95-15.14-45.89-30.56-6.56-9.24-11.69-20.29-10.47-31.56,1.13-10.42,8.03-20.03,17.54-24.43,9.52-4.4,21.31-3.42,29.97,2.48,2.37-8.72,10.21-14.65,18.68-17.78s18.43-1.92,25.9,3.17c7.79,5.3,12.51,14.21,14.83,23.34,4.26,16.8,1.03,35.35-8.66,49.71-9.69,14.37-24.73,27.94-41.91,25.64Z"></path><path fill="#c6f4d2" d="M138.23 274.92c-1.46-11.13 2.65-22.48 9.29-31.53 6.64-9.05 15.66-16.08 24.98-22.33 7.18-4.81 15.11-9.38 23.75-9.37 10.04.01 19.45 6.66 23.96 15.63s4.44 19.83 1.05 29.28c-3.39 9.45-9.87 17.57-17.5 24.1-11.23 9.62-25.13 16.06-39.71 18.47-13.67 2.26-24.2-11.82-25.83-24.25zM206.3 295.87c-.38-1.77.16-3.6.76-5.3 1.31-3.7 2.98-7.33 5.55-10.3 2.56-2.97 6.12-5.23 10.02-5.6s8.1 1.41 10.01 4.84c1.7 3.04 1.39 6.95-.28 10s-4.52 5.33-7.65 6.86c-3.74 1.83-16.99 6.06-18.42-.5z"></path><line x1="99.97" x2="222.99" y1="93.08" y2="93.08" fill="none" stroke="#fff" stroke-miterlimit="10"></line><line x1="99.97" x2="223.04" y1="133.67" y2="133.67" fill="none" stroke="#fff" stroke-miterlimit="10"></line><line x1="257.14" x2=".5" y1="298.9" y2="298.9" fill="none" stroke="#8b4747" stroke-linecap="round" stroke-linejoin="round"></line><g><g><path fill="#fff" stroke="#8b4747" stroke-linecap="round" stroke-linejoin="round" d="M101.43 98.33c-.8-1.01-1.74-2.04-2.85-2.99-4.73-4.08-14.42-13.56-16.27-19.06-1.85-5.5-3.99-11.32-6.54-16.77-2.56-5.45-10.06-22.77-10.31-26.77-.25-4.01.97-7.62-.47-11.7-1.44-4.08-1.12-7.65-.16-8.69 0 0-.74-.94-2.4.15-1.66 1.09-1.76 4.28-1.76 4.28 0 0-4.12-7.54-5.38-9.81-1.26-2.27-2.68-3.36-3.78-1.73 0 0-.83-2.65-2.16-2.13 0 0-1.13.53-.45 2.47 0 0-1.4.11-1.31 1.81.09 1.7 4.01 12.52 3.27 13.17s-1.62-2.89-2.13-4.22c-.52-1.33-1.11-4.66-2.24-4.03 0 0-.71.25-.61 1.86.1 1.6 1.46 5.38 1.92 7.6.46 2.22.84 5.74 2.76 8.65 1.91 2.91 5.3 6.21 5.88 9.74.58 3.53 6.46 31.02 9.68 38.51 3.23 7.48 12.5 22.02 15.78 25.42 3.28 3.4 8.54 11.9 9.01 13.93.44 1.87 7.6 5.18 12.3 3.14 3.39 4.08 7.22 6.96 8.62 1.55 2.73-10.54-7.57-21.58-10.39-24.36zM110.45 246.77c-1.15-5.13-8.24-15.14-12.1-17.24 0 0 10.08-3.9 19.42-6.51 3.8-1.06 10.8-2.92 18.08-5.73-.63-.3-1.27-.59-1.9-.89-5.42-2.54-10.82-5.1-16.21-7.7-3.71-1.79-7.27-3.86-10.84-5.9-1.89-1.08-3.79-2.15-5.7-3.2-.37-.2-.74-.4-1.11-.6-5.27 3.89-10.39 7.73-12.67 9.64-5.61 4.71-12.18 9.75-10.66 17.43 1.52 7.68 14.79 27.52 18.45 32.8 3.66 5.28 10.29 16.33 9.31 19.33-.98 3-5.77 2.97-11.9 5.25-6.13 2.28-6.41 2.53-7.88 2.7-1.47.17-3.59-.09-3.88.29-.29.38-1.09 2.59 1.67 3.16 0 0-.31.78.98 1.39 0 0 .45 1.36 2.05 1.19 0 0 .42 1.76 3.29.6 0 0-1 1.13 1.25 1.27s2.82-.36 5.15.59c2.34.94 7.2-.22 11.73-.34 4.53-.12 12.81 1.46 15.02-1.99 2.21-3.45-2.65-13.07-4.73-18.12-2.08-5.05-5.67-22.3-6.81-27.42z"></path><path fill="#fff" stroke="#8b4747" stroke-linecap="round" stroke-linejoin="round" d="m98.35,229.52s10.08-3.9,19.42-6.51c6.72-1.88,23.42-6.23,34-13.96-2.98-2.02-5.94-4.05-8.87-6.14-5.35-3.83-10.69-6.45-16.64-8.93-4.11-1.72-8.27-3.32-12.37-5.06-5.65,4.08-21.88,15.84-26.49,19.7-5.61,4.71-12.18,9.75-10.66,17.43,1.52,7.68,14.79,27.52,18.45,32.8,2.95,4.25,7.81,12.22,9.09,16.74,7.01,1.34,10.84-1.7,12.31-3.27-2.11-6.52-5.12-20.95-6.15-25.57-1.15-5.13-8.24-15.14-12.1-17.24Z"></path><g><g><path fill="#600a37" d="m72.36,78.49s-.07,0-.2-.01c-.13,0-.32-.02-.56-.06-.24-.04-.53-.1-.86-.19-.32-.1-.69-.23-1.06-.45-.37-.22-.74-.51-1.06-.88-.32-.38-.6-.84-.75-1.36-.3-1.04-.33-2.22.01-3.33.16-.56.46-1.07.77-1.52.31-.46.63-.87.85-1.3.22-.43.33-.87.33-1.32,0-.46-.02-.93.08-1.36.09-.43.34-.8.62-1.01.27-.23.56-.35.79-.42.24-.07.43-.09.56-.1.13,0,.2,0,.2,0,0,0-.07.01-.19.03-.13.03-.31.08-.52.17-.21.09-.47.24-.68.47-.22.23-.39.54-.45.92-.06.38-.01.81.02,1.29.05.49-.06,1.06-.3,1.55-.23.5-.55.94-.85,1.38-.3.44-.54.9-.7,1.39-.16.49-.23,1.02-.24,1.54-.02.52.04,1.03.16,1.5.23.95.86,1.69,1.52,2.13.67.44,1.32.67,1.78.79.46.13.73.17.73.17Z"></path><path fill="#600a37" d="m68.59,69.15s-.02.05-.05.15c-.03.1-.08.24-.16.42-.15.36-.4.87-.73,1.44-.32.58-.69,1.26-.88,2.02-.09.38-.14.78-.11,1.19,0,.2.05.41.08.61.05.23.1.4.17.6.29.77.88,1.39,1.57,1.79.68.41,1.42.64,2.05.78.64.15,1.19.24,1.57.28.38.05.6.08.6.08,0,0-.22.01-.61.02-.39,0-.95,0-1.62-.1-.66-.1-1.45-.27-2.22-.66-.38-.2-.76-.47-1.08-.8-.32-.34-.59-.75-.76-1.19-.09-.21-.16-.47-.2-.67-.04-.24-.08-.46-.09-.7-.03-.46.03-.93.16-1.35.24-.85.71-1.51,1.08-2.06.37-.55.7-.99.9-1.32.2-.33.32-.52.32-.52Z"></path></g><g><path fill="#fff" stroke="#8b4747" stroke-linecap="round" stroke-linejoin="round" d="m71.28,78.18s-2.12,1.55-1.68,4.8c.45,3.25,1.14,4.17-.72,6.02-1.86,1.84-2.75,2.77-2.68,3.54,0,0-.4,1.16,1.45,1.53,1.84.37,2.43,2.01,1.52,3.66,0,0-.35,1.07,1.04,1.39,0,0-.98.97-.23,1.67.75.7,1.6.86,1.39,2.03-.19,1.02-.16,2.8,1.16,3.79,1.01.76,2.92.56,3.8-.35,0,0,5.5.34,9.18-3.3,3.68-3.64,3.97-7.68,3.47-8.96,0,0,2.16.84,3.94-1.49,1.78-2.34,2.29-4.17,1.49-6.23-.8-2.06-2.83-3.65-3.56-3.58-.73.07-2.94.1-2.94.1l-5.6-4.82-4.75-1.4-6.28,1.63Z"></path><path fill="#f29494" d="M78.7 77.74c.18.6-3.14 1.43-3.43 1.46-2.79.32-6.22-1.12-6.7-4.17-.73-4.59 3.75-7.81 7.52-9.23 3.61-1.36 8.68-1.79 12.43-.8 1.89.5 3.37 1.82 5.02 2.8 2.09 1.25 4.61 1.29 6.85 2.16 7.87 3.05 8.07 14 4.44 20.3-.35.62-.74 1.21-1.16 1.79-.27.38-1.27 1.25-1.33 1.68 0 0-.77 5.88-6.31 5.6-5.53-.28-3.87-6.06-3.86-6.08.06-.21.6-.59.75-.77.59-.72 1.01-1.55 1.25-2.44.64-2.38-.32-6.77-3.62-6.01-2.32.53-2.89 3.69-5.27 4-.88.11-1.67-.85-1.64-1.61.02-.47.2-.91.32-1.36.51-1.91-.69-2.69-2.13-3.37-1.56-.74-2.63-2.33-3.12-3.94zM93.87 56.17s-.55-2.44 2.56-3.8c3.2-1.39 7.05.04 8.9 2.97 1.82 2.87 1.24 7.34-2.79 7.61-3.71.25-8.67-6.78-8.67-6.78z"></path><path fill="#f29494" d="m89.67,65.5c-.34-.83.06-1.74.76-2.26,1.63-1.21,3.25-.07,4.86.49.9.31,1.91.32,2.82.04.92-.28,1.5-1.13,2.4-1.44,2.96-1.04,4.22,3.78,3.05,5.69-.82,1.35-2.44,2.04-4.01,2.15-3.3.23-6.89-1.11-9.13-3.55-.3-.33-.59-.7-.75-1.11Z"></path><path fill="#f29494" d="m92.76,62.73c-.66-.61-1.11-1.4-1.16-2.44-.09-2.24,1.34-4.35,3.7-4.46,1.57-.07,3.15.31,4.41,1.27,1.03.79,2.05,2.08,2.08,3.43.07,2.71-3.51,4.51-5.88,3.8-1.12-.34-2.31-.82-3.15-1.6Z"></path><path fill="#8b4747" d="M69.85 83.3c-.26.39-.32 1-.08 1.42.27.48.65.34.94-.03.39-.48.63-1.08 1.26-1.3.81-.29 1.61-.24 2.32.26.69.49 1.64 1.13 2.54.85-.47-.22-.93-.5-1.35-.82-.31-.23-.55-.52-.86-.75-.71-.52-1.62-.76-2.49-.72-.49.02-.97.14-1.4.36-.36.18-.67.43-.87.73zM71.44 87.11s.03.08.09.21c.07.12.18.29.34.45.08.07.18.15.29.2.11.06.23.1.37.13.13.03.27.04.42.04.12 0 .33 0 .46-.03.6-.07 1.18-.31 1.53-.62.36-.3.49-.62.49-.62 0 0 0 .09-.03.23-.03.15-.11.35-.27.57-.16.21-.39.43-.68.58-.29.16-.63.26-.99.31-.19.02-.32.03-.52.02-.18 0-.35-.04-.52-.09-.33-.11-.6-.32-.75-.55-.15-.23-.2-.44-.23-.59-.02-.15 0-.23 0-.23z"></path><path fill="#ef8c81" d="m88.89,87.25s0-.15.12-.41c.12-.24.36-.59.81-.81.22-.11.48-.19.77-.2.29-.01.57,0,.92.14.13.07.25.12.39.21.13.11.29.22.39.35.21.26.38.55.48.87.06.16.1.31.12.47.03.16.05.32.06.48.02.16.01.32,0,.47,0,.16-.03.31-.07.45-.03.15-.06.29-.12.43-.05.14-.1.27-.17.39-.12.25-.29.46-.46.63-.09.08-.18.16-.27.22-.1.05-.19.1-.28.14-.18.08-.35.1-.48.13-.28,0-.42-.02-.42-.02,0,0,.15-.04.4-.09.12-.06.27-.1.41-.2.07-.05.14-.11.21-.17.06-.07.13-.15.2-.23.12-.17.24-.37.32-.59.05-.11.08-.23.11-.35.04-.12.06-.25.07-.38.02-.13.03-.26.03-.4,0-.14,0-.27-.01-.41,0-.14-.02-.28-.06-.41-.02-.14-.06-.27-.11-.4-.08-.26-.21-.5-.37-.71-.08-.11-.17-.16-.24-.26-.1-.08-.24-.15-.36-.22-.18-.08-.45-.15-.68-.15-.23,0-.46.03-.66.09-.4.13-.69.37-.84.57-.07.1-.13.19-.16.25-.03.06-.05.1-.05.1Z"></path><path fill="#ef9d95" d="m87.46,89.08s.01.12.03.32c.01.1.03.22.04.36.02.14.04.3.07.47.03.17.07.35.12.54.05.19.11.38.18.58.08.19.15.39.26.57.05.09.11.19.17.29l.18.3c.23.4.46.84.59,1.28.07.22.11.44.14.65.03.21.03.41.03.59,0,.18-.02.34-.03.49-.02.14-.04.27-.06.37-.04.2-.07.32-.07.32,0,0-.02-.12-.04-.32-.01-.1-.03-.22-.04-.37-.02-.14-.04-.3-.07-.47-.01-.08-.03-.17-.05-.26-.02-.09-.04-.18-.06-.27-.05-.19-.12-.37-.19-.57-.16-.38-.38-.77-.61-1.17l-.17-.3c-.06-.1-.11-.2-.17-.32l-.08-.17c-.02-.06-.04-.11-.06-.17-.05-.11-.08-.23-.11-.34-.03-.11-.05-.22-.07-.33-.02-.11-.03-.22-.04-.32-.02-.21-.03-.4-.03-.58,0-.18.01-.34.03-.49.01-.14.04-.27.06-.37.04-.2.08-.32.08-.32Z"></path></g><path d="m90.1,92.44c-.07,0-.13.05-.14.13,0,.07.05.13.13.13.1.03.28.57.26,1.44s-.24,1.4-.34,1.43c-.1-.03-.28-.57-.26-1.44h0c-.09-.01-.18-.02-.26-.03,0,0,0,.01,0,.02-.02.63.07,1.7.51,1.71.44.01.59-1.05.61-1.68.02-.63-.07-1.7-.51-1.71Z"></path></g><path fill="#f29494" d="m90.41,107.66s-1.27,1.25-3.23,6.98c-1.95,5.73-8.04,15.93-10.6,20.82-2.56,4.9-4.07,16.34,7.62,16.53,0,0,5.67,13.69,14.06,19.92,8.39,6.24,11.95,17.5,16.75,19.53,0,0-22.83,16.41-28.44,21.11-5.61,4.71-12.18,9.75-10.66,17.43,1.52,7.68,14.79,27.52,18.45,32.8,3.66,5.28,10.29,16.33,9.31,19.33-.98,3-5.77,2.97-11.9,5.25-6.13,2.28-6.41,2.53-7.88,2.7-1.47.17-3.59-.09-3.88.29-.29.38-1.09,2.59,1.67,3.16,0,0-.31.78.98,1.39,0,0,.45,1.36,2.05,1.19,0,0,.42,1.76,3.29.6,0,0-1,1.13,1.25,1.27,2.25.14,2.82-.36,5.15.59,2.34.94,7.2-.22,11.73-.34,4.53-.12,12.81,1.46,15.02-1.99,2.21-3.45-2.65-13.07-4.73-18.12-1.85-4.49-3.3-10.32-4.39-15.04-1.42-6.11-2.01-11.99-5.03-17.6-1.41-2.64-2.52-4.83-4.4-7.16-.53-.66-4.05-5.27-5.1-4.87,0,0,10.08-3.9,19.42-6.51,9.34-2.61,38-10.01,42.63-24.62,4.63-14.61-2.94-25.59-14.95-33.51-12.01-7.93-18.34-13.11-22.62-25.61-4.28-12.5-3.96-36.96-15.02-40.97-11.06-4.01-16.56,5.42-16.56,5.42Z"></path><path fill="#f29494" d="m84.18,152.3s.89,2.09,2.48,5c3.13-.41,24.04-3.45,35.53-13.52-.07-.19-.14-.38-.21-.58-4.28-12.5-3.96-36.96-15.02-40.97-11.06-4.01-16.77,5.61-16.77,5.61,0,0-1.27,1.25-3.23,6.98-1.61,4.73-4.21,9.03-6.82,13.26-3.58,5.8-8.79,13.3-4.35,20.14.79,1.22,1.86,2.2,3.15,2.88.61.32,5.21,1.14,5.23,1.19Z"></path><ellipse cx="100.52" cy="117.27" fill="#fff" stroke="#8b4747" stroke-linecap="round" stroke-linejoin="round" rx="14.2" ry="12.68" transform="rotate(-86.45 100.527 117.267)"></ellipse><path fill="#fff" stroke="#8b4747" stroke-linecap="round" stroke-linejoin="round" d="M112.78 120.16c2.73-10.54-7.57-21.58-10.39-24.36-.8-1.01-1.74-2.04-2.85-2.99-4.73-4.08-14.42-13.56-16.27-19.06-1.85-5.5-3.99-11.32-6.54-16.77-2.56-5.45-10.06-22.77-10.31-26.77-.25-4.01.97-7.62-.47-11.7-1.44-4.08-1.12-7.65-.16-8.69 0 0-.74-.94-2.4.15-1.66 1.09-1.76 4.28-1.76 4.28 0 0-4.12-7.54-5.38-9.81-1.26-2.27-2.68-3.36-3.78-1.73 0 0-.83-2.65-2.16-2.13 0 0-1.13.53-.45 2.47 0 0-1.4.11-1.31 1.81.09 1.7 4.01 12.52 3.27 13.17-.74.65-1.62-2.89-2.13-4.22-.52-1.33-1.11-4.66-2.24-4.03 0 0-.71.26-.61 1.86.1 1.6 1.46 5.38 1.92 7.6.46 2.22.84 5.74 2.76 8.65 1.91 2.91 5.3 6.21 5.88 9.74.58 3.53 6.46 31.02 9.68 38.51 3.23 7.48 12.5 22.02 15.78 25.42 3.28 3.4 8.54 11.9 9.01 13.93M144.61 168.81c-4.32-2.85-7.91-5.35-10.93-7.96-5.06 8.23-23.88 19.64-26.5 21.2 2.91 4.35 5.18 8.28 7.83 9.4 0 0-22.83 16.41-28.44 21.11-5.61 4.71-12.18 9.75-10.66 17.43 1.52 7.68 14.79 27.52 18.45 32.8 2.95 4.25 7.81 12.22 9.09 16.74 7.01 1.34 10.84-1.7 12.31-3.27-1.61-4.97-2.72-10.12-3.87-15.21-1.25-5.54-1.88-11.05-4.74-16.07-1.43-2.5-3.07-4.9-4.92-7.12-.5-.6-3.77-4.78-4.72-4.41 0 0 10.08-3.9 19.42-6.51 9.34-2.61 38-10.01 42.63-24.62 4.63-14.61-2.94-25.59-14.95-33.51z"></path><path fill="#8b4747" d="M65.46 72.4s.34.85 1.04 2.29c.69 1.44 1.76 3.46 3.07 5.86.66 1.2 1.39 2.49 2.18 3.85.78 1.35 1.66 2.77 2.55 4.22 1.81 2.9 3.87 5.92 6.02 8.87 2.12 2.97 4.33 5.88 6.45 8.57 1.07 1.36 1.96 2.79 2.76 4.14.81 1.36 1.52 2.67 2.15 3.89.63 1.22 1.14 2.38 1.56 3.42.4 1.04.73 1.97.92 2.75.1.39.19.74.23 1.05.04.31.11.57.1.79.02.43.03.66.03.66 0 0-.02-.23-.07-.65 0-.21-.09-.47-.15-.77-.06-.3-.17-.64-.29-1.02-.23-.76-.6-1.66-1.05-2.67-.47-1.01-1.03-2.13-1.68-3.33-.66-1.2-1.41-2.48-2.25-3.8-.85-1.32-1.76-2.68-2.81-4.02-2.15-2.67-4.4-5.57-6.55-8.54-2.13-2.98-4.16-6.04-5.96-8.97-.9-1.47-1.71-2.91-2.47-4.3-.75-1.38-1.45-2.7-2.08-3.92-1.26-2.44-2.19-4.54-2.82-6.01-.62-1.48-.9-2.35-.9-2.35zM49.68 2.42s.38.82.89 2.07c.25.63.56 1.35.87 2.14.3.79.63 1.63.95 2.47.31.85.61 1.69.9 2.48.29.79.53 1.54.75 2.18.43 1.28.68 2.15.68 2.15 0 0-.38-.82-.89-2.07-.25-.63-.56-1.35-.87-2.14-.3-.79-.63-1.63-.95-2.47-.31-.85-.61-1.69-.9-2.48-.29-.79-.53-1.54-.75-2.18-.43-1.28-.68-2.15-.68-2.15zM52.29 2.19s.38.82.89 2.07c.25.63.56 1.35.87 2.14.3.79.63 1.63.95 2.47.31.85.61 1.69.9 2.48.29.79.53 1.54.75 2.18.43 1.28.68 2.15.68 2.15 0 0-.38-.82-.89-2.07-.25-.63-.56-1.35-.87-2.14-.3-.79-.63-1.63-.95-2.47-.31-.85-.61-1.69-.9-2.48-.29-.79-.53-1.54-.75-2.18-.43-1.28-.68-2.15-.68-2.15zM62.52 10.95s-.04.17-.13.46c-.09.29-.22.71-.37 1.2-.14.5-.27 1.08-.31 1.71-.04.63.02 1.31.17 1.97.08.34.16.66.25 1 .09.33.18.66.26.97.16.64.3 1.24.35 1.76.05.53.04.97 0 1.27-.01.15-.05.27-.06.35-.02.08-.03.12-.03.12 0 0 .02-.17.02-.48.01-.3-.02-.74-.12-1.24-.09-.51-.26-1.09-.46-1.71-.1-.31-.2-.63-.31-.96-.1-.33-.21-.67-.28-1.01-.17-.69-.24-1.42-.17-2.09.07-.67.26-1.27.45-1.76.19-.49.39-.88.52-1.16.13-.27.22-.43.22-.43zM107.17 182.05c1.1 1.65 2.12 3.24 3.09 4.63 1.82-.85 19.39-9.34 27.71-22.44-1.55-1.14-2.98-2.26-4.3-3.4-5.06 8.23-23.88 19.64-26.5 21.2zM142.2 184.09s-.16-.05-.45-.15c-.29-.1-.73-.22-1.28-.35-1.11-.27-2.73-.54-4.68-.46-.97.04-2.02.14-3.11.33-1.09.19-2.23.49-3.39.85-2.32.72-4.68 1.81-6.96 3.05-1.14.63-2.24 1.29-3.33 1.99-1.08.69-2.15 1.37-3.18 2.03-2.05 1.34-3.97 2.6-5.61 3.67-1.64 1.08-3.01 1.98-3.97 2.61-.95.64-1.52.99-1.52.99 0 0 .12-.11.34-.33.22-.22.55-.52.98-.91.85-.77 2.09-1.86 3.65-3.08 1.55-1.22 3.42-2.58 5.48-3.94 1.02-.69 2.11-1.36 3.22-2.03 1.1-.66 2.26-1.34 3.43-1.95 2.35-1.23 4.82-2.25 7.23-2.91 2.41-.65 4.75-.95 6.74-.87 1 .03 1.91.14 2.7.29.79.16 1.48.32 2.02.51.55.18.97.34 1.25.47.28.12.43.19.43.19zM84.61 231.2s.1-.04.28-.09c.19-.06.46-.14.81-.21.35-.08.79-.16 1.29-.22.5-.05 1.08-.13 1.7-.12.63-.03 1.31.02 2.03.07.36.02.72.1 1.1.15.38.05.76.11 1.14.22.38.1.77.2 1.17.3.39.11.77.27 1.16.42.79.27 1.53.69 2.28 1.07.38.18.72.44 1.07.68.35.24.69.48 1.03.72.65.52 1.23 1.1 1.82 1.62.53.58 1.01 1.17 1.48 1.72.46.55.78 1.16 1.13 1.67.34.52.65 1 .84 1.47.21.46.4.86.55 1.19.3.66.45 1.04.45 1.04 0 0-.24-.34-.66-.92-.2-.29-.45-.65-.73-1.06-.26-.42-.63-.85-1.01-1.32-.19-.23-.39-.48-.6-.73-.21-.25-.4-.53-.66-.76-.48-.49-1-1.01-1.53-1.54-.58-.47-1.18-.96-1.78-1.46-.33-.22-.65-.44-.98-.65-.33-.22-.65-.46-1.01-.62-.7-.37-1.39-.78-2.13-1.04-.37-.14-.71-.31-1.08-.43-.37-.12-.73-.23-1.08-.34-.35-.13-.72-.19-1.07-.28-.35-.08-.69-.18-1.03-.23-.68-.1-1.33-.23-1.93-.26-.6-.07-1.16-.08-1.65-.11-.49 0-.93-.01-1.29 0-.36.02-.64.02-.83.04-.19.01-.3.03-.3.03z"></path></g><path fill="#fff" stroke="#8b4747" stroke-linecap="round" stroke-linejoin="round" d="m121.13,296.4c-2.21,3.46-10.49,1.88-15.01,1.99-4.54.12-9.4,1.28-11.73.34-2.34-.95-2.9-.45-5.14-.59-2.13-.13-1.35-1.15-1.26-1.26-2.86,1.14-3.28-.61-3.28-.61-1.6.16-2.05-1.19-2.05-1.19-1.29-.62-.99-1.39-.99-1.39-2.75-.57-1.95-2.79-1.66-3.16.21-.28,1.36-.22,2.54-.23.46,0,.92-.02,1.34-.07,1.47-.17,1.75-.42,7.88-2.7,6.12-2.29,10.91-2.25,11.89-5.25.18-.56.1-1.42-.19-2.46,0-.06-.03-.12-.05-.19,0,.02.02.05.03.07.05.01.1.02.14.03,6.87,1.26,10.65-1.69,12.13-3.27.22.64.45,1.24.7,1.83.18.44.38.93.61,1.44,1.65,3.85,4.18,9.31,4.61,13.19.16,1.42.05,2.63-.5,3.48Z"></path><path fill="#8b4747" d="M151.48 203.29c-2.38 6.91-9.23 12.12-16.53 12.56 7.03-1.51 13.19-6.19 16.53-12.56h0zM84.72 218.87c2.49-4.52 6.97-7.99 11.98-9.24-4.6 2.23-8.66 5.35-11.98 9.24h0zM90.84 252.53c3.85 2.48 6.66 6.73 7.43 11.25-1.8-4.23-4.24-7.94-7.43-11.25h0zM118.1 290.75c2.76 1.24 1.29 5.6-1.65 4.93 2.29-.5 3.18-3.15 1.65-4.93h0zM104.54 277c2.89.11 5.47-.54 7.97-2-1.76 2.32-5.32 3.21-7.97 2h0z"></path><path fill="#fff" d="M87.67 152.47c5.06.58 10.22-1.14 13.93-4.63-2.96 4.3-8.99 6.3-13.93 4.63h0zM119.38 147.88c1.6 3.78 3.8 7.02 6.7 9.92-3.56-2.03-6.15-5.87-6.7-9.92h0z"></path><path fill="#8b4747" d="M80.06 71.71c1.05 2.97 2.4 5.57 4.2 8.15-2.57-1.82-4.21-5.01-4.2-8.15h0zM66.49 41.8c2.43 2.34 4 5.64 4.26 9.01-1.29-3.13-2.65-6.02-4.26-9.01h0zM51.76 23.28c.92 1.81 1.75 3.33 2.78 5.09-1.77-.98-2.91-3.07-2.78-5.09h0zM104.58 106.29c4.71 1.75 6.64 8.39 3.61 12.39 1.87-4.49.38-9.61-3.61-12.39h0z"></path></g></g></g></svg>