<svg xmlns="http://www.w3.org/2000/svg" viewBox="0 0 303.12 250.63" id="downward-facing-dog-yoga-pose"><g><g><g><path fill="#f7bfbf" d="m164.54,53.96v65.2c0,3.35-2.72,6.07-6.07,6.07H62.68c-3.35,0-6.07-2.72-6.07-6.07V53.96c0-8.41,1.92-16.36,5.35-23.45,3.23,4.63,8.6,7.66,14.68,7.66,9.87,0,17.88-8,17.88-17.88,0-6.12-3.08-11.53-7.78-14.75C93.92,1.99,102.01,0,110.57,0c29.81,0,53.97,24.16,53.97,53.96Z"></path><line x1="110.57" x2="110.57" y2="125.24" fill="none" stroke="#fff" stroke-miterlimit="10" stroke-width="1.12"></line><line x1="164.4" x2="56.75" y1="50.13" y2="50.13" fill="none" stroke="#fff" stroke-miterlimit="10" stroke-width="1.12"></line><line x1="164.4" x2="56.75" y1="86.19" y2="86.19" fill="none" stroke="#fff" stroke-miterlimit="10" stroke-width="1.12"></line><path fill="#fff" d="M64.35 104.48c.04-4.02 5.12-6.06 8.03-3.23 0 0-.54.23-.54.23.08-5.63 8.79-6.89 11.61-2.56.92 1.55.82 3.79-.71 4.96 0 0-.36-.96-.36-.96 1.56-.13 3.15.48 4.2 1.65 1.05 1.17 1.51 2.8 1.23 4.34-.04.25-.26.43-.51.43-8.9-.04-18.14-.16-27-.52 2.25-.1 4.5-.16 6.75-.23 6.5-.18 13.71-.27 20.25-.29 0 0-.51.43-.51.43.21-1.21-.19-2.53-1.02-3.43-.83-.89-2.09-1.42-3.31-1.32-.53.07-.79-.67-.36-.96 1.03-.73 1.16-2.45.48-3.59-2.3-3.53-9.93-2.71-10.11 2.06 0 .27-.36.41-.54.22-2.59-2.67-7.24-.97-7.58 2.78h0zM153.67 65.69c-.4-4.57-6.05-6.66-9.22-3.41-.19.21-.55.05-.55-.22-.22-5.85-9.56-6.89-12.39-2.54-.85 1.42-.69 3.55.6 4.48.45.3.16 1.04-.36.97-3.15-.29-5.95 2.75-5.35 5.87 0 0-.52-.44-.52-.44 10.78.04 21.96.16 32.71.53-10.73.37-21.94.49-32.71.53-.26 0-.48-.19-.52-.44-.33-1.83.22-3.77 1.47-5.16 1.25-1.4 3.15-2.12 5-1.97l-.36.97c-1.81-1.38-1.93-4.03-.84-5.87 3.37-5.16 13.8-3.69 13.92 3.05 0 0-.55-.23-.55-.23 3.48-3.42 9.6-.97 9.68 3.87h0z"></path></g><path fill="#a59a55" d="m69.79,248.71c-22.24-3.96-50.41-13.88-58.1-37.73-2.36-7.34-2.83-16.09,1.64-22.77,3.59-5.37,9.6-7.99,15.83-8.76,3.21-.4,6.46-.33,9.68-.02,2.58.25,6.76,2.03,9.21,1.6,1.82-.32,1.27-1.23,1.55-3.24.26-1.82.68-3.62,1.25-5.37,1.09-3.39,2.72-6.6,4.8-9.49,5.75-8.02,15.15-12.9,25.1-12.9,10.45,0,20.79,5.7,26.62,14.35,7.49,11.12,7.24,26.84-.4,37.85,5.19.14,10.45.29,15.45,1.69,5,1.39,9.81,4.18,12.6,8.56,4.49,7.06,2.61,16.86-2.72,23.31-5.33,6.45-13.39,10.04-21.48,12.16-13.45,3.52-27.43,3.17-41.02.75Z"></path><path fill="#c6f4d2" d="M227.34 247.57c17.24-5.38 32.71-16.52 43.46-31.28 5.8-7.96 10.3-17.11 11.69-26.93s-.58-20.34-6.53-28.18c-5.02-6.6-12.75-11-20.89-11.87-8.15-.88-16.6 1.77-22.86 7.16-4.79-8.42-9.73-16.9-16.53-23.73-6.8-6.83-15.76-11.94-25.31-12.05-9.89-.12-19.18 5.08-26.61 11.74-16.92 15.2-26.08 38.95-23.84 61.84.88 8.95 3.5 17.7 7.52 25.7 5.52 10.97 16.17 26.99 29.28 28.45 16.51 1.84 34.76 4.11 50.61-.84zM266.75 229.15c3.79-5.1 9.44-8.79 15.63-10.23 5.13-1.19 11.15-.58 14.69 3.31 4.05 4.46 3.31 11.82-.26 16.67-3.57 4.85-9.28 7.63-14.96 9.62-3.41 1.2-6.98 2.19-10.59 2.03-3.75-.16-9.48-1.93-9.83-6.26-.41-5.11 2.36-11.16 5.32-15.15z"></path><line x1="302.62" x2=".5" y1="250.07" y2="250.07" fill="none" stroke="#8b4747" stroke-linecap="round" stroke-linejoin="round"></line><g><g><path fill="#fff" stroke="#8b4747" stroke-linecap="round" stroke-linejoin="round" d="m231.05,216.34c-1.83.51-3.65,1.03-5.47,1.55-2.37.68-4.74,1.35-7.11,1.98.99,1.48,1.83,2.78,2.44,3.82,3.37,5.77,7.83,7.29,4.82,10.67-3,3.39-8.13,6.12-11.54,7.59-3.41,1.47-6.82,1.44-6.82,1.44,0,0-2.55-.44-2.56.2s-.66,3.61,3.81,3.43c4.47-.18,19.82-3.7,19.82-3.7,0,0,3.64-3.59,4.71-4.23,1.07-.63,4.08-4.87,4.08-4.87l-6.18-17.89Z"></path><path fill="#fff" stroke="#8b4747" stroke-linecap="round" stroke-linejoin="round" d="m225.68,200.89l-63.74-71.23-4.92,4.01s7.33,18.35,21.7,33.34c14.37,14.99,17.97,17.78,23.23,27.61,5.11,9.55,15.02,22.55,18.66,28.57,3.61-.1,9.71-.77,11.07-4.08.07-.17.08-.46.03-.87l-5.76-16.69c-.09-.22-.18-.44-.27-.67Z"></path><path fill="#f29494" d="m157.03,134.62c-.62-2.98-1.44-5.92-2.56-8.8-.43-1.1-1.03-2.12-1.6-3.15-.63-1.12-1.17-2.26-1.58-3.48-.39-1.18-.68-2.39-.96-3.6-.26-1.11-.52-2.19-.61-3.33-.16-2.04-.06-4.08-.13-6.12-.05-1.32-.15-2.68-.52-3.96-9.2,4.32-15.26,10.82-19.38,13.66-6.41,4.43-18.81,12.22-24.83,21.12-6.02,8.9-8.61,14.84-8.46,24.42.15,9.58,6.22,24.3,6.43,25.16.21.85,6.15,3.45,6.15,3.45l6.22-7.83,2.59-5.09s-2.96-2.79,2.16-4.88c5.12-2.09,14.67,2.01,19.63-7.74,0,0,.88-4.25-1.23-6.61,0,0,8.78-19.51,18.69-23.2Z"></path><path fill="#fff" stroke="#8b4747" stroke-linecap="round" stroke-linejoin="round" d="M119.95 172.16c3.53-1.44 9.16.06 13.95-2.06-2.8-2.32-5.71-4.5-8.88-6.3-4.12-2.33-8.65-3.98-13.18-5.3-4.68-1.37-9.49-2.34-14.35-2.73-.27-.02-.11-.01-.38-.03-.22 1.76-.75 3.6-.72 5.63.15 9.58 6.22 24.3 6.43 25.16.21.85 6.15 3.45 6.15 3.45l6.22-7.83 2.59-5.09s-2.96-2.79 2.16-4.88zM247.82 242.6s-.41-2.77-3.15-6.62c-2.3-3.24-6.52-13.71-8.29-19.75-.55.58-1.12 1.13-1.72 1.66-2.35 2.02-5.1 3.62-8.1 4.41-.42.11-.85.2-1.27.28 2.07 2.87 3.6 5.35 4.11 7.13 1.46 5.12 1.24 6.18-2.61 8.92-3.85 2.74-9.83 5.89-12.6 6.09-2.77.19-6.17.17-7.03 1.23-.86 1.06-.01 1.7 1.69 2.35 1.7.65 4.04 1.3 8.29 1.76 4.25.45 17.89-1.58 22.57-1.34 4.68.24 8.94-.58 8.13-6.12z"></path><g><g><path fill="#f29494" d="m115.43,203.92s.06.03.17.1c.11.07.27.16.46.3.38.28.93.71,1.4,1.42.23.35.44.77.55,1.25.11.48.14,1.01.04,1.54-.09.53-.28,1.05-.52,1.55-.25.5-.58.97-.97,1.38-.39.42-.88.74-1.36,1-.47.26-.94.49-1.33.77-.39.28-.68.62-.88,1.02-.2.41-.4.83-.68,1.16-.28.34-.66.55-1,.62-.34.08-.65.06-.88.02-.24-.04-.42-.11-.53-.16-.12-.06-.18-.09-.18-.09,0,0,.06.02.19.06.12.03.31.07.54.09.23.01.52,0,.81-.11.3-.1.59-.3.81-.61.22-.31.37-.71.56-1.15.18-.45.53-.9.96-1.23.42-.33.91-.59,1.36-.84.46-.25.88-.55,1.24-.92.36-.37.66-.79.9-1.25.24-.45.43-.93.53-1.4.1-.47.11-.94.03-1.38-.08-.44-.23-.83-.42-1.18-.38-.69-.87-1.18-1.22-1.49-.35-.32-.57-.48-.57-.48Z"></path><path fill="#f29494" d="m114.58,213.84s.04-.04.11-.11c.07-.07.18-.18.33-.3.3-.25.74-.58,1.28-.95.54-.37,1.17-.79,1.68-1.38.25-.3.47-.62.62-1,.08-.18.14-.38.2-.57.06-.22.09-.39.11-.6.09-.81-.16-1.62-.59-2.28-.42-.66-.97-1.19-1.46-1.61-.49-.42-.94-.74-1.26-.95-.32-.22-.5-.34-.5-.34,0,0,.2.09.55.26.34.18.83.43,1.38.81.55.38,1.16.88,1.66,1.58.25.35.46.75.6,1.19.13.44.18.92.14,1.39-.02.23-.07.49-.12.69-.07.23-.14.44-.23.65-.18.42-.44.8-.74,1.12-.3.32-.62.58-.94.79-.32.21-.63.39-.92.55-.58.31-1.07.56-1.39.76-.33.2-.51.32-.51.32Z"></path></g><g><path fill="#fff" stroke="#8b4747" stroke-linecap="round" stroke-linejoin="round" d="m116.24,204.68s2.56-.41,3.62-3.48c1.06-3.07.85-4.19,3.32-4.99,2.46-.8,3.66-1.21,3.94-1.92,0,0,.87-.85-.59-2s-1.24-2.86.29-3.9c0,0,.79-.79-.3-1.69,0,0,1.29-.42.95-1.37-.35-.95-1.03-1.47-.32-2.41.62-.82,1.39-2.4.67-3.86-.55-1.12-2.32-1.79-3.5-1.39,0,0-4.7-2.76-9.57-1.18-4.87,1.57-6.93,5-7.06,6.36,0,0-1.53-1.71-4.14-.44-2.61,1.27-3.88,2.66-4.09,4.83-.21,2.17.87,4.48,1.54,4.75.67.26,2.63,1.23,2.63,1.23l2.79,6.75,3.56,3.36,6.27,1.36Z"></path><path fill="#f29494" d="M109.5 201.75c.11-.61 3.4.14 3.68.24 2.6.96 4.98 3.76 4.05 6.67-1.4 4.37-6.79 5.21-10.74 4.78-3.79-.41-8.45-2.29-11.32-4.84-1.44-1.28-2.16-3.11-3.17-4.71-1.29-2.03-3.49-3.2-5.08-4.96-5.58-6.2-.86-15.94 5.14-19.88.59-.38 1.19-.74 1.82-1.06.41-.21 1.68-.54 1.92-.89 0 0 3.31-4.84 8.06-2.12 4.75 2.71.7 7.07.69 7.08-.15.16-.79.25-1 .34-.84.37-1.58.92-2.19 1.6-1.63 1.81-2.74 6.11.51 6.92 2.28.56 4.19-1.96 6.43-1.17.82.29 1.09 1.49.73 2.15-.22.4-.58.71-.89 1.06-1.3 1.46-.59 2.68.38 3.93 1.04 1.35 1.28 3.23.99 4.86zM86.51 214s-.61 2.4-3.96 2.2c-3.44-.2-6.2-3.18-6.53-6.59-.32-3.34 2.18-7.02 5.86-5.46 3.38 1.44 4.62 9.85 4.62 9.85z"></path><path fill="#f29494" d="m94.37,207.65c-.07.89-.82,1.51-1.67,1.65-1.98.34-2.9-1.38-4.07-2.6-.66-.68-1.54-1.13-2.47-1.29-.94-.16-1.83.32-2.76.2-3.07-.41-2.04-5.21-.16-6.38,1.33-.82,3.06-.71,4.5-.1,3.01,1.27,5.58,4.05,6.47,7.2.12.42.21.88.17,1.31Z"></path><path fill="#f29494" d="m90.41,208.72c.31.83.36,1.73-.07,2.67-.92,2.02-3.12,3.24-5.25,2.28-1.41-.64-2.64-1.68-3.32-3.09-.56-1.16-.88-2.75-.31-3.95,1.15-2.42,5.11-2.41,6.88-.72.84.8,1.67,1.75,2.06,2.81Z"></path><path fill="#8b4747" stroke="#8b4747" stroke-miterlimit="10" stroke-width=".25" d="m120.08,196.73s.01-.08,0-.22c0-.14-.02-.34-.1-.55-.04-.1-.09-.21-.16-.31-.07-.1-.16-.19-.26-.28-.1-.09-.22-.16-.35-.22-.11-.06-.29-.14-.42-.18-.13-.05-.28-.1-.43-.13-.14-.03-.29-.06-.43-.07-.14,0-.28-.01-.41,0-.13.01-.25.03-.36.06-.45.1-.71.33-.71.33,0,0,.03-.08.13-.19.09-.11.26-.26.49-.38.12-.06.25-.11.4-.15.15-.04.3-.06.47-.06.16,0,.33,0,.5.03.17.03.34.07.5.13.18.07.29.12.47.21.15.08.29.19.41.31.12.12.22.26.29.4.07.14.11.29.13.42.03.27-.02.48-.06.62-.05.14-.1.21-.1.21Z"></path></g></g><path fill="#fff" stroke="#8b4747" stroke-linecap="round" stroke-linejoin="round" d="m60.3,226.39s-9.28,3.45-13.11,3.11c-3.83-.34-13.75,2.78-17.26,2.44,0,0,.31,1.28,5.73,2.59,5.42,1.31,13.07,2.96,18.19,1.72,5.12-1.24,6.45-9.85,6.45-9.85Z"></path><path fill="#f29494" d="m143.88,147.75c-8.71-3.37-19.91-20.19-24.28-24.91-5.44,4.01-11.2,8.87-14.75,14.11-6.02,8.9-8.61,14.84-8.46,24.42.04,2.58.51,5.54,1.18,8.5,1.12.37,2.27.69,3.44.96l2.24-7.83s1.54,7.99,22.77,8.45c.97.02,1.87.07,2.71.14,1.14-.02,2.28-.11,3.4-.34,2.9-.6,5.71-2.36,7.17-5,.19-.34.36-.73.51-1.15.9-2.57.94-6.35-.77-8.26,0,0,1.45-3.82,4.83-9.1Z"></path><path fill="#fff" stroke="#8b4747" stroke-linecap="round" stroke-linejoin="round" d="M96.18 158.62s3.1-16.18 15.73-12.99c13.17 3.33 9.45 18.9 4.31 23.97-5.14 5.07-13.18 13.96-15.79 21.61-2.6 7.65-10.38 24.2-15.52 29.59-5.14 5.39-21.82 15.82-28.55 20.56-6.74 4.74-5.8 7.3-9.95 8.24-4.16.93-25.22.15-28.73-.51-3.51-.66-2.22-2.57 2.25-2.86 4.47-.29 10.56-3.12 16.31-3.72 5.75-.6 8.32-3.46 14.43-9.16 6.1-5.71 18.66-21.59 24.44-26.02 5.78-4.43 10.63-14.3 13.56-22.9 2.93-8.6 5.89-22.31 7.51-25.81zM235.66 213.37c-.82-4.69-4.54-20.89-14.28-28.83-9.74-7.94-12.87-17.54-15.14-27.13-2.28-9.59-13.22-29.03-12.98-32.65.24-3.62 1.25-27.66-25.58-26.77-9.68.32-17.28 3.05-23.28 6.68 1.74 5.05 9.04 25.98 11.98 30.21.84-.37 1.69-.63 2.54-.76 0 0 6.7 16.01 17.49 25.87 10.79 9.86 13.95 14.78 20.28 22.69 6.33 7.92 7.37 12.18 14.33 21.59 5.58 7.54 13.06 16.05 16.57 21.77 2.58-.04 9-.43 10.14-5.6-1.02-2.91-1.81-5.51-2.08-7.06z"></path><path fill="#8b4747" d="M144.41 104.67c1.74 5.05 9.04 25.98 11.98 30.21.84-.37 1.69-.63 2.54-.76-3.76-14.94-7.52-27.63-8.96-32.36-1.99.88-3.85 1.87-5.56 2.91zM190.17 108.78s.01.02.04.05c.03.04.07.09.12.16.1.14.25.36.42.64.09.14.18.3.28.47.1.17.2.36.31.57.21.41.43.88.65 1.41.22.53.43 1.11.62 1.73.05.16.09.32.14.48.05.16.09.32.13.49.04.17.08.34.13.51.04.17.07.34.11.52.15.7.25 1.43.33 2.18.02.19.03.37.05.56 0 .09.02.19.02.28 0 .09 0 .19.01.28 0 .19.01.38.02.57 0 .19 0 .38 0 .57v.29c0 .1 0 .19 0 .29 0 .19-.02.38-.03.57 0 .09 0 .19-.01.28s-.02.19-.03.28c-.02.19-.04.38-.06.56-.08.75-.2 1.48-.35 2.17-.02.09-.03.17-.05.26-.02.09-.04.17-.06.26-.04.17-.08.34-.13.5-.08.33-.18.65-.28.96-.05.16-.1.31-.14.46-.05.15-.11.3-.16.44-.05.14-.11.28-.16.42-.05.14-.1.28-.16.41-.11.26-.22.51-.32.75-.05.12-.1.23-.15.34-.05.11-.11.22-.16.32-.1.21-.2.4-.29.57-.05.09-.09.17-.13.25-.05.08-.09.15-.13.23-.16.29-.3.51-.39.66-.09.15-.14.23-.14.23 0 0 .03-.09.09-.26.06-.17.15-.41.26-.71.03-.08.06-.16.09-.24.03-.08.06-.18.09-.27.06-.19.13-.39.2-.6.04-.11.07-.22.11-.33.04-.11.07-.23.11-.36.07-.24.15-.5.23-.76.04-.13.07-.27.11-.41.04-.14.07-.28.11-.43.04-.14.08-.29.12-.44.03-.15.07-.3.1-.46.07-.31.15-.62.2-.95.03-.16.06-.33.09-.5.02-.08.03-.17.05-.25.02-.08.03-.17.04-.25.03-.17.05-.34.08-.52.03-.17.06-.35.07-.52.02-.18.04-.35.06-.53.01-.09.02-.18.03-.27 0-.09.01-.18.02-.27.01-.18.03-.36.04-.54 0-.09.02-.18.02-.27v-.27c.02-.18.03-.37.03-.55 0-.09 0-.18 0-.27v-.27c0-.18 0-.37 0-.55 0-.18-.01-.37-.02-.55 0-.37-.04-.73-.06-1.09 0-.18-.03-.36-.05-.54 0-.09-.02-.18-.02-.27 0-.09-.02-.18-.03-.26-.05-.35-.08-.7-.14-1.04-.1-.68-.23-1.34-.37-1.96-.07-.31-.14-.61-.22-.9-.04-.14-.07-.29-.11-.43-.04-.14-.08-.27-.12-.41-.16-.53-.31-1.02-.47-1.44-.15-.43-.29-.8-.42-1.1-.13-.3-.23-.54-.3-.7-.07-.16-.12-.24-.12-.24z"></path><path fill="#8b4747" d="m158.85,114.11s-.02.1-.04.28c-.01.09-.03.2-.05.33-.02.13-.04.28-.07.45-.05.34-.1.75-.16,1.21-.06.47-.12,1-.18,1.58-.01.14-.03.29-.05.44-.01.15-.03.3-.04.46-.03.31-.05.63-.08.96-.02.33-.05.67-.07,1.02-.02.35-.04.7-.05,1.06-.04.72-.05,1.47-.06,2.22,0,.38,0,.76,0,1.14,0,.19.01.38.02.57,0,.19,0,.38.02.58.02.38.03.77.06,1.15.01.19.03.38.04.57.02.19.04.38.05.57.02.19.03.38.06.56.02.19.04.37.07.55.04.37.1.73.15,1.08.05.36.12.7.18,1.04.05.34.14.67.2.99.06.32.15.63.22.94.04.15.07.3.11.45.04.14.08.29.12.42.04.14.08.27.12.41.02.07.04.13.06.2.02.06.04.13.06.19.08.25.16.49.23.71.03.11.08.22.11.32.04.1.08.2.11.3.07.19.13.37.19.53.13.31.23.56.3.73.07.17.1.26.1.26,0,0-.05-.08-.15-.23-.1-.15-.25-.38-.43-.67-.09-.15-.17-.32-.28-.5-.05-.09-.1-.19-.15-.28-.05-.1-.11-.2-.16-.31-.1-.22-.21-.45-.32-.69-.03-.06-.06-.12-.09-.19-.03-.06-.05-.13-.08-.19-.05-.13-.11-.26-.16-.4-.05-.14-.11-.28-.17-.42-.05-.15-.1-.29-.15-.44-.1-.3-.21-.61-.3-.94-.05-.16-.09-.33-.14-.49-.05-.17-.09-.34-.13-.51-.04-.17-.09-.35-.13-.52-.04-.18-.08-.36-.12-.54-.07-.36-.15-.73-.2-1.11-.03-.19-.06-.38-.09-.57-.03-.19-.05-.38-.07-.57-.02-.19-.04-.39-.07-.58-.02-.19-.03-.39-.05-.59-.04-.39-.05-.78-.07-1.18-.01-.2-.01-.39-.02-.59,0-.2,0-.39-.01-.59,0-.2,0-.39,0-.59,0-.19,0-.39.01-.58.01-.39.02-.77.05-1.15.01-.19.02-.38.04-.56.01-.19.03-.37.05-.55.06-.73.16-1.44.26-2.1.1-.67.21-1.29.34-1.87.06-.29.12-.56.18-.82.06-.26.12-.51.18-.74.12-.46.24-.86.34-1.19.1-.33.19-.58.25-.75.03-.09.06-.15.07-.2.02-.04.03-.07.03-.07Z"></path></g><path fill="#8b4747" d="M167.73 142.64c3.12 4.38 6.91 8.18 11.28 11.32-4.93-2.25-9.05-6.38-11.28-11.32h0zM209.16 195.18c1.72 3.08 3.7 5.74 6.16 8.27-3.1-1.67-5.44-4.82-6.16-8.27h0zM242.36 240.69c2.3.82 2.82 3.96-.09 4.15-.68 0-1.26-.26-1.8-.55.62.01 1.22.06 1.75-.03 2.21-.47 1.21-2.39.13-3.57h0zM228.02 223.48c2.63-.27 4.81-1.3 6.69-3.15-.93 2.52-4.16 4.03-6.69 3.15h0zM200.48 150.38c2.82 2.55 4.37 6.59 3.97 10.36-.68-3.75-1.97-7.12-3.97-10.36h0zM76.89 223.51c3.41-3.34 7.45-6.26 9.42-10.72-.97 4.86-5.42 8.26-9.42 10.72h0zM94.23 176.69c-1.74-1.69.41-4 .96-5.71.71-1.84.99-3.81.94-5.85.81 2.45.38 5.29-.92 7.53-.7 1.14-1.86 2.67-.98 4.02h0zM114.04 149.55c3.55.96 5.54 5.65 3.74 8.86.59-3.52-.81-6.84-3.74-8.86h0zM23.97 246.97c2.86-.29 5.64-2.07 8.55-1.2-2.89.19-5.62 1.95-8.55 1.2h0z"></path><path fill="#fff" d="M131.07 151.82c2.3-.07 4.64 1.49 5.45 3.65-1.72-1.54-3.37-2.65-5.45-3.65h0zM106.43 138.05c2.89-2.02 6.87-2.56 10.19-1.37-3.53-.12-6.82.32-10.19 1.37h0z"></path></g></g></g></svg>