<svg xmlns="http://www.w3.org/2000/svg" viewBox="0 0 275.4 218.28" id="half-pigeon-yoga-pose"><g><g><path fill="#a59a55" d="m29.91,118.72c24.5-17.35,52.88,9.58,50.55,35.53-1.53,17.1-12.21,35.75-28.79,42.51-19.17,7.81-36.14-8.47-37.59-27.37-1.03-13.54.29-28.73,6.99-40.8,2.26-4.07,5.31-7.38,8.84-9.88Z"></path><path fill="#c6f4d2" d="m95.99,122.02c9.47-11.04,22.92-18.4,37.18-21.28,18.97-3.83,39.42.29,55.42,11.18,16,10.89,27.35,28.39,30.75,47.44,1.19,6.65,1.41,13.68-.96,20.01-3.44,9.17-11.98,15.69-21.18,19.04-29.47,10.75-74.4,12.71-99.35-9.79-20.26-18.26-18.94-46.68-1.86-66.61Z"></path><g><line x1="240.55" x2="240.55" y1="35.29" y2="207.53" fill="none" stroke="#8b4747" stroke-linecap="round" stroke-linejoin="round"></line><line x1="243.37" x2="243.37" y1="35.29" y2="207.53" fill="none" stroke="#8b4747" stroke-linecap="round" stroke-linejoin="round"></line><rect width="58.59" height="30.5" x="212.55" fill="#f7bfbf"></rect><rect width="10.42" height="5.43" x="236.63" y="30.5" fill="#f7bfbf"></rect><path fill="#c6f4d2" d="m237.98,205.34l-25.28,9.74h58.57l-25.28-9.74c-2.58-.99-5.43-.99-8.01,0Z"></path><path fill="#8b4747" d="m236.63,30.5l8.48-.5c.28-.02.51.19.53.47.02.3-.23.55-.53.53,0,0-8.48-.5-8.48-.5h0Z"></path></g><line x1="274.9" x2=".5" y1="216" y2="216" fill="none" stroke="#8b4747" stroke-linecap="round" stroke-linejoin="round"></line><g><rect width="64.3" height="6.71" x="35.19" y="37.65" fill="#f7bfbf"></rect><rect width="25.53" height="7.03" x="72.03" y="21.37" fill="#f7bfbf" transform="rotate(-90 84.795 24.885)"></rect><rect width="28.85" height="7.24" x="62.06" y="19.6" fill="#f7bfbf" transform="rotate(-90 76.49 23.22)"></rect><rect width="7.03" height="1.26" x="81.28" y="17.6" fill="#fff"></rect><rect width="7.03" height="1.26" x="81.28" y="32.22" fill="#fff"></rect></g><g><rect width="75.71" height="6.71" x="99.49" y="60.06" fill="#f7bfbf"></rect><rect width="28.85" height="6.71" x="120.71" y="42.28" fill="#f7bfbf" transform="rotate(-90 135.135 45.635)"></rect><rect width="34.15" height="7.03" x="109.7" y="39.47" fill="#f7bfbf" transform="rotate(-90 126.765 42.985)"></rect><rect width="28.85" height="7.24" x="104.03" y="42.01" fill="#f7bfbf" transform="rotate(-90 118.46 45.63)"></rect><rect width="7.03" height=".95" x="123.25" y="35.84" fill="#fff"></rect><rect width="7.03" height=".95" x="123.25" y="51.1" fill="#fff"></rect></g><g><g><path fill="#fff" stroke="#8b4747" stroke-linecap="round" stroke-linejoin="round" d="m205.03,197.53c-1.62-3.45-7.91-28.53-8.73-36.33-.45-4.26-1.4-10.8-2.16-15.85-4.4.39-8.82.55-13.24.64,2.29,7.03,5.53,18.19,7.23,25.76,2.61,11.59,9.6,25.38,9.6,25.38-1.61,8.36,6.61,11.88,10.3,14.43,3.69,2.55,9.42,2.98,9.42,2.98-4.19-1.67-10.81-13.55-12.42-17Z"></path><path fill="#fff" stroke="#8b4747" stroke-linecap="round" stroke-linejoin="round" d="m233.08,202.49c-4.39-13.6-49.93-22.89-49.93-22.89,0,0-29.93,16.74-25.52,19.52,4.07,2.57,17.85,4.49,19.94,4.78l-.11.04s.5,8.76.81,10.02h.3s0,.03,0,.03c0,0,16.15.7,22.23.79,6.08.09,36.67,1.32,32.28-12.28Z"></path><path fill="#8b4747" d="m177.7,182.75c-8.41,4.99-23.28,14.35-20.08,16.36,1.88,1.18,5.82,2.23,9.72,3.04,14.33-6.95,17.95-21.43,17.95-21.43l-7.6,2.03Z"></path><path fill="#f29494" d="m166.21,148.42c-.01,6.57-.46,9.8-1.99,11.46-1.3,1.42-2.38,3.17-3.95,4.66,2.54,1.31,5,2.78,7.41,4.33,2.76,1.76,5.41,3.72,8.25,5.34,2.73,1.56,5.61,2.85,8.59,3.87.74.26,1.49.49,2.23.72.47-1.05.89-2.12,1.25-3.22,2.31-6.91,3.77-12.35,4.86-16.14-9.14-3.02-18.06-6.71-26.67-11.03Z"></path><path fill="#fff" stroke="#8b4747" stroke-linecap="round" stroke-linejoin="round" d="M167.16 148.42c2.92 1.48 4.93 1.67 7.92 3 5.92 2.63 10.81 4.58 16.96 6.6.86-2.91 2.66-4.26 3.37-4.71 2.46-1.57 4.57-3.97 5.45-6.78.63-2.03.52-4.23-.11-6.25-1.34-4.29-4.52-7.63-6.68-11.49-1.81-3.23-3.76-7.23-3.4-11.06.03-.27.06-.54.12-.81.35-1.65 4.71-6.66 4.71-6.66 0 0 .18-13.04.03-14.31-.15-1.26-4.41-2.84-4.91-2.08 0 0-10.07 15.98-14.33 18.96-4.26 2.98-10.62 9.16-10.26 23.96.1 4.12 1.12 8.76 1.14 11.61zM58.05 203.17c-10.39 3.09-13.81 1.95-14.55.77-.78-1.25-3.9-6.65-7.16-4.45-3.26 2.2-4.95 7.55-9.6 9.52-4.65 1.97-7.54 3.41-8.55 3.93-1 .52-2.12 2.06-1.1 2.8 1.02.74 8.62.62 12.04.7 3.42.07 10.62-1.18 13.78-1.36 1.52-.08 7.74-.3 14.91-.35-.47-3.83-.4-7.76.23-11.57z"></path><path fill="#fff" stroke="#8b4747" stroke-linecap="round" stroke-linejoin="round" d="m187.73,176.44c-7.82-2.05-22.66-11.54-25.87-13.63-1.43,1.75-3.12,3.45-6,4.3-4.54,1.34-10.85,2.32-18.02,13.2,0,0-18.55,11.69-23.82,15.19-5.26,3.5-13.31,6.92-19.53,5.75-6.22-1.17-22.45-2.56-34.42,1.3-1.46.47-2.79.86-4.01,1.19-1.3,3.87-.36,8.72.24,11.02,8.09-.09,17.8.02,23.35.78,10.02,1.36,22.12,5.6,44.39-2.97,22.28-8.58,28.69-11.21,37.92-12.24,9.03-1.01,21.07-10.92,25.78-23.87Z"></path><path fill="#8b4747" d="m157.57,166.44c3.64,2.94,17.52,13.71,27.66,15.44.96-1.74,1.8-3.56,2.49-5.44-7.82-2.05-22.66-11.54-25.87-13.63-1.12,1.37-2.4,2.71-4.28,3.63,0,0,0,0,0,0Z"></path><path fill="#fff" stroke="#8b4747" stroke-linecap="round" stroke-linejoin="round" d="m177.45,203.94c-1.35.06-5.92.22-6.46-.1-.64-.37-3.88-5.51-8.41-3.41-4.53,2.1-1.56,5.34-8.36,8.11-6.79,2.77-10.55,5.61-9.36,8.38,0,0,2.53-.04,4.92-.96,2.39-.92,12.02-.19,15.94-.88,2.75-.49,8.96-.88,12.53-1.12-.3-1.24-.79-9.69-.81-10.01Z"></path><path fill="#f29494" d="m188.97,119.71c-1.01-1.73-2.74-3-4.61-4.1-3.27-1.92-8.7-2.63-11.65.28-1.36,1.34-2.48,3.02-3.39,4.69-2.67,4.94-3.43,10.69-3.3,16.23.19,7.71.3,12.99.05,16.62,10.87,5.72,22.15,6.39,26.71,6.41,1.08-3.77,1.81-6,2.62-6.52,2.33-1.49,4.28-3.72,5.27-6.32,1.56-4.1-.5-6.99-2.69-10.29-1.42-2.13-2.75-4.32-4.02-6.54-1.54-2.68-2.63-5.61-3.93-8.41-.33-.72-.68-1.4-1.06-2.05Z"></path><path fill="#8b4747" d="m177.45,203.93s2.6-.26,6.51-.66c.98-.1,2.03-.22,3.15-.35,1.11-.13,2.29-.28,3.48-.49.3-.06.58-.12.88-.2.3-.08.6-.17.9-.25.61-.17,1.22-.36,1.84-.52,1.25-.34,2.52-.67,3.8-.97,1.28-.3,2.57-.56,3.85-.78,1.27-.23,2.54-.4,3.77-.52,1.23-.13,2.42-.2,3.56-.21,1.13-.02,2.21.02,3.19.12.49.04.96.11,1.41.17.45.07.87.15,1.26.24.79.17,1.46.38,2,.58.54.2.95.39,1.23.53.27.14.42.22.42.22,0,0-.15-.06-.44-.18-.29-.11-.71-.26-1.26-.42-.55-.16-1.22-.31-2-.44-.78-.12-1.67-.22-2.64-.26-.49-.02-.99-.03-1.52-.03-.52,0-1.07.01-1.62.04-1.11.06-2.29.16-3.5.31-1.21.15-2.45.35-3.71.58-1.26.23-2.53.5-3.8.79-1.27.29-2.54.61-3.78.94-.62.16-1.24.33-1.85.49-.31.08-.61.16-.92.24-.31.08-.63.14-.93.19-.62.1-1.22.17-1.81.24-.59.06-1.17.11-1.73.16-1.12.1-2.19.16-3.17.22-.98.06-1.88.1-2.68.13-.8.03-1.49.05-2.07.07-.57.02-1.02.02-1.33.03-.31,0-.47,0-.47,0Z"></path><g><path fill="#fff" stroke="#8b4747" stroke-linecap="round" stroke-linejoin="round" d="m170.74,119.75c2.98-4.41,9.17-4.37,13.34-1.81,4.61,2.83,7.79,8.53,6.48,13.98-.24,1.02-1.25,2.23-1.01,3.29,0,0,3.77,16.66,5.18,25.12,1.42,8.46,9.98,35.41,11.98,39.07,1.23,2.25,4.74,7.86,8.36,12.2l.15.09s2.51,3.98,6.69,3.23c0,0-.11,1.38-3.84,1.52-3.73.13-6.19-1.39-9.43-2.96-3.25-1.57-11.72-6.33-9.93-14.03h0s-8.56-14.57-12.19-27.05c-3.63-12.48-11.77-33.94-12.78-34.63-5.38-3.68-6.48-12.88-3-18.02Z"></path><path fill="#8b4747" d="M181.67 121.08c3.64.97 5.66 5.77 3.8 9.05.66-3.59-.78-7.01-3.8-9.05h0zM182.76 153c1.46 2.92 2.44 6 2.92 9.22-1.46-2.91-2.44-6-2.92-9.22h0zM198.34 194.55c3.04 1.24 4.23 5.66 2.23 8.26.86-3.05.05-6.06-2.23-8.26h0zM207.92 209.97c1.33.82 2.35 1.37 3.76 2.03-1.5.44-3.3-.53-3.76-2.03h0z"></path></g><g><g><path fill="#f29494" d="m201.87,90.71s.06,0,.16,0c.1,0,.26-.01.45-.04.19-.03.43-.07.69-.13.26-.08.56-.17.86-.33.3-.17.6-.39.87-.69.26-.3.5-.66.63-1.08.27-.83.32-1.77.07-2.67-.12-.45-.35-.87-.59-1.24-.24-.37-.48-.71-.65-1.06-.17-.35-.25-.71-.23-1.07,0-.37.04-.75-.03-1.09-.07-.35-.26-.65-.47-.83-.21-.19-.44-.29-.62-.36-.19-.06-.34-.08-.45-.09-.1,0-.16,0-.16,0,0,0,.05.01.16.03.1.02.25.07.42.15.17.08.37.2.54.39.17.19.3.44.34.75.04.31,0,.65-.05,1.04-.05.4.03.85.2,1.25.17.4.42.77.65,1.13.23.36.42.73.53,1.13.12.4.16.82.16,1.24,0,.42-.06.83-.17,1.2-.21.76-.73,1.34-1.27,1.68-.27.17-.54.3-.79.39-.25.09-.47.16-.66.2-.37.09-.59.12-.59.12Z"></path><path fill="#f29494" d="m205.11,83.29s.01.04.04.12c.03.08.06.2.12.34.11.29.3.7.55,1.18.24.47.53,1.02.66,1.64.06.31.1.63.06.96-.01.16-.05.33-.08.49-.04.18-.09.32-.15.47-.25.61-.74,1.1-1.3,1.4-.56.31-1.15.47-1.67.58-.52.11-.96.16-1.27.19-.31.03-.49.05-.49.05,0,0,.18.02.49.03.31,0,.76.02,1.3-.04.54-.06,1.17-.18,1.8-.48.31-.15.62-.36.89-.62.27-.26.49-.59.64-.94.07-.17.14-.37.18-.54.04-.19.07-.37.09-.56.04-.37,0-.74-.1-1.08-.18-.69-.53-1.23-.82-1.68-.29-.45-.55-.81-.7-1.08-.16-.27-.24-.43-.24-.43Z"></path></g><g><path fill="#fff" stroke="#8b4747" stroke-linecap="round" stroke-linejoin="round" d="m202.74,90.48s1.67,1.29,1.23,3.89c-.44,2.6-1.02,3.32.44,4.85,1.45,1.52,2.14,2.29,2.07,2.9,0,0,.29.94-1.2,1.2-1.49.25-2,1.56-1.31,2.9,0,0,.25.87-.87,1.09,0,0,.76.8.15,1.34-.62.54-1.31.65-1.16,1.6.13.82.06,2.26-1.02,3.02-.83.58-2.35.38-3.04-.37,0,0-4.43.15-7.29-2.87-2.87-3.01-3.01-6.26-2.57-7.28,0,0-1.75.63-3.13-1.29-1.37-1.92-1.74-3.41-1.05-5.04.69-1.63,2.36-2.87,2.94-2.79.58.07,2.36.15,2.36.15l4.61-3.74,3.85-1.02,5.01,1.46Z"></path><path fill="#f29494" d="M196.79 89.95c-.16.48 2.49 1.22 2.72 1.25 2.23.32 5.02-.75 5.48-3.19.7-3.67-2.83-6.36-5.82-7.58-2.86-1.17-6.92-1.64-9.96-.94-1.53.35-2.75 1.38-4.09 2.13-1.71.95-3.73.93-5.55 1.58-6.39 2.26-6.8 11.05-4.04 16.19.27.5.57.99.89 1.46.21.31.99 1.04 1.03 1.38 0 0 .48 4.74 4.93 4.64 4.44-.1 3.25-4.77 3.24-4.79-.04-.17-.47-.48-.58-.63-.46-.59-.77-1.27-.95-1.99-.46-1.93.41-5.43 3.05-4.74 1.85.48 2.23 3.03 4.14 3.33.7.11 1.36-.65 1.35-1.26 0-.38-.14-.74-.22-1.1-.36-1.55.62-2.14 1.79-2.66 1.27-.56 2.17-1.81 2.59-3.09zM185.12 72.29s.5-1.95-1.97-3.11c-2.54-1.19-5.66-.13-7.22 2.17-1.53 2.26-1.17 5.86 2.07 6.18 2.97.29 7.12-5.24 7.12-5.24z"></path><path fill="#f29494" d="m188.28,79.87c.29-.66,0-1.4-.55-1.83-1.28-1.01-2.61-.14-3.91.28-.73.23-1.54.21-2.27-.04-.73-.25-1.18-.94-1.9-1.22-2.36-.9-3.48,2.93-2.59,4.49.63,1.1,1.91,1.7,3.17,1.82,2.65.26,5.56-.73,7.41-2.64.25-.25.49-.55.63-.87Z"></path><path fill="#f29494" d="m185.86,77.57c.55-.47.93-1.1.99-1.94.12-1.8-.98-3.52-2.87-3.66-1.26-.09-2.54.17-3.57.92-.85.61-1.69,1.62-1.75,2.7-.12,2.18,2.71,3.7,4.63,3.19.91-.24,1.87-.6,2.57-1.21Z"></path><path fill="#8b4747" d="m203.77,94.63c.2.32.23.81.03,1.14-.23.38-.53.26-.75-.05-.3-.4-.48-.88-.98-1.07-.64-.25-1.28-.23-1.87.16-.57.38-1.35.87-2.06.62.39-.17.76-.38,1.1-.62.25-.18.46-.41.71-.58.58-.4,1.31-.57,2.02-.52.39.03.77.13,1.12.32.29.16.53.36.68.61Z"></path><path fill="#8b4747" stroke="#8b4747" stroke-miterlimit="10" stroke-width=".25" d="m202.4,97.64s-.02.06-.08.16c-.06.1-.15.23-.28.35-.07.06-.15.11-.24.16-.09.05-.19.07-.3.1-.11.02-.22.02-.34.02-.1,0-.26-.02-.37-.04-.48-.07-.94-.28-1.21-.53-.28-.25-.38-.51-.38-.51,0,0,0,.07.02.19.02.12.08.29.2.46.12.17.3.35.54.49.23.14.5.23.78.27.16.02.26.03.42.03.14,0,.28-.02.42-.06.13-.04.26-.1.36-.17.11-.07.19-.16.25-.25.13-.18.17-.35.2-.47.02-.12.01-.19.01-.19Z"></path><path fill="#8b4747" d="m188.39,97.35s0-.12-.09-.33c-.09-.2-.28-.48-.63-.67-.17-.09-.38-.16-.61-.18-.24-.02-.46-.02-.74.09-.1.05-.2.09-.31.16-.11.09-.24.17-.32.28-.18.2-.32.44-.41.68-.05.12-.09.25-.11.38-.03.13-.05.25-.06.38l-.02.19v.19c.01.13.03.25.05.37.02.12.04.24.08.35.04.11.07.22.13.32.09.2.22.38.35.52.07.07.14.13.21.19.08.04.15.08.22.12.14.07.28.09.38.12.22,0,.34,0,.34,0,0,0-.12-.03-.32-.08-.09-.05-.21-.09-.32-.17-.05-.04-.11-.09-.17-.14-.05-.06-.1-.12-.15-.19-.09-.14-.18-.3-.24-.48-.04-.09-.06-.19-.08-.29-.03-.1-.04-.2-.05-.31-.02-.1-.02-.21-.02-.32,0-.11,0-.22.02-.33,0-.11.03-.22.05-.33.02-.11.06-.22.1-.32.07-.21.18-.4.32-.56.06-.09.14-.13.2-.2.08-.06.2-.12.29-.17.14-.06.37-.11.55-.11.19,0,.37.03.53.09.32.11.54.31.66.48.05.08.1.15.12.21.02.05.04.08.04.08Z"></path></g></g></g><path fill="#8b4747" d="M68.32 204.2c5.22-2.82 12.03-2.61 17.06.53-5.44-2.13-11.5-2.32-17.06-.53h0zM96.83 213.62c4.42 1.96 9.47 1.1 13-2.2-2.65 4.17-9.12 5.26-13 2.2h0zM136.61 187.71c-.03-2.5 1.6-6.08 4.64-5.13 1.94.82 2.44-.69 2.75-2.39.64-2.52 2.5-4.76 4.89-5.74-2.12 1.36-3.66 3.47-4.2 5.9-.27 2.02-1.22 3.93-3.65 2.9-2.68-.86-3.96 2.24-4.43 4.46h0zM153.42 199.27c1.03-.97 2.6-.98 3.92-1.01 4.03.08 7.85-1.89 10.22-5.14-1.71 3.83-6.1 6.18-10.23 5.71-1.33-.09-2.7-.25-3.9.44h0zM58.05 204.42c.01 2.96.02 5.73 0 8.69-1.02-2.77-1.02-5.92 0-8.69h0zM35.89 203.35c.03-1.3 1.46-2.3 2.74-2.06 1.29.22 2.29 1.63 1.88 2.87-.1-.59-.39-1.06-.74-1.43-1.12-1.25-3.08-.78-3.88.62h0zM227.86 199.99c3.43 1.33 3.9 6.67.75 8.58 2.1-2.68 1.78-6.31-.75-8.58h0zM179.27 204.57c1.23 2.43 1.66 5.62.4 8.12.23-2.74-.18-5.37-.4-8.12h0zM161.4 204.35c.49-2.6 4.53-2.88 5.38-.37-1.7-1.47-3.9-1.32-5.38.37h0zM202.46 186.66c2.79 1.99 7.94 2.13 8.54 6.26-1.57-3.57-6.32-3.35-8.54-6.26h0z"></path></g></g></g></svg>