<svg xmlns="http://www.w3.org/2000/svg" viewBox="0 0 24 24" id="health"><path fill="#75afff" d="m19.35,6.48c.92-.69,1.46-1.75,1.54-2.88-1.15-.76-2.65-.93-3.98-.28-1.17.58-1.93,1.66-2.15,2.86"></path><path fill="#112d55" d="m19.59,8.537c-.49-.625-1.074-1.137-1.709-1.533,1.019-.805,1.662-2.015,1.757-3.351.019-.27-.109-.529-.334-.679-1.435-.948-3.201-1.07-4.727-.325-.757.375-1.376.934-1.827,1.61v-1.258c0-.414-.336-.75-.75-.75s-.75.336-.75.75v3.406c-.005-.001-.01-.004-.016-.005-1.219-.331-2.366-.375-3.406-.131-1.298.305-2.512,1.11-3.419,2.268-1.211,1.545-1.672,3.828-1.265,6.265.421,2.522,1.71,4.701,3.448,5.827.713.463,2.307,1.347,4.062,1.347.442,0,.896-.057,1.347-.189,2.25.657,4.515-.578,5.407-1.157,1.738-1.126,3.027-3.305,3.448-5.827.407-2.437-.054-4.72-1.265-6.265Zm-4.351-4.543c.903-.443,1.936-.436,2.839.005-.159.758-.574,1.428-1.179,1.882l-.583.437c-.049-.013-.096-.037-.145-.049-.823-.193-1.712-.199-2.65-.032.205-.983.824-1.8,1.718-2.243Zm4.136,10.561c-.353,2.114-1.394,3.915-2.784,4.816-.575.372-2.587,1.543-4.256.955-.122-.061-.23-.098-.341-.098-.081,0-.164.02-.253.064-1.747.623-3.758-.549-4.334-.922-1.39-.901-2.431-2.702-2.784-4.816-.333-1.992.028-3.896.966-5.092.697-.891,1.614-1.506,2.581-1.732.547-.13,1.455-.212,2.671.117.293.079.58.181.854.302.193.086.414.086.607,0,.273-.121.561-.223.854-.302,1.216-.33,2.124-.247,2.67-.117.967.227,1.884.842,2.581,1.732.938,1.196,1.299,3.1.966,5.092Z"></path><path fill="#112d55" d="m15.478,9.189c-.405-.098-.806.158-.899.562-.093.403.159.806.563.898.305.07.635.311.904.656.264.344.438.999.454,1.71.009.409.343.733.75.733h.018c.414-.01.742-.353.733-.767-.024-1.061-.296-1.981-.768-2.594-.487-.626-1.11-1.053-1.754-1.2Z"></path></svg>