<svg xmlns="http://www.w3.org/2000/svg" width="16" height="16" id="health"><path style="line-height:normal;-inkscape-font-specification:Sans;text-indent:0;text-align:start;text-decoration-line:none;text-transform:none;block-progression:tb;marker:none" d="M3.906 2C1.76 2-.035 3.72 0 5.875c.028 1.734 1.308 3.4 2.719 4.813 1.41 1.413 3.023 2.596 3.875 3.218l.281.188.281-.188c.851-.621 2.49-1.834 3.907-3.25.14-.14.269-.293.406-.437l-.375-.844-.063-.156c-.222.255-.442.504-.687.75-.384.383-.77.761-1.156 1.094-.865.743-1.704 1.334-2.313 1.78-.749-.55-1.81-1.353-2.875-2.343-.185-.172-.38-.348-.563-.531C2.099 8.628 1.02 7.094 1 5.875.974 4.281 2.298 3 3.906 3c1.106 0 2.04.595 2.531 1.5l.438.813.438-.813A2.849 2.849 0 0 1 9.842 3c.21 0 .561.057.737.11 1.256.314 2.17 1.411 2.17 2.765l.781-1.188C13.02 3.133 11.571 2 9.844 2 8.6 2 7.586 2.654 6.875 3.563 6.165 2.652 5.15 2 3.906 2zM10.5 4.232 8.904 7.955l-.965-1.45L6.691 9H5v1h2.309l.753-1.506 1.034 1.553L10.5 6.77l1.416 3.3 1.182-1.869.529 1.799h1.904V9h-1.156l-.941-3.2-1.348 2.132-1.586-3.7z" color="#000" enable-background="accumulate" font-family="Sans" font-weight="400" overflow="visible"></path></svg>