<svg xmlns="http://www.w3.org/2000/svg" width="32" height="32" fill="none" viewBox="0 0 32 32" id="smile"><path fill="#000" fill-rule="evenodd" d="M16 28C22.6274 28 28 22.6274 28 16C28 9.37258 22.6274 4 16 4C9.37258 4 4 9.37258 4 16C4 22.6274 9.37258 28 16 28ZM9.4 13.5C9.4 12.3402 10.3402 11.4 11.5 11.4C12.6598 11.4 13.6 12.3402 13.6 13.5C13.6 13.7209 13.7791 13.9 14 13.9C14.2209 13.9 14.4 13.7209 14.4 13.5C14.4 11.8984 13.1016 10.6 11.5 10.6C9.89837 10.6 8.6 11.8984 8.6 13.5C8.6 13.7209 8.77908 13.9 9 13.9C9.22091 13.9 9.4 13.7209 9.4 13.5ZM18.4 13.5C18.4 12.3402 19.3402 11.4 20.5 11.4C21.6598 11.4 22.6 12.3402 22.6 13.5C22.6 13.7209 22.7791 13.9 23 13.9C23.2209 13.9 23.4 13.7209 23.4 13.5C23.4 11.8984 22.1016 10.6 20.5 10.6C18.8984 10.6 17.6 11.8984 17.6 13.5C17.6 13.7209 17.7791 13.9 18 13.9C18.2209 13.9 18.4 13.7209 18.4 13.5ZM8.79971 18.6538C8.99093 18.5431 9.23562 18.6085 9.34624 18.7997C10.6609 21.0724 13.1172 22.6 15.9297 22.6C18.7423 22.6 21.1986 21.0724 22.5132 18.7997C22.6239 18.6085 22.8685 18.5431 23.0598 18.6538C23.251 18.7644 23.3163 19.0091 23.2057 19.2003C21.7539 21.71 19.0394 23.4 15.9297 23.4C12.82 23.4 10.1055 21.71 8.65375 19.2003C8.54314 19.0091 8.60848 18.7644 8.79971 18.6538Z" clip-rule="evenodd"></path></svg>