<svg xmlns="http://www.w3.org/2000/svg" viewBox="0 0 2742 1828" id="patient-is-addicted-to-medicines"><g><path fill="#ffe4ce" fill-rule="evenodd" d="M1353.86 808.46l-16.28 5-16.42-4.71-19.85 4.43-15-2s-8.59 12.63-27.15 15.73-27-3-27-3-16 11.11-33.44 12.22c-13 .82-18.29-7.78-18.29-7.78s-14.78 6.47-25 7-15.82-4.78-15.82-4.78a41 41 0 01-10.07 6.75 52.6 52.6 0 01-12.62 3.51s-5.78 22.78-14 47.55c-10.86 32.75-25.84 73.16-36.13 110.11a376.37 376.37 0 00-11.14 58.7c-1.83 18.56-3.36 66.94-4.29 123.39-.64 39.52-2.29 85.94 1.86 116.25 3 22.1 14.33 45.24 19.85 50.27 2.64 2.4-3.82 11-7.14 25.71-3.27 14.49-3.36 35-.71 43s11.28 10.2 21.28 6.43c7.5-2.83 20.28-12.14 20.28-12.14s19.67 35 43.84 65.7 52.84 57.12 52.84 57.12l47.44 52.67 20.41 12.12 13.12-13 3.75-22.33-3.12-19.37-6.64-18.55 14.68-2.32 14.18-10.92 9.24-11 12.73 21a54.51 54.51 0 00-6.51 19.91c-1.13 10.9 2 23.69 2 23.69s8.64 11 19.43 11.38c9.69.33 21.47-10.08 24.38-8.48.08 0 21.69 11.89 32.24-.37 2.78-3.23 4.62-14.35 3.65-23.6-.76-7.37-4.25-21.3-4.25-21.3l13-18.85s16.92 13 26.52 15.89c6.58 2 18.3-3.66 22.09-8.16 2.68-3.17 3.49-14 1.56-24.33-1.78-9.56-13.85-34.59-13.85-34.59l30.59-32.17s21.1-23.13 23.76-26.78c3.13-4.32 1.46-13.58 4.43-17.63 10-13.72 21.1-29.14 28.12-38.55 8.87-12 27.38-31.32 27.38-31.32l4.62 10.93s-16.82 35.6-33 76.79c-17 43.35-77.2 108.21-91.59 149.64-7.22 20.8-2.21 43.76 5.06 52.63 6.54 8 14.95 2.93 16.86 1.94 12.4-6.4 20-19.44 35-35.6 26.15-28.07 57.81-58 84.44-91.94 13.87-17.65 26.14-42.46 36-55.63 2.82-3.74 14.27 8.3 23.15 12.07 8.73 3.7 14.9-.85 17.37-5 2.93-4.92 4-22.51 1.39-38.28-2.42-14.88-8.43-28-6-33.07a361.6 361.6 0 0015.21-39.26c9.12-27.77 4.62-82.73 5-119.09.6-53.41-.8-115.13-9.56-168.25-9.16-55.58-27.12-104.72-38-141-11.09-36.93-15-60.47-15-60.47s-16.89 10.08-31.28 9.7-26.27-11.13-26.27-11.13-16.81 4.19-28.14 3.14S1512 816.6 1512 816.6s-13.28 6.24-25.85 5.43-24.42-8.71-24.42-8.71S1443 820.25 1430 819a32 32 0 01-20.56-10.57 79.2 79.2 0 01-17.43 3.86 74.8 74.8 0 01-17.28-.86s-1.94 10.47-4.85 20.28a184.85 184.85 0 01-6.86 18.85zm-59.12 524.41s-.12 10.58 4.28 17.85 13.42 11.28 13.43 11.28l-6.14 6.57L1289.74 1346zm-48.49 70.5c3 5 35.55 49 35.55 49s-7.57 13-11.82 25.57a112.85 112.85 0 00-5.16 24.61s-39.74-53.33-43.77-59.28-13.28-22.84-13.28-22.85-19.43-40.88-32-72c-10.24-25.41-14.32-41.91-12.52-43.83 2.71-2.9 32.09 32.71 52.94 59.26 4.53 5.75 1.55 26.63 7.53 34.29C1231 1407.44 1244.6 1400.64 1246.25 1403.37zM1160.65 651.12l-10.6-5.81L1177 633.58l10.33 3.72 15.23-1 14.79-4.81 12.6-8 5.3 5.22 13.41-.31 17.41-5.54 18.61-10.87 9.92 2.2 13.49-2.92 15.39-7.07 8.55-6.44 4.12 5.11L1341.5 677l-10.27-.88-15.08 5.13-12.23-3.41-14.8-2.87-12.61.33-6.92-8.28L1255 661.73l-17.14-.86-8.06-.09-9.82-7.23-20.22-4.5-18.11.51L1171 650.81l-6.57.83zM1556.47 594.78l-9.3 7.09-12.37-.82-16.19 3.9-12.19 7.27-8.81 6.07-9.95-1.11-13.18 3.69L1460 628.09l-10 7.06-6.73 5.62-11-.47-13.34 6-10.62 8.13-10 9.57-13.3-.64 3.54-71s12.78 1.94 14.74 2 21-2.66 21-2.66l11.91-4.5 6.49 6.84 13.86-.55 27.34-6.17 2.85 6.86 15.5 1.68 16.59-2.37 12.8-3.13 6.82 3.77 9.07 1zM1719.23 52l-52.8 419.43s-12.63-6-24-6-21.43 6.22-21.43 6.22-5.25-6.49-16.07-7.53-27.23 3.38-27.23 3.38A23.16 23.16 0 001560 457.08c-12.27-.95-31.36 6.71-31.36 6.71s-12.61-7.8-26.56-6.85-29.23 10.68-29.23 10.68-15.15-5.39-29.65-3-28.36 12.64-28.36 12.64a19.18 19.18 0 00-7.37-6.65 45.49 45.49 0 00-11.28-3.57l10-193.92L1410.88 52s75-16.69 152.08-16.69S1719.23 52 1719.23 52zM1304.81 52.72l2.58 137.68 18.07 294.23-20.7 10.27-10.23-4.25-16 1.33-15.51 4.67-13.7 8.09-8.4-3-15.37.56L1211 507.84l-14.09 7.63-11.32-3.37-20 2.33-17.7 9.75-17.18-5.76-18.09 2.25-24.24 18.75-13.56-4.16-54.45-281.92L989 110.36l-16.14-59s81-17.21 164-16.88S1304.81 52.72 1304.81 52.72z"></path><path fill="#b4806b" fill-rule="evenodd" d="M1080,660.29c1.77-2.81-3.49-3-5.62-3.88-2.57-1-1-6-5.77-10.17-22.37-19.55-34.5-62.4-28.65-80.32,2.45-7.52,7.89-14.17,12.31-18.78,11.24-11.75,25.3-13.72,36.33-8.51,4.07,1.93,4.16-2.66,8.24-7.63,3.61-4.39,11.11-9,15.83-11,5.89-2.56,15.6-4.11,22.52-2.55,5.22,1.19,7.74,5.6,12.14,4.51,4.92-1.21,14.46-7.72,26-9.35,8.67-1.22,19.87,2.27,23.23,2,6.86-.51,12.72-8.86,22.38-11.46,11.12-3,25.94-.15,30.89,1,5.91,1.35,9-9.22,17.15-11.08,6-1.38,18.6-4,26.53-2.95,5.39.73,6.2,5.42,10.9,4.66,6.55-1.06,10.49-8.16,20.39-10.47,10.48-2.44,26.82,0,30.13,1.19,2.91,1.08,9.08-9.61,19.46-13.16,15.42-5.27,36.48-3.56,40.27,4.93,1.11,2.49,11.69-9.67,23.62-12.2,6.89-1.46,17.91-2.51,24.67-1.19,5.41,1.07,6.77,4.56,10.86,3.86,5.55-1,10.84-6.54,17-8.49,9.23-2.93,19.15-2.34,25.17-2.71,7.15-.44,6.55,6.54,13.65,5.9,5.86-.53,14.4-4.61,20.34-4.65,5,0,12.93-.65,18-.18,4.48.41,7.12,8.19,11.85,8.64,5.14.49,12.93-3.47,18.42-2.78s8,.9,14.09,1.81c4.4.66,3.52,5.33,8.41,6,1.43.21,5.45-3.88,12.49-5.64,5.49-1.38,13.63-.76,18.52.66,5.49,1.6,13.44,4,17.12,8.41,2.41,2.88.15,8.66,4.09,8.48,8.55-.39,16.52-.31,22.67,4.33,7.48,5.64,6.92,27.23,5.73,32.06-1.34,5.42-2.11,12.65-6.62,19.28-9.34,13.71-26.84,26.91-43.36,30.56-2.88.64-8.58,3.43-7-1.58.64-2,.46-6.37-6-5.45s-30.67,11.52-38.69,19.42c-1.53,1.52-9.74-1.36-19.51,1.27-9.06,2.45-19.65,10.43-23.16,11.27-2.42.58-9.83.45-15-.68-6.35-1.37-10.64-3.81-13.58-3.31-5.93,1-16.61,6.51-22,6.26-6.49-.29-13-.73-18-2.84-3.1-1.3-4.34-4.75-8.61-4.65-7.45.17-19,4.89-27,5-7,.06-10.44-4.49-17-4.73-6.9-.24-23.77,5.22-32.73,5-9.41-.2-10.91-6.07-18.08-6.52-4.65-.29-11.91,7-22.48,9.51s-24.23.31-28.61,0c-4.92-.32-11.65,8.49-19.77,12a54.3,54.3,0,0,1-28.1,3.32c-5-1-11.82,7.57-20.16,10.44-14.37,4.94-31.26,5.54-36.86,1.64-2.65-1.85-8.37,8.07-24.11,11.13-21.9,4.27-21.74-2.47-27-2.31-7.78.24-15.82,9-21.66,10.3-17.25,3.78-25.21,2.77-29.16,4-6.57,2,27-2,30.82,1.73,2.78,2.75,8.65.89,18.08-.24A114.66,114.66,0,0,1,1197,649c7.59.79,16.79,1.3,21.65,3.16,8.19,3.14,9.9,7.94,13.52,8.49,4.64.71,15.09-.78,24,.89,9.85,1.86,18.6,7.13,18.42,13.65,0,.91,9.11-1.32,18.81-.28,8,.86,16.46,4.8,19.55,6.29,1.92.93,10.5-4.49,20.22-5.17,11.41-.8,11.58,4.93,16.56,4,6.22-1.1,14-8.81,22.26-12.28,9.63-4.06,19.76-3.92,27.28-4.77,4-.45,8.89-9.9,17.74-15.43,9.28-5.79,22.56-7.67,26.55-7.77,5.73-.15,10.13-8.17,18.87-13,11.9-6.59,28.2-10.3,33.17-7.9,3.85,1.85,10.77-10.22,19.76-12.51,22.38-5.71,23-3,32.59-4.13,6.7-.79,12.57-9.32,20.14-13.06,10.09-5,21.77-5.45,28.72-6.21,3.46-.38,9.43-7.58,17.69-12,11.55-6.22,26-9.77,30-5.93s10.56,11.21,16,15.42c4.48,3.44,17.45,16,25.34,30.67,5.94,11,7.61,24.54,8.46,29.16,1,5.63-2.12,18.26-8.24,26.82-4.4,6.16-11.86,12.11-14.21,13.65-2.91,1.9,6.39,11.14,8.26,12.52s11.72-.47,15.25,2.88c10.74,10.18,12.89,18.53,24.49,31,3.48,3.73,7.08-.17,11,3.51,12.79,12,26.94,32.09,34.14,50.13,3.18,8,5.14-4.09,12.46,5.84a93.63,93.63,0,0,1,15,29.84c1.57,5.63.93,9.82,4.26,15.16s7.44,2.16,10.79,7.6c6.4,10.42,11.86,29.9,16.68,43.1,1.88,5.19,4.62,5.56,7.41,10.41,4.26,7.44,8.73,19.39,11.13,28.2,1,3.83,5.82,4.21,9.32,10.4,4.38,7.78,7.63,21.53,8.75,26.56.83,3.69,7,6.5,10.09,12.87,3.66,7.61,4.3,18.87,5,23.24.67,4,4.43,4.16,6.64,8.09,3.07,5.44,4.71,14.62,5.12,19.85.35,4.51,4.81,5.77,7,12,3,8.27,3.91,21.58,3.63,27.22-.27,5.89,4.77,6.46,7.92,14s3.56,22,3.17,27c-.33,4.28,9.59,11.81,12.41,23.16,1.89,7.64-1.44,18.91-1.27,26.61.09,4.27,6,5.88,6.82,11.91,1.21,8.57-2.36,22.15-1.21,31.37.68,5.49,5.19,7.44,5.53,13,.54,9.24-3.25,22.24-2.54,32.07.26,3.58,3.61,4.56,4.3,8.91,1.13,7.08-.31,17.77-.22,23.51.18,11.94,8.71,27.44,11.8,42.83,4.13,20.66,2.78,40.71-.51,47.79-4,8.62-28.49,25-57,30.47-29.83,5.71-63.73.13-69.26-6.1-1.58-1.77,9.26-10,14.61-23.77,4.72-12.15,4-29.93,3.67-32.81-.5-5-8.48-4.81-8.07-19.2s5.81-13.52,7.06-18.19c.45-1.68-6.17-12-6.77-20.72-.4-5.74,4.22-9.07,6.7-14.67,1.2-2.72-8.53-13.17-9.31-20.82s7.39-12.62,7-15.84c-.58-4.55-13-11-13.86-20.72-.85-9.22,7.79-10,6.11-16.54-.92-3.57-5.23-8.54-6.63-12.85-2.36-7.26-1.86-14.08-2.38-19.48-.47-5,4.12-4.49,3-9.81-.82-3.93-10.31-12.75-12.41-20-2.21-7.54,3-13.5,2.55-18.52-.41-4.75-8.91-6.23-12.08-15.87s2.73-12.07,2-17.27-9-4.3-14.33-14.23c-5.09-9.56-.51-13.49-1.57-19.22-1-5.41-8.39-4.11-11.84-14.4-4.54-13.52.2-20.22-1.21-26.47-1.09-4.84-11.3-10.42-14.37-16.62s1-13.07-.24-17.52c-1-3.57-3.79-4-6.36-7.74-2.83-4.19-5.42-11.77-6.48-15.32-.61-2-10.39-.28-15.51-5.6s-5.35-17.45-5.9-19.32c-1.12-3.83-7.62-3.84-11.77-8.85-5.7-6.9-9.28-18.79-9.6-22.36-.38-4.31-8.73,1.5-16.74-6.7-9.53-9.76-9.73-18-12.9-31.52-.67-2.83-8.18,1.69-12.44-.72-7.41-4.21-13.68-14.71-15-18-.31-.76-4.64,2.47-13.63,1.15-4.12-.6-9.67-4-15.48-5.92-4.75-1.54-13.65,11.33-25,12.17-12.14.88-26.75-10.28-32.22-11.93-5-1.5-10.33,4.46-16.77,4.5-10.66.08-22.59-5.29-28.19-8.47-4.1-2.33-9,3.87-20,4.3-10.38.41-26.9-4.93-29.3-7.86-1.87-2.28-8.76,5.79-19.52,5.39-6.88-.26-16.28.24-23.18-2.17-6.07-2.11-9.92-7.16-12.38-7.28-7.07-.34-8.43,4.46-16.28,4.28-9.41-.24-25.06-5.59-29.46-8-3.33-1.78-5.94,3.74-14.26,5.67-10.12,2.35-26.73,1.67-28.17-1.51-.51-1.13-8.86,2.47-16.79,3.47-7.23.91-14-.82-16.87-.91-3.82-.13-10.35,9.75-20.1,12.28-6.36,1.65-17.36,4.34-23.6,3.85-6.7-.52-8.49-4.3-10.56-4.52-3.3-.34-7.15,3.44-11.39,5.54-6.49,3.21-13.43,5.39-17.16,5.66-5.89.43-11,.39-13.86-1.21-3.77-2.12-4.59-6-8.28-5.72-4.56.38-14.66,6.25-21.85,7.5-8.84,1.55-14.8-1.66-19.31-3.7-3.14-1.43-3.76,4.1-11,7.06-6.4,2.62-19.47,2.68-22.36,2.14-6.88-1.3-14.31-5.31-17.26-9.47-2.32-3.27.1-7.06-5.68-6.75-5,.27-7.69,2-11.77,2.33-3.28.31-4.27.22-7.24.65-5.3.76-1.62,3.15-3,6.63-1.67,4.2-8.21,9.94-14.24,15.44-3.75,3.43.84,8.13-1.71,12.12-3.43,5.31-13.86,10.07-18.55,15.7-4,4.79.39,10.39-3.19,18-1.69,3.58-4.23,9.76-8.07,13.54-3.37,3.32-8.07,4.32-9.7,6.48-3.21,4.25,0,11.7-3.82,16.94-4,5.45-15,8.7-18.07,12.25-3.7,4.29,2.84,6.6-.13,14.13S969.57,970.38,967.16,977c-2.78,7.64,2.6,9.7-1.6,19.16s-13.23,9.93-15.54,15.16c-2.72,6.19,5.48.43.54,15.94s-12.49,18.56-15.22,25c-1.84,4.34,5.12,8.4,4.32,12.61-3.53,18.53-11.36,15.2-18,22.2-3.63,3.81,3.45,8.89,2.56,15.81s-9.74,15.75-11.78,20.89c-1.53,3.85,3.6,8.72,2.34,15.54-1,5.2-8.17,12.2-9.94,16.83-1.95,5.13,4.24,10.28,3.62,17.16-.68,7.61-8.23,16.9-12.13,20.85-2.59,2.63-11.46,27.73,6.25,60.47,4.52,8.35-84.81,5.61-117.95-48.64-5.36-8.77,3.45-36.43,12.82-56.84,7.09-15.43,14.85-24.69,15-30,.41-11.63,1.81-21.52,8.59-29.28,2.77-3.17,2.56-16.45,4.16-26.62s5-17.52,8.92-20.32c5-3.59,1.84-14.5,3.29-21,2-8.92,7.88-14,11.85-21.34,2.88-5.33,1.41-16.64,4.18-23.59,3.63-9.12,11.48-13.94,15.25-20.08,2.88-4.71,3.33-14.47,6.35-21.57,3.83-9,10.24-15.33,13.91-20.45,3.26-4.56,4.67-15.72,7.35-21.6,2.82-6.19,6.91-7.08,10.34-10.9,2.32-2.59,3.86-11.55,6.64-16.3,3.33-5.71,7.92-7.25,10.85-9.81,2.59-2.27,2.76-12.1,6.54-18.4,4.59-7.66,12.81-11.91,15.82-13.84,1.61-1,1.24-7.14,3.79-12.4,3.08-6.33,9.12-12.1,11.31-14.94,4.83-6.3,6.14,1.56,10.53-6.16,3.39-6,5.16-11.93,8.45-17,4.36-6.77,10.27-12.26,15.23-16.55,2.62-2.27,4.46-8.13,8.05-14.39,4.46-7.77,10.8-16.39,15.16-22.41,5.51-7.6,9.9-5.75,13.71-8.85,2.23-1.83,8.21-16.73,15.9-26.41,8.9-11.19,16.35-14.05,20.28-16.55C1073.25,665.63,1077.29,664.53,1080,660.29Z"></path></g><g><path fill="#571519" d="M1666.39 472.6c-.2 0-.41 0-.61 0a4.57 4.57 0 01-3.92-5.15c19-140.69 31-237.86 40.58-315.94 4.26-34.63 8.15-66.37 12.14-97.63a4.63 4.63 0 015.11-4 4.58 4.58 0 014 5.11c-4 31.26-7.88 63-12.14 97.59-9.6 78.11-21.54 175.31-40.59 316.06A4.58 4.58 0 011666.39 472.6zM1077.29 1429.33a15.59 15.59 0 01-4.37-.62c-14.9-4.32-14-22-13.42-32.51l.15-2.9c.65-16 4.81-31.11 8.84-45.74 2.91-10.56 5.92-21.48 7.46-32.4 6.73-47.64 2.7-95.09-1.21-141-2.6-30.67-5.3-62.37-4.79-94 .42-26.44 6.62-53.27 12.6-79.22l2.17-9.45a4.57 4.57 0 118.91 2l-2.17 9.48c-5.88 25.48-12 51.84-12.37 77.32-.5 31.14 2.17 62.62 4.76 93.06 4 46.4 8 94.38 1.15 143-1.62 11.51-4.71 22.72-7.7 33.56-3.89 14.13-7.91 28.74-8.52 43.69l-.15 3c-.6 11.46-.5 21.13 6.84 23.26 4.91 1.4 12.77-3.76 18.52-7.55 1.89-1.24 3.64-2.38 5.18-3.27 19.43-11.14 36.31-35.79 50.18-73.25 14.08-38.08 21.8-88.8 20.64-135.71-.53-21.25-1.07-43.21 7.74-64.93 8-19.64 21.31-34.35 34.22-48.57 6.54-7.21 13.3-14.67 19.3-22.69 35.85-48 72.91-97.54 71.33-161.27A4.58 4.58 0 011307 898a4.44 4.44 0 014.68 4.45c1.66 66.91-36.37 117.77-73.15 167-6.26 8.37-13.17 16-19.85 23.36-12.94 14.26-25.16 27.73-32.52 45.87-8.09 19.95-7.58 40.95-7.07 61.26 1.19 48-6.74 100-21.21 139.11-14.63 39.52-32.87 65.78-54.21 78-1.39.8-3 1.85-4.69 3C1092.61 1424.24 1084.89 1429.33 1077.29 1429.33z"></path><path fill="#571519" d="M1271.82 1601.2c-12.87 0-28.13-17.47-38-28.74-1.91-2.2-3.48-4-4.55-5.07-29.17-29.17-54.56-56.41-77.6-83.3-6.38-7.44-25.94-34.82-46.07-66.89a4.57 4.57 0 117.74-4.86c19.89 31.69 39.07 58.58 45.27 65.81 22.89 26.7 48.12 53.78 77.12 82.78 1.17 1.17 2.89 3.12 5 5.51 6.56 7.51 26.54 30.36 33.65 24.67 14.83-11.86 9.53-47.5 1-62.28-11.12-19.35-27.26-41.93-41.49-61.84-12.28-17.18-22.88-32-28.79-42.53-11.82-21-19.62-40.81-27.17-60-6-15.13-12.12-30.77-20.27-47a4.57 4.57 0 118.18-4.09c8.33 16.65 14.56 32.48 20.6 47.79 7.77 19.74 15.12 38.38 26.62 58.83 5.68 10.08 16.65 25.44 28.27 41.69 14.35 20.09 30.62 42.86 42 62.6 9.92 17.23 16.22 58.42-3.23 74A12.87 12.87 0 011271.82 1601.2zM1069.61 1348.36a4.56 4.56 0 01-4.13-2.62c-9.57-20.19-15.07-36.32-16.36-47.93-4.75-42.73-2.67-204.74 4.88-263.45 4.06-31.47 19.24-74.81 33.92-116.71 9.76-27.86 19-54.17 24.49-75.64a4.57 4.57 0 018.86 2.27c-5.61 21.85-14.89 48.34-24.72 76.39C1082 962.13 1067 1005 1063.07 1035.53c-7.5 58.26-9.57 218.93-4.87 261.27 1.18 10.6 6.41 25.76 15.54 45a4.57 4.57 0 01-4.13 6.53zM1074.49 537.16a4.56 4.56 0 01-4.49-3.74c-38-206.83-87.24-437.91-99.45-475a4.57 4.57 0 018.68-2.86c12.3 37.35 61.74 269 99.75 476.2a4.57 4.57 0 01-3.66 5.32A4.73 4.73 0 011074.49 537.16zM1384.22 1577.44c-25.43 0-46.45-34.82-58.32-54.47l-2.62-4.32c-26.58-43.2-133.68-184.5-159.15-210a4.57 4.57 0 016.46-6.46c25.72 25.72 133.71 168.14 160.48 211.64l2.66 4.38c11.08 18.35 34.15 56.51 56.67 49a13.86 13.86 0 009.07-8.33c5.35-13.36-2.39-39.86-23-78.76l-.62-1.16c-10.94-20.67-33.92-52.62-58.25-86.44-18-25-36.61-50.9-51.45-73.77a4.57 4.57 0 117.66-5c14.72 22.69 33.27 48.47 51.21 73.4 24.52 34.08 47.68 66.28 58.91 87.51l.61 1.15c14.19 26.77 32 64.86 23.41 86.44a22.82 22.82 0 01-14.65 13.6A28.47 28.47 0 011384.22 1577.44zM1334.76 1264.19a4.58 4.58 0 01-4-2.35c-28.67-51.51-27.76-64.27-23.09-70a4.57 4.57 0 017.07 5.8c-.57.68-4.67 8.18 24 59.72a4.57 4.57 0 01-1.77 6.21A4.49 4.49 0 011334.76 1264.19zM1388.22 1352.71a4.58 4.58 0 01-3.89-2.16l-17.54-28.36a4.57 4.57 0 117.77-4.81l17.54 28.36a4.56 4.56 0 01-3.88 7zM1446.53 1524.86c-18 0-38.84-20.3-45.57-31.79-12.3-21-47.7-74-83.43-122.78a4.57 4.57 0 017.38-5.4c35.89 49 71.52 102.33 83.94 123.56 5.67 9.68 24.19 27.27 37.66 27.27h.26c4.67-.08 8.08-2.38 10.7-7.24 7.6-14-4-39.29-14.93-59.71-6.16-11.51-13.22-24-21.58-38.19a4.57 4.57 0 117.87-4.64c8.42 14.29 15.54 26.89 21.77 38.52 12.77 23.83 24.53 50.59 14.92 68.37-5.29 9.77-13 11.93-18.6 12zM1291.53 1332.83a4.55 4.55 0 01-3.6-1.75c-5-6.43-9.77-12.31-14.08-17.49a4.57 4.57 0 017-5.84c4.36 5.24 9.15 11.2 14.24 17.69a4.56 4.56 0 01-3.59 7.39zM1395.22 1176.48a4.58 4.58 0 01-4.19-2.75c-1.93-4.43-3.8-8.86-5.67-13.31-2.27-5.41-4.55-10.82-7-16.26a4.57 4.57 0 018.35-3.7c2.43 5.49 4.74 11 7 16.42 1.86 4.4 3.72 8.81 5.63 13.2a4.57 4.57 0 01-4.19 6.4zM1493.51 1403a25 25 0 01-4.16-.36c-13.29-2.21-24.12-16.22-33.68-28.58-2.2-2.84-4.3-5.56-6.3-8a4.57 4.57 0 017-5.87c2.08 2.47 4.25 5.28 6.53 8.22 8.11 10.49 18.2 23.54 27.95 25.17 5.36.88 7.49-.92 8.61-2.37 8.83-11.41-3.45-52.52-8.56-64-11.76-26.48-31-50.92-49.68-74.55-9-11.35-18.2-23.08-26.38-34.76a4.57 4.57 0 017.49-5.24c8 11.46 17.2 23.09 26.07 34.34 19 24.08 38.62 49 50.85 76.49.24.53 22 54.57 7.43 73.34C1504.4 1399.78 1500.35 1403 1493.51 1403zM1409.42 1321a4.59 4.59 0 01-3.43-1.54q-10.59-12-21-24.19a4.57 4.57 0 117-6q10.36 12.11 20.9 24.09a4.56 4.56 0 01-3.43 7.59z"></path><path fill="#571519" d="M1347.28 1244.23a4.57 4.57 0 01-3.81-2c-10.45-15.7-21-30.35-34.5-37.12a4.57 4.57 0 114.08-8.18c15.56 7.78 26.87 23.47 38 40.24a4.57 4.57 0 01-3.8 7.1zM1325.77 484.4a4.58 4.58 0 01-4.56-4.23C1307.33 294 1299.77 141 1300.45 60.5a4.45 4.45 0 014.61-4.53 4.56 4.56 0 014.53 4.61c-.68 80.24 6.88 232.93 20.74 418.91a4.56 4.56 0 01-4.22 4.89zM1341.48 675.7a4.58 4.58 0 01-4.55-4.16c-1.91-21-3.85-43.25-5.8-66.36a4.57 4.57 0 119.11-.77c2 23.09 3.89 45.31 5.79 66.3a4.57 4.57 0 01-4.13 5zM1374.36 1087.84h0a4.58 4.58 0 01-4.57-4.58c0-23.35.68-51.81 1.32-79.33s1.23-53.46 1-69.21c-.44-37.07-7.07-59.2-12.92-78.72l-1.89-6.34c-1.48-5-3.35-16.6-5.73-35.37a4.57 4.57 0 119.07-1.15c2.85 22.46 4.52 30.86 5.43 34l1.87 6.29c6 20.09 12.85 42.87 13.31 81.23.19 15.91-.41 42-1 69.53s-1.29 55.88-1.31 79.13A4.58 4.58 0 011374.36 1087.84zM1396.55 469.32h-.25a4.57 4.57 0 01-4.32-4.81c10.74-199.95 15.56-347.33 13.24-404.34a4.57 4.57 0 014.38-4.76 4.63 4.63 0 014.75 4.38c3.32 81.36-8.16 310.48-13.24 405.22A4.57 4.57 0 011396.55 469.32zM1385.06 664.33h-.3a4.58 4.58 0 01-4.27-4.86c1.3-20.08 2.61-41 3.92-62.53a4.57 4.57 0 119.12.55c-1.3 21.53-2.62 42.47-3.92 62.57A4.56 4.56 0 011385.06 664.33z"></path><path fill="#571519" d="M1364.54 854.42a4.4 4.4 0 01-1.34-.2 4.53 4.53 0 01-3-5.65c.1-.34.29-.86.57-1.58 1.2-3.06 4.38-11.21 7.34-29.87a4.57 4.57 0 119 1.43c-3.12 19.63-6.56 28.45-7.85 31.77-.16.4-.28.69-.34.9A4.63 4.63 0 011364.54 854.42zM1097 756.69a4.51 4.51 0 01-1.6-.29 57.94 57.94 0 01-10.87-5.55 26.33 26.33 0 01-12.41-19.92c-2.08-18.78 12.33-40.86 22.53-51.12 28-28.11 71.49-36.56 103-35.12 22 1 35.75 8.31 38.08 12.92a5 5 0 01-.23 5.08c-1.56 2.34-4.22 3-9.52 4.34-9.47 2.39-27.09 6.83-45.81 22.78-4.7 4-9.42 9.47-15.29 17.72a4.57 4.57 0 01-7.45-5.3c6.33-8.89 11.52-14.86 16.82-19.38a112.6 112.6 0 0147.41-24.15c-5-2.07-13-4.35-24.43-4.88-29.49-1.35-70.21 6.44-96.06 32.44-9.25 9.3-21.55 29-19.93 43.66a17.08 17.08 0 008.25 13.23 49.15 49.15 0 009.16 4.69 4.57 4.57 0 01-1.61 8.85z"></path><path fill="#571519" d="M1247.62,691.76a4.57,4.57,0,0,1-2.6-8.33,93.3,93.3,0,0,1,20.72-10.59c1-.4,2.21-.86,3.16-1.27-6.06-3.82-27-8.28-35.58-5.42a4.57,4.57,0,1,1-2.88-8.68c11.11-3.68,40.08,1.19,46.93,9.5a7.41,7.41,0,0,1,1,8.58c-1.59,2.82-4.66,4-9.3,5.81a83.87,83.87,0,0,0-18.83,9.59A4.63,4.63,0,0,1,1247.62,691.76Z"></path><path fill="#571519" d="M1309.91 683.71a4.65 4.65 0 01-1.81-.37c-7.56-3.26-23.68-5-34.72-2.29a4.57 4.57 0 01-2.18-8.88c13.41-3.29 31.48-1.13 40.52 2.77a4.57 4.57 0 01-1.81 8.77zM1334.93 817.55a70.76 70.76 0 01-15.91-1.94 4.57 4.57 0 112-8.9c14 3.22 25.08 1.95 35.88-4.16a64.33 64.33 0 0011.12-8 4.57 4.57 0 116.06 6.84 74.27 74.27 0 01-12.68 9.07A52.43 52.43 0 011334.93 817.55z"></path><path fill="#571519" d="M1388.74,818.09a70.84,70.84,0,0,1-15.92-1.94c-3.82-.88-14-3.23-14.41-11.54a4.57,4.57,0,1,1,9.12-.47v0c0,.15.63,1.52,7.34,3.07,14,3.24,25.08,2,35.88-4.16,15.45-8.74,24.14-23.27,33.33-38.66L1445,763a4.57,4.57,0,1,1,7.84,4.69l-.88,1.47c-9.39,15.73-19.11,32-36.67,41.93A52.46,52.46,0,0,1,1388.74,818.09Z"></path><path fill="#571519" d="M1437.2,823.91a70.88,70.88,0,0,1-15.92-1.95c-3.82-.88-14-3.22-14.42-11.54a4.57,4.57,0,0,1,4.33-4.8A4.5,4.5,0,0,1,1416,810s.27,1.47,7.33,3.1c14,3.24,25.08,2,35.89-4.15,16.1-9.11,25.19-24.14,34.81-40,5.48-9.06,11.15-18.43,18.26-26.73a4.57,4.57,0,0,1,6.94,6c-6.62,7.72-12.08,16.76-17.37,25.51-9.81,16.22-20,33-38.14,43.27A52.47,52.47,0,0,1,1437.2,823.91Z"></path><path fill="#571519" d="M1488.7,826.72a70.29,70.29,0,0,1-15.91-2c-3.83-.88-14-3.24-14.42-11.54a4.58,4.58,0,0,1,9.14-.47s.26,1.47,7.34,3.11c14,3.23,25.08,2,35.88-4.16,17.92-10.14,29.12-28.43,40-46.13,5.49-9,10.68-17.44,16.52-24.4,11.1-13.23,23.37-21.47,31.5-26.91,2-1.37,3.79-2.54,5.15-3.56a4.57,4.57,0,0,1,5.47,7.32c-1.47,1.1-3.35,2.36-5.53,3.83-7.7,5.16-19.32,12.95-29.59,25.19-5.4,6.44-10.42,14.63-15.73,23.3-10.91,17.82-23.27,38-43.25,49.31A52.48,52.48,0,0,1,1488.7,826.72Z"></path><path fill="#571519" d="M1537.52,829.58a70.31,70.31,0,0,1-15.92-2c-3.83-.88-14-3.24-14.42-11.54a4.57,4.57,0,0,1,9.13-.47v0c0,.16.62,1.53,7.35,3.09,14,3.24,25.07,1.95,35.88-4.16,16.5-9.33,25.84-24.7,35.73-41,6.17-10.15,12.56-20.65,20.88-29.72,10.34-11.28,22.07-19.66,29.83-25.22,2.67-1.91,5.62-4,7.28-5.42-6.31-3.33-29.69-5.29-40.43,1.82a4.57,4.57,0,0,1-5-7.63c14.42-9.52,44.51-7.09,52.5-.37,2.9,2.43,3.81,5.75,2.44,8.88-1.21,2.77-4.38,5.12-11.43,10.16-7.9,5.65-18.72,13.38-28.41,23.95-7.72,8.42-13.87,18.53-19.81,28.3-10.06,16.55-20.47,33.66-39,44.17A52.56,52.56,0,0,1,1537.52,829.58Z"></path><path fill="#571519" d="M1584.88,837.16c-11.17,0-20.81-4.72-28.4-10.46a4.57,4.57,0,1,1,5.52-7.29c19.43,14.69,38.93,10.68,59.59-12.3,17.67-19.66,34.74-77,31.67-85.5a4.57,4.57,0,0,1,5.76-7.06c1.94,1.35,3.07,3.6,3.45,6.88,1.88,16.17-15.85,71.5-34.08,91.79C1612.4,831,1597.64,837.16,1584.88,837.16ZM1653.8,722h0Zm-.63-.66Z"></path><path fill="#571519" d="M1631.32 831.3a29.38 29.38 0 01-18.53-6.45 4.57 4.57 0 115.69-7.15c7.2 5.71 15.16 4.9 20.58 3.22 11.29-3.52 22-14.14 25.33-25.25 4.34-14.24 7.38-45.68-8.77-73.11a4.57 4.57 0 117.87-4.64c21.87 37.15 11 76.1 9.65 80.42-4.27 14-17.17 26.88-31.36 31.31A35.34 35.34 0 011631.32 831.3zM1075.12 731.43c-11.47 0-19.49-5.27-22.61-14.83-5.43-16.71 6.06-44.52 18.93-53.88 25.92-18.85 55.15-18.78 83.38-18.72h5a4.57 4.57 0 110 9.14h-5c-28 0-54.48-.12-78 17-10 7.24-19.72 31-15.61 43.66 1.86 5.73 6.41 8.52 13.91 8.52a4.57 4.57 0 110 9.14zM1548.45 598.85c-10.45 0-19-2-21.37-5.1a5.3 5.3 0 01-.74-4.66c1-2.65 3.5-4 8.55-6.68 9.17-4.86 26.24-13.91 41.23-34.36 6.59-9 11.23-21.66 15.72-33.91 10.78-29.41 23-62.73 65.79-50.54 8.91 2.54 15.33 8.26 18.56 16.54 6.88 17.62-1.87 42.43-9.43 54.81a113.3 113.3 0 01-27 29.65 4.57 4.57 0 01-5.65-7.19A104 104 0 001659 530.18c8-13 13.74-33.86 8.71-46.72-2.21-5.67-6.31-9.3-12.54-11.07-34.63-9.87-43.94 15.5-54.71 44.89-4.7 12.85-9.57 26.14-16.92 36.17-15.12 20.62-32 30.44-42.19 35.9a70.12 70.12 0 0012.6.16 4.57 4.57 0 01.64 9.12C1552.47 598.78 1550.43 598.85 1548.45 598.85z"></path><path fill="#571519" d="M1499.25,599.73c-7.79,0-14.68-1.09-18-3.61a7.19,7.19,0,0,1-2.9-7.84c.86-3.16,3.69-5.12,8-8.08,6.64-4.61,16.67-11.56,26-26.5,5.64-9,10-19,14.21-28.67,8.31-19,16.9-38.72,35.72-53,12.33-9.34,25.75-13.12,43.65-12.18,4.53.24,15.13.8,17,8.9a4.57,4.57,0,0,1-8.91,2.08c-.26-.37-1.64-1.49-8.57-1.85-15.55-.81-27.16,2.39-37.65,10.34-16.91,12.81-24.66,30.56-32.87,49.34-4.34,10-8.84,20.26-14.83,29.86-10.31,16.54-21.72,24.45-28.54,29.17-.91.63-1.94,1.34-2.79,2,7.63,2.06,30.58.71,38.81-4.44a4.57,4.57,0,0,1,4.84,7.76C1525.85,597.05,1511.45,599.73,1499.25,599.73Zm-12.35-8.52Z"></path><path fill="#571519" d="M1449.65,598.31c-6.2,0-11.39-1-14.2-3.25a7.3,7.3,0,0,1-2.57-7.79c.83-3,3.83-5.72,9.8-11.11,7.29-6.58,18.3-16.52,26.42-29.21,4.29-6.69,8.1-15.41,12.13-24.65,8.67-19.85,18.5-42.34,37.77-56.94,12.33-9.35,25.81-13.11,43.65-12.18,4.55.23,8.85.87,15.48,6.41a4.57,4.57,0,0,1-5.87,7c-4.82-4-7.14-4.14-10.08-4.3-15.52-.8-27.16,2.39-37.66,10.34-17.37,13.16-26.68,34.5-34.91,53.32-4.18,9.58-8.13,18.62-12.81,25.93-8.79,13.71-20.34,24.15-28,31.05-2.22,2-4.64,4.19-6.07,5.68,6.36,1.7,26.27-.23,39.08-6.93a4.57,4.57,0,0,1,4.24,8.1C1476.41,594.84,1461.26,598.31,1449.65,598.31Z"></path><path fill="#571519" d="M1403,598.82c-7.24,0-13.27-1.21-16.37-3.77a7.46,7.46,0,0,1-2.64-8c.81-3,3.56-5.24,8.55-9.38,7.46-6.19,18.73-15.54,27.57-30.77,4.94-8.5,9-17.73,12.86-26.66,8.65-19.81,17.59-40.29,37.14-55.11,12.34-9.35,25.76-13.12,43.65-12.18,4.53.24,15.13.8,17,8.89a4.57,4.57,0,0,1-8.9,2.09c-.26-.37-1.63-1.49-8.57-1.86-15.56-.81-27.16,2.39-37.66,10.34-17.65,13.38-25.73,31.89-34.28,51.49-4,9.16-8.13,18.63-13.33,27.59-9.66,16.63-22.17,27-29.64,33.22-1.66,1.37-3.47,2.87-4.63,4,5.85,2,25.88,1.22,40.74-6.09a4.57,4.57,0,0,1,4,8.2C1428,596,1414,598.82,1403,598.82Z"></path><path fill="#571519" d="M1344,603.46c-4.67,0-8.46-.78-10.75-2.53a7,7,0,0,1-2.58-7.67c.81-3,3.5-5.14,7.95-8.76,6.75-5.49,18.06-14.68,28.21-31.45,5.34-8.83,9.57-18.51,13.66-27.87,8.45-19.35,17.18-39.35,36.3-53.83,12.33-9.35,25.76-13.13,43.65-12.19,4.52.24,15.12.78,17,8.89a4.57,4.57,0,0,1-8.9,2.1c-.2-.29-1.49-1.5-8.57-1.86-15.57-.8-27.17,2.38-37.66,10.34-17.21,13-25.1,31.09-33.45,50.21-4.2,9.63-8.55,19.59-14.21,28.94-11,18.13-23.05,28-30.26,33.82-1.1.89-2.27,1.84-3.22,2.66,7.23.71,26.77-2.59,42.32-11.75a4.57,4.57,0,0,1,4.64,7.87C1375.63,597.75,1356.64,603.46,1344,603.46Z"></path><path fill="#571519" d="M1292.76,618.71a15.5,15.5,0,0,1-6.6-1.18,7,7,0,0,1-4.09-7.59c.5-3.07,3-5.77,7.6-10.68,6.35-6.8,15.94-17.07,24.16-32.87,5.14-9.88,8.56-20.76,11.87-31.28,6-19.16,12.26-39,29-54.49,11.29-10.46,24.31-15.46,42.2-16.22,4.51-.19,15.09-.64,17.81,7.19a4.52,4.52,0,0,1-2.79,5.76,4.6,4.6,0,0,1-5.84-2.75c-.21-.25-1.52-1.37-8.8-1.07-15.56.66-26.78,4.92-36.37,13.8-15,13.87-20.56,31.67-26.49,50.52-3.43,10.9-7,22.17-12.48,32.75-8.79,16.92-19.31,28.17-25.59,34.9-1.31,1.41-2.73,2.92-3.78,4.14,7.64,0,28.06-6,38.63-17.66a4.57,4.57,0,0,1,6.77,6.14C1327,610.18,1305.38,618.71,1292.76,618.71Z"></path><path fill="#571519" d="M1238.86,633c-3.8,0-6.91-.53-8.93-1.67a7,7,0,0,1-3.75-7.4c.54-3.29,3.25-6.51,8.66-12.93a292.87,292.87,0,0,0,23.33-31c6.9-10.64,10.5-22.53,14.32-35.11,5.36-17.7,10.91-36,26.32-50.27,11.29-10.47,24.31-15.47,42.19-16.23,4.51-.2,15.09-.64,17.82,7.19a4.51,4.51,0,0,1-2.78,5.75,4.61,4.61,0,0,1-5.84-2.73c-.21-.26-1.53-1.36-8.81-1.08-15.56.66-26.78,4.92-36.37,13.8-13.59,12.6-18.54,28.93-23.78,46.22-3.84,12.64-7.8,25.71-15.41,37.43a301.36,301.36,0,0,1-24,31.92c-2.18,2.58-4.4,5.23-5.66,7,7.7,1.07,32.71-4.35,45.69-15.46a4.57,4.57,0,1,1,6,6.94C1275.38,626,1252.62,633,1238.86,633Z"></path><path fill="#571519" d="M1190.6,641.87c-5,0-9.23-.79-12-2.41a7.78,7.78,0,0,1-4.18-8.1c.52-3.22,3.7-7.15,11.47-16.5,6.67-8,15-18,20.4-27.26,6.1-10.38,9.75-22.17,13.28-33.58,5.66-18.28,11.51-37.18,27.47-52,11.29-10.46,24.3-15.46,42.2-16.22,4.51-.2,15.09-.64,17.81,7.18a4.52,4.52,0,0,1-2.78,5.76,4.6,4.6,0,0,1-5.84-2.74c-.21-.26-1.55-1.36-8.8-1.07-15.57.66-26.79,4.92-36.37,13.8-14.17,13.12-19.41,30-25,48-3.68,11.9-7.49,24.2-14.13,35.5-5.81,9.89-14.37,20.19-21.25,28.47-3.32,4-7.33,8.81-8.92,11.27,5.78,2.09,28.43,0,42.63-11.65a4.57,4.57,0,0,1,5.79,7.08C1220.94,636.75,1203.32,641.87,1190.6,641.87Z"></path><path fill="#571519" d="M1133.51,651.84c-4,0-7.31-.57-9.47-1.8a7.1,7.1,0,0,1-3.81-7.51c.49-3.08,3.18-6,8.06-11.23,6.54-7,16.42-17.7,23.65-32.25,3.81-7.66,6.73-16.9,9.82-26.68,6.36-20.11,13.56-42.91,31.09-59.15,11.28-10.46,24.3-15.47,42.19-16.23,4.51-.19,15.1-.63,17.82,7.18a4.52,4.52,0,0,1-2.78,5.76,4.61,4.61,0,0,1-5.84-2.73c-.21-.26-1.53-1.39-8.81-1.08-15.57.67-26.79,4.92-36.36,13.8-15.76,14.6-22.28,35.24-28.59,55.2-3.2,10.14-6.23,19.71-10.35,28-7.82,15.73-18.25,27-25.14,34.4-1.64,1.77-3.43,3.69-4.6,5.11,7.51,1,31.52-3.27,45.45-15.1a4.57,4.57,0,0,1,5.92,7C1169.29,645.09,1147.26,651.84,1133.51,651.84Z"></path><path fill="#571519" d="M1083,662.4c-6.26,0-10.37-1.25-12.57-3.83a6.87,6.87,0,0,1-1.57-5.66c.49-3,3-6,9-12.92,6.62-7.57,15.68-17.94,22.79-30.73,5.65-10.18,9.2-21.57,12.65-32.59,5.82-18.66,11.85-37.95,28.16-53.06,11.29-10.47,24.3-15.47,42.19-16.23,4.51-.2,15.09-.64,17.81,7.19a4.53,4.53,0,0,1-2.78,5.76,4.62,4.62,0,0,1-5.84-2.74c-.21-.26-1.55-1.38-8.81-1.08-15.56.66-26.78,4.92-36.36,13.8-14.52,13.46-19.93,30.76-25.65,49.09-3.58,11.45-7.28,23.3-13.39,34.29-7.57,13.64-17.39,24.88-23.88,32.32-2.15,2.45-4.49,5.13-5.86,7a23.62,23.62,0,0,0,4.2.3h0a4.57,4.57,0,0,1,0,9.14Z"></path><path fill="#571519" d="M1074.43,653.62a4.69,4.69,0,0,1-1.42-.23c-2.38-.78-4.25-2.83-5.56-6.1-6.15-15.42-3-73.52,10-97.41,17.16-31.67,41.41-42.82,70.14-32.24a4.57,4.57,0,0,1-3.16,8.58c-24.54-9-43.82.12-58.94,28-12.84,23.69-14.61,83.45-9.06,90.69a4.58,4.58,0,0,1-2,8.69Z"></path><path fill="#571519" d="M1070.62 652.59a4.54 4.54 0 01-3.06-1.18c-33-29.94-32.52-70.51-32.36-75 .51-14.18 9.46-29.35 22.27-37.73 10.32-6.75 21.78-8.19 32.27-4a4.57 4.57 0 01-3.36 8.5c-9.8-3.87-18.41-.4-23.91 3.2-10.27 6.72-17.73 19.23-18.14 30.41-.53 14.86 5.05 45.88 29.37 67.94a4.57 4.57 0 01-3.08 8zM1654 573.25a4.57 4.57 0 01-1.75-8.8c15.53-6.41 27.09-14.44 36.38-25.24 8-9.25 11.73-33.79 4.56-45.29-3.57-5.74-9.39-7.46-17.76-5.29a4.57 4.57 0 11-2.31-8.84c16.5-4.29 24.51 4 27.83 9.29 9.52 15.28 4.92 44.1-5.39 56.09s-22.91 20.74-39.82 27.73A4.47 4.47 0 011654 573.25zM1112.87 846a73.41 73.41 0 01-8.61-.53h0a28 28 0 01-21.44-13.59c-9.79-16.27-5.72-41.86-.6-55.09 14.44-37.36 52.88-63.61 84-75.74 21.2-8.24 38.33-7.9 42.55-4.47a5.41 5.41 0 011.83 4.68c-.47 2.81-2.74 4.55-7.27 8-8.13 6.22-23.27 17.79-34.25 40.22-4.83 9.86-7.06 23-9.22 35.79C1155.05 813.83 1149.6 846 1112.87 846zm-7.53-9.61c35.88 4.25 40.37-22.11 45.55-52.64 2.27-13.39 4.61-27.23 10-38.27 11.11-22.7 26-35 35-42-5.85.24-14.81 1.62-26.36 6.11-29.34 11.42-65.45 35.93-78.83 70.52-5.39 13.94-7.26 35.17-.09 47.08 3.27 5.42 8.07 8.44 14.69 9.22z"></path><path fill="#571519" d="M1150.6,841.3c-4.81,0-10.57-1.07-12.86-6.32a4.46,4.46,0,0,1,2.29-5.84,4.69,4.69,0,0,1,6.08,2.18c.2.24,1.5,1.33,8.92.54,15.47-1.65,26.31-6.6,35.17-16.05,14.28-15.23,18.63-33.88,23.24-53.63,2.45-10.48,5-21.32,9.11-31.72,7.13-17.93,17-27.52,22.81-33.25.78-.76,1.65-1.61,2.37-2.36-7.74-.91-30.3,4-37.58,10.43a4.57,4.57,0,0,1-6.06-6.84c9.2-8.15,40-16.1,49.78-11.21a7.31,7.31,0,0,1,4.3,7.22c-.28,3.29-2.72,5.68-6.42,9.29-5.69,5.57-14.29,14-20.71,30.1-3.88,9.76-6.33,20.26-8.7,30.42-4.68,20-9.52,40.78-25.47,57.8-10.47,11.17-23.07,17-40.87,18.89A48.94,48.94,0,0,1,1150.6,841.3Z"></path><path fill="#571519" d="M1196.37,841c-3.46,0-7.3-.81-12.91-4.07a4.57,4.57,0,1,1,4.6-7.9c5.54,3.23,7.86,3,10.81,2.66,15.47-1.65,26.31-6.61,35.17-16.06,14.66-15.64,19.9-38.07,24.52-57.86,2.36-10.08,4.59-19.61,7.85-27.54,6.14-14.88,15.62-27,21.89-35,1.82-2.32,3.8-4.85,4.93-6.54-6.46-.71-26.11,4.4-37.39,12.92a4.57,4.57,0,0,1-5.51-7.29c13.13-9.92,39.69-18.28,48.86-13.22a7.36,7.36,0,0,1,4,7.2c-.26,3.14-2.88,6.49-7.64,12.56-6,7.61-15,19.11-20.64,32.84-3,7.24-5.13,16.42-7.4,26.13-4.88,20.91-10.42,44.6-26.75,62-10.46,11.17-23.07,17-40.87,18.9A33.15,33.15,0,0,1,1196.37,841Z"></path><path fill="#571519" d="M1242.71,833.6c-4.79,0-10.54-1.07-12.83-6.33a4.45,4.45,0,0,1,2.29-5.83,4.68,4.68,0,0,1,6.08,2.18c.19.23,1.51,1.34,8.91.54,15.48-1.65,26.32-6.61,35.18-16.06,14.9-15.89,19.44-35.35,24.25-56,2.25-9.64,4.57-19.62,8.05-29.26,6.46-17.91,16.89-30.1,23.12-37.38,1.38-1.62,2.89-3.38,3.82-4.63-6-1.17-25.71,2.7-39.18,12.36a4.57,4.57,0,0,1-5.32-7.43c15.5-11.11,41.36-17.5,50.31-12.42a7.56,7.56,0,0,1,4,7.4c-.25,3.08-2.56,5.77-6.74,10.66-6.2,7.25-15.57,18.21-21.46,34.55-3.3,9.13-5.56,18.84-7.75,28.23-4.88,20.86-9.91,42.44-26.48,60.12-10.47,11.17-23.07,17-40.87,18.89A49.06,49.06,0,0,1,1242.71,833.6Z"></path><path fill="#571519" d="M1294.16,819.11a21.82,21.82,0,0,1-6.35-.83,4.57,4.57,0,1,1,2.71-8.72c2.35.72,6.33.29,8,.11,15.47-1.65,26.32-6.6,35.18-16.06,14.53-15.5,19-34.47,23.66-54.56,2.37-10.14,4.82-20.63,8.67-30.72,7.48-19.59,17.58-31.17,23.62-38.08.93-1.07,1.92-2.2,2.71-3.16-7.12.31-25.91,6.61-39.72,18.21a4.57,4.57,0,1,1-5.88-7c15-12.56,42.46-24.07,52.1-19.08a7.09,7.09,0,0,1,3.94,7.09c-.25,3.07-2.52,5.66-6.26,10-5.64,6.46-15.07,17.26-22,35.33-3.64,9.51-6,19.69-8.31,29.54-4.77,20.38-9.69,41.45-25.89,58.73-10.47,11.17-23.07,17-40.87,18.9A50.52,50.52,0,0,1,1294.16,819.11Z"></path><path fill="#571519" d="M1353.27,804.59c-4.12,0-8.47-1.07-10.8-5.17a4.57,4.57,0,1,1,7.94-4.51s.9,1.39,9-.26c15.2-3.1,25.46-9,33.24-19.24,12.17-16,14.4-34.34,16.76-53.79,1.36-11.27,2.78-22.91,6.25-34.2,5.56-18,13.85-30.78,18.81-38.39,1-1.62,2.19-3.37,3-4.75-7.36,1.1-26.58,10.15-34.94,23.43a4.57,4.57,0,1,1-7.73-4.87c10.27-16.3,37-30.23,47.4-27.36a7.09,7.09,0,0,1,5.48,6.77c.07,3.13-1.93,6.19-5.56,11.77-5,7.67-12.54,19.28-17.72,36.09-3.24,10.51-4.6,21.74-5.92,32.61-2.4,19.81-4.89,40.3-18.56,58.23-9.23,12.1-21.16,19.09-38.68,22.65A39.64,39.64,0,0,1,1353.27,804.59Z"></path><path fill="#571519" d="M1405.81,782.05c-4.12,0-8.48-1.07-10.81-5.17a4.57,4.57,0,1,1,8-4.51s.9,1.39,9-.26c15.21-3.1,25.46-9,33.25-19.24,11-14.5,12.91-31.33,14.88-49.14,1.45-13,2.94-26.52,8.28-39.27a291.41,291.41,0,0,1,17.78-35.2c1.69-2.91,3.41-5.89,4.31-7.8h0c-7.68,0-31.42,9.23-42.29,22.36a4.57,4.57,0,0,1-7-5.83c13-15.72,43.79-28.47,54-24.92a7.11,7.11,0,0,1,5.09,6.64c.08,3.34-2,6.95-6.16,14.13A282.2,282.2,0,0,0,1476.77,668c-4.82,11.52-6.18,23.77-7.61,36.73-2,18.27-4.12,37.16-16.71,53.68-9.22,12.1-21.15,19.08-38.68,22.65A39.63,39.63,0,0,1,1405.81,782.05Z"></path><path fill="#571519" d="M1455.54,766.56c-4.13,0-8.49-1.07-10.82-5.17a4.57,4.57,0,0,1,8-4.52s.88,1.4,9-.25c15.2-3.1,25.45-9,33.24-19.24,11.51-15.1,13.55-32.56,15.71-51,1.43-12.3,2.92-25,7.38-37.19,3.9-10.65,10.45-22.14,15.71-31.37,2.55-4.48,5.62-9.86,6.71-12.5-5.91-1.31-28,4.23-40,18.1a4.57,4.57,0,0,1-6.9-6c13.17-15.19,39.75-24.39,50.72-20.45,3.47,1.25,5.59,4,5.68,7.26s-2.34,7.66-8.29,18.1c-5.09,8.94-11.42,20.06-15.07,30-4.09,11.16-5.51,23.33-6.89,35.1-2.2,18.88-4.48,38.41-17.51,55.51C1493,755,1481,762,1463.49,765.58A40.25,40.25,0,0,1,1455.54,766.56Z"></path><path fill="#571519" d="M1506.88,747.05c-4.14,0-8.5-1.07-10.83-5.16a4.57,4.57,0,0,1,8-4.52s.91,1.38,9-.26c15.2-3.09,25.45-9,33.23-19.24,12.81-16.81,15.43-38.12,18-58.73,1.28-10.47,2.49-20.36,5-29.17,4.81-16.73,13-29.43,18.45-37.83,1.31-2,2.73-4.22,3.62-5.8-7.43,0-30.45,7.95-42.15,22a4.57,4.57,0,1,1-7-5.86c13.25-15.86,43.45-28.12,53.95-24.48a7.23,7.23,0,0,1,5.18,6.74c.08,3.14-2,6.42-5.9,12.39-5.14,7.95-12.91,20-17.35,35.39-2.33,8.12-3.5,17.66-4.74,27.76-2.55,20.8-5.45,44.38-19.76,63.16-9.22,12.1-21.15,19.09-38.68,22.66A40.45,40.45,0,0,1,1506.88,747.05Z"></path><path fill="#571519" d="M1555.61,728.75a17.1,17.1,0,0,1-5-.67,4.57,4.57,0,0,1,2.68-8.74c2.32.71,6.76-.19,8.43-.53,15.21-3.1,25.46-9,33.25-19.24,11.8-15.48,13.93-33.34,16.18-52.25,1.41-11.83,2.87-24.07,6.87-35.86,5-14.62,12.56-27.23,17.59-35.57,1.7-2.81,3.56-5.88,4.55-7.87-7.46-.34-31.66,7.75-39.09,19.07a4.57,4.57,0,1,1-7.64-5c9.64-14.69,40.26-25.58,50.74-22.58,3.57,1,5.74,3.6,5.82,6.91.07,3.1-1.84,6.39-6.55,14.2-5.12,8.48-12.13,20.1-16.77,33.79-3.68,10.88-5.08,22.63-6.44,34-2.3,19.29-4.68,39.24-18,56.71-9.22,12.1-21.15,19.08-38.68,22.66A40.11,40.11,0,0,1,1555.61,728.75Z"></path><path fill="#571519" d="M1609.76,713.25a65.51,65.51,0,0,1-12.47-1.26,4.57,4.57,0,1,1,1.74-9c25.84,5,43.13-7,52.86-36.73,8.36-25.58-1-84.63-7.9-90.68a4.57,4.57,0,0,1,2-8.91c2.54.4,4.7,2.11,6.61,5.24,9,14.72,16.46,71.39,8,97.19C1651.06,698.21,1633.63,713.25,1609.76,713.25Zm34.06-137.77Z"></path><path fill="#571519" d="M1658.38,687a33.34,33.34,0,0,1-7.19-.79,4.57,4.57,0,0,1,1.94-8.93c10.48,2.28,18.35-2.56,23.11-7,8.76-8.21,13.71-21.58,12.06-32.52-2.22-14.71-13.47-44.38-41.58-62.27a4.57,4.57,0,0,1,4.91-7.71c38,24.2,45,64.14,45.71,68.62,2.1,14-3.86,30.24-14.84,40.54C1675.44,683.55,1667.07,687,1658.38,687Z"></path><path fill="#571519" d="M1663.05,849.41c-5.29,0-14.55-2.12-21.27-15.24a4.57,4.57,0,1,1,8.13-4.17c2.41,4.71,6.64,10.28,13.11,10.28h.34c6.81-.2,14.08-6.49,18.11-15.64,14.28-32.44,10.51-78.45.45-109.67-.64-2-1.24-4-1.83-6-3.09-10.45-5.75-19.48-14.76-23.68a4.57,4.57,0,1,1,3.86-8.28c12.75,5.94,16.27,17.85,19.67,29.37.56,1.93,1.14,3.87,1.76,5.81,9.82,30.45,15.51,79.15-.79,116.15-5.5,12.51-15.78,20.79-26.2,21.1Z"></path><path fill="#571519" d="M1701.4,887a32.53,32.53,0,0,1-12.17-2.41c-15.92-6.42-24.91-23.37-21.85-41.24a4.57,4.57,0,1,1,9,1.55c-2.71,15.85,6.52,27.29,16.26,31.21,8.53,3.44,20.76,2.5,29.52-10.4,24.54-36.14,14.49-109-10.65-141.12-1.31-1.67-2.73-3.68-4.26-5.84-6.48-9.16-15.3-21.68-25.23-20.21a4.57,4.57,0,1,1-1.39-9c15.42-2.4,26.21,12.85,34.08,24,1.44,2,2.77,3.92,4,5.49,27.52,35.14,38,112.12,11,151.89C1722.63,881.25,1712.26,887,1701.4,887Z"></path><path fill="#571519" d="M1730.29,918.71a34.34,34.34,0,0,1-7.29-.8c-14.44-3.19-24.91-14.88-27.31-30.52a4.57,4.57,0,0,1,9-1.38c1.81,11.82,9.56,20.62,20.24,23s21.19-2.37,28-12.65c26.7-40.26,18.85-97-2.7-132.2l-.92-1.5c-6.7-11-16.83-27.61-27.8-32.72a4.57,4.57,0,1,1,3.86-8.28c13.47,6.28,24.47,24.31,31.75,36.24l.91,1.49c23.06,37.69,31.33,98.58,2.51,142C1753.24,912.46,1742.07,918.7,1730.29,918.71Z"></path><path fill="#571519" d="M1746.39,943.16c-6.36,0-12.58-1.24-17.66-4.1-8.37-4.7-12.46-13.13-11.5-23.71a4.57,4.57,0,1,1,9.1.83c-.64,7.07,1.61,12,6.88,14.92,9.82,5.52,27.1,2.66,35.41-3.48,34-25.13,28.41-74.19,22-101.2-2.27-9.63-9.24-33.07-25-42.79a4.57,4.57,0,1,1,4.81-7.77c18,11.1,25.91,35.13,29,48.46,6.88,29.2,12.72,82.4-25.51,110.66C1767.4,939.89,1756.72,943.16,1746.39,943.16Z"></path><path fill="#571519" d="M1775.05,973.34a32.68,32.68,0,0,1-8.76-1.19c-13.45-3.73-23.73-15.53-27.51-31.56a4.57,4.57,0,0,1,8.9-2.09c3,12.73,10.86,22,21,24.84,9.78,2.72,20.16-.9,29.2-10.19,22.65-23.23,28.25-59.51,14.28-92.43l-1.27-3.08c-3-7.2-7.43-18.09-13-21.5a4.57,4.57,0,0,1,4.81-7.78c8,5,13,17,16.61,25.81l1.23,3c15.41,36.32,9.07,76.5-16.15,102.38C1795.68,968.55,1785.32,973.34,1775.05,973.34Z"></path><path fill="#571519" d="M1790.15,1006.05c-8.8,0-17.38-2.44-24-8.25-5.87-5.13-12.17-11.67-14.42-21.26-.54-2.3-2.07-10,1-13.16a5.12,5.12,0,0,1,4.76-1.35,4.57,4.57,0,0,1,3.4,5.5,4.66,4.66,0,0,1-.88,1.8,29.71,29.71,0,0,0,.57,5.11c1.66,7.08,6.76,12.31,11.54,16.49,10.2,8.92,28.83,6.79,41-.45,12.31-7.33,20.78-21.24,23.84-39.15,4-23.53-1.85-49.61-14.59-64.89a4.57,4.57,0,1,1,7-5.85c14.37,17.22,21,46.26,16.59,72.28-3.51,20.59-13.52,36.74-28.17,45.47A55.44,55.44,0,0,1,1790.15,1006.05Z"></path><path fill="#571519" d="M1794.24,1043.56a25.8,25.8,0,0,1-14-3.93c-7.85-5-12.9-14.14-14.2-25.86-.06-.53-.16-1.2-.27-1.95-.78-5.11-1.84-12.12,1.91-15.88a4.57,4.57,0,0,1,6.48,6.45c-.41,1.09.35,6.15.64,8.06.14.89.26,1.68.33,2.31,1,8.9,4.53,15.7,10,19.14,4.75,3,10.93,3.3,17.88.89,27.68-9.63,50-40.52,52-71.85a46.85,46.85,0,0,0-7.34-27.78c-.28-.44-.69-1.16-1.16-2a34.61,34.61,0,0,0-3-4.83,4.57,4.57,0,0,1,1.31-9c4.54,0,7.29,5,9.72,9.35.34.62.63,1.15.84,1.47a55.45,55.45,0,0,1,8.78,33.32c-2.18,34.79-27.17,69.15-58.13,79.91A35.71,35.71,0,0,1,1794.24,1043.56Zm50.58-117h0Z"></path><path fill="#571519" d="M1809.46,1076.32c-8.94,0-18.52-4.89-25-13.2-6.94-8.91-8.06-19.27-3-27.69a4.57,4.57,0,1,1,7.84,4.7c-4.38,7.3.2,14.59,2.37,17.38,5.61,7.22,14.89,11.16,21.6,9.13,23.43-7,48.93-35.6,55.68-62.39,2.93-11.62,3.65-28.25-9.58-41.47a4.57,4.57,0,1,1,6.46-6.46c12.87,12.86,17,30.21,12,50.16-7.57,30-35.34,61-61.91,68.92A22.57,22.57,0,0,1,1809.46,1076.32Z"></path><path fill="#571519" d="M1823.43,1112.11c-9.84,0-21-6.63-27.22-16.63-5.61-9-5.62-18.41,0-25.86a4.57,4.57,0,1,1,7.31,5.49c-4.38,5.84-1.59,12.24.47,15.54,4.91,7.86,14.74,13.42,21.54,12.13,9-1.7,16.87-9.43,23.84-16.25l1.7-1.66c20.58-20,42.46-61.09,24-85.65a4.57,4.57,0,1,1,7.31-5.48c21.95,29.27-1.39,74.74-25,97.68l-1.69,1.64c-7.5,7.35-16.84,16.48-28.52,18.7A19.69,19.69,0,0,1,1823.43,1112.11Z"></path><path fill="#571519" d="M1837.07,1151.09c-9.62,0-19.54-4.66-26.43-12.86-8.37-10-10.18-22.29-4.82-33a4.57,4.57,0,0,1,8.18,4.09c-3.68,7.34-2.32,16,3.63,23,6.54,7.77,16.52,11.34,24.87,8.82,29.88-9,52-52.92,50.47-83.35l-.1-2.16c-.45-9.2-1-20.66-5.51-27.43a4.57,4.57,0,1,1,7.6-5.07c5.92,8.87,6.54,21.73,7,32.06l.1,2.13c1.77,34.38-22.73,82.31-57,92.58A28.16,28.16,0,0,1,1837.07,1151.09Z"></path><path fill="#571519" d="M1840.75,1192.79c-1.12,0-2.23,0-3.35-.1-18.13-1.06-24.64-19.21-24.68-35.85,0-.61-.07-1.36-.15-2.19-.36-4.08-.92-10.24,3.62-13.36a4.57,4.57,0,0,1,5.46,7.32c-.35,1-.1,3.83,0,5.23.09,1.12.18,2.15.18,3,0,4.31.84,25.86,16.07,26.75,14.69.8,28.09-4.84,39.62-17,20.86-21.94,29.46-58.17,27-81.12-.58-5.34-2.58-9.61-4.69-14.13a70.45,70.45,0,0,1-4.23-10.53,4.57,4.57,0,0,1,8.78-2.54,62.2,62.2,0,0,0,3.73,9.2c2.33,5,4.75,10.17,5.49,17,2.73,25-6.66,64.47-29.42,88.41C1871.75,1186,1856.8,1192.79,1840.75,1192.79Z"></path><path fill="#571519" d="M1845.47,1229.44c-10.51,0-22.81-8.56-27.89-19.61-4-8.73-2.73-17.43,3.54-23.89a4.57,4.57,0,1,1,6.56,6.37c-3.65,3.75-4.25,8.36-1.8,13.7,3.64,7.91,13.25,14.74,20.2,14.27,16.7-1,34.36-11.39,48.47-28.43,16.29-19.66,24.88-44.08,22.4-63.72-.63-5.07-3.71-10.66-6.69-16.07-1.08-2-2.12-3.86-3-5.69a4.57,4.57,0,0,1,8.19-4.06c.85,1.72,1.84,3.5,2.85,5.35,3.23,5.87,6.9,12.52,7.75,19.33,2.78,22.07-6.58,49.16-24.43,70.69-15.71,19-35.74,30.53-54.95,31.73Q1846.07,1229.44,1845.47,1229.44Z"></path><path fill="#571519" d="M1854.94,1271.48c-12.34,0-23.52-9.37-28.73-19.65-5.73-11.31-4.4-22.65,3.57-30.34a4.57,4.57,0,0,1,6.35,6.58c-7.1,6.85-3.6,16-1.76,19.63,4.15,8.21,13.65,16,23.12,14.43,33.79-5.81,59.59-42.29,64.1-72.77,2.37-16,1.6-29-1.91-32.45a4.57,4.57,0,0,1,6.37-6.56c7.63,7.42,6.7,26,4.58,40.35-5,33.62-33.77,73.94-71.6,80.43A23.7,23.7,0,0,1,1854.94,1271.48Z"></path><path fill="#571519" d="M1851.37,1304c-10.79,0-19.49-8.58-23.49-17.54-4.92-11-3.37-22.49,4-29.23A4.57,4.57,0,1,1,1838,1264c-5.33,4.91-4.3,13.19-1.8,18.78,2.9,6.5,9,12.78,16.23,12.08,25.63-2.45,53-21,66.46-45,7.18-12.79,8.5-26,8.26-41.83a41.89,41.89,0,0,0-.8-8.34,4.57,4.57,0,0,1,.88-8.43,5.62,5.62,0,0,1,4.93.91c1.19.87,4,2.94,4.13,15.73.22,15-.76,31-9.43,46.43-14.88,26.49-45.13,46.89-73.56,49.61A18.61,18.61,0,0,1,1851.37,1304Zm78.42-104h0Z"></path><path fill="#571519" d="M1852.48,1340.86a27.7,27.7,0,0,1-26.1-17.67,29.88,29.88,0,0,1,7.4-33.58,4.57,4.57,0,0,1,6.19,6.72,20.83,20.83,0,0,0-5.13,23.41c3.17,7.75,9.94,12.3,18.32,12,30.41-.94,61.12-27.59,72.13-51.74,4.36-9.56,8-26.66,2.47-34.71a4.57,4.57,0,0,1,7.54-5.18c8.66,12.61,2.68,34.09-1.69,43.68-12.15,26.63-46.25,56-80.17,57.09Z"></path><path fill="#571519" d="M1944.64 1367.34a4.45 4.45 0 01-1.2-.16 4.57 4.57 0 01-3.22-5.61c6.2-22.8 1.3-40.69-4.37-61.4-2-7.32-4.08-14.88-5.7-22.94a4.57 4.57 0 119-1.8c1.56 7.74 3.59 15.16 5.55 22.32 5.77 21.09 11.23 41 4.38 66.22A4.56 4.56 0 011944.64 1367.34zM1819 1391.56a4.57 4.57 0 01-3-8.07c13.59-11.44 17.4-33.34 16.54-48.61a4.57 4.57 0 119.12-.52c1 17.38-3.6 42.5-19.77 56.12A4.55 4.55 0 011819 1391.56zM1918.15 1387.83a4.56 4.56 0 01-4-6.82l.57-1c3.81-6.72 8.56-15.08 7.75-22.34a4.57 4.57 0 119.09-1c1.13 10.21-4.43 20-8.9 27.86l-.56 1A4.56 4.56 0 011918.15 1387.83zM1892.29 1397.89a4.57 4.57 0 01-3.06-8c7.53-6.8 12-14.34 15-25.2a4.57 4.57 0 118.81 2.43c-3.45 12.49-8.91 21.61-17.72 29.55A4.56 4.56 0 011892.29 1397.89zM1868.69 1399.77a4.57 4.57 0 01-2.26-8.54c7-4 12.76-13.23 14.6-19.91a4.57 4.57 0 118.81 2.44c-2.31 8.39-9.22 19.92-18.9 25.42A4.59 4.59 0 011868.69 1399.77zM1845.54 1398.42a4.57 4.57 0 01-3-8c1.06-.91 2.25-1.89 3.5-2.91 5-4.06 11.77-9.63 13.15-14.63a4.57 4.57 0 118.81 2.43c-2.15 7.81-9.93 14.16-16.17 19.27-1.19 1-2.31 1.89-3.31 2.75A4.52 4.52 0 011845.54 1398.42z"></path><path fill="#571519" d="M1832.14 1396.81a4.57 4.57 0 01-2.68-8.27c7.09-5.13 11.6-9.8 14.61-15.14a4.57 4.57 0 018 4.5c-4.79 8.47-12.12 14.36-17.22 18A4.48 4.48 0 011832.14 1396.81zM1076.77 809.39A4.52 4.52 0 011075 809c-8.84-3.78-15.65-11-19.69-20.85-8.21-20.06-10-43.58-5.11-68a4.57 4.57 0 119 1.78c-4.51 22.68-2.92 44.38 4.61 62.77 3.11 7.59 8.24 13.1 14.82 15.92a4.57 4.57 0 01-1.8 8.77z"></path><path fill="#571519" d="M1069.38,832.81c-12.55,0-26.44-6.17-33.86-14.34-31.95-35.18-15.81-86.21-3.34-113.5,5.69-12.46,18.2-34.47,38-41.84a4.57,4.57,0,0,1,3.19,8.57c-17.3,6.45-28.74,28.07-32.85,37.07C1029,734,1013.86,781,1042.28,812.32c7.58,8.34,25.6,14.43,35.83,9.65a4.57,4.57,0,0,1,3.88,8.28A29.79,29.79,0,0,1,1069.38,832.81Z"></path><path fill="#571519" d="M1033.43,856.54c-12.51,0-24.27-7.16-32.56-19.94-19.66-30.32-18-71,4.21-103.57l1.81-2.69c5.26-7.9,12.47-18.74,21.32-22a4.57,4.57,0,1,1,3.2,8.56c-6.09,2.27-12.6,12.07-16.91,18.55l-1.87,2.77c-20.14,29.55-21.74,66.23-4.09,93.45,7.06,10.87,16.53,16.47,26.64,15.7,10.54-.77,20.08-8.34,25.51-20.24a4.57,4.57,0,0,1,8.32,3.8c-6.85,15-19.24,24.53-33.16,25.56C1035,856.51,1034.23,856.54,1033.43,856.54Z"></path><path fill="#571519" d="M1014.29,885.89c-12.37,0-25.21-5.84-34.08-13.85-12.66-11.43-19.31-29.22-18.72-50.1.74-26.38,13-53.56,30.42-67.64a4.57,4.57,0,1,1,5.74,7.11c-15.5,12.5-26.36,36.93-27,60.79-.5,18.16,5.08,33.45,15.72,43.06,10.47,9.46,28.33,15.21,40.08,8.45,5.5-3.16,11.52-7.28,14.54-13.9a29.5,29.5,0,0,0,1.56-4.91A4.65,4.65,0,0,1,1042,853a4.57,4.57,0,0,1,4.42-4.72,5.7,5.7,0,0,1,4.4,2.26c2.44,3.67-.57,11-1.55,13.1-4.1,9-11.55,14.15-18.3,18A33.07,33.07,0,0,1,1014.29,885.89Z"></path><path fill="#571519" d="M999.88,921.55a32.78,32.78,0,0,1-16.58-4.95c-28.25-16.63-46-55.22-41.34-89.75a55.41,55.41,0,0,1,15.14-31c.27-.28.65-.73,1.1-1.27,3.24-3.82,6.94-8.14,11.37-7.27a4.57,4.57,0,0,1-.47,9,34.62,34.62,0,0,0-3.92,4.15c-.63.74-1.16,1.36-1.53,1.74A46.84,46.84,0,0,0,951,828.08c-4.22,31.1,11.65,65.77,36.92,80.64,6.34,3.73,12.47,4.64,17.71,2.62,6-2.3,10.83-8.27,13.54-16.8.19-.61.46-1.36.77-2.22.66-1.81,2.4-6.62,2-8.1a4.4,4.4,0,0,1,1.35-6.17,4.72,4.72,0,0,1,6.42,1.44c3,4.43.54,11.09-1.22,16-.27.72-.5,1.36-.66,1.87-3.57,11.23-10.31,19.25-19,22.57A25.13,25.13,0,0,1,999.88,921.55Z"></path><path fill="#571519" d="M978.27,950.64A24,24,0,0,1,967,948c-24.49-13-45.68-48.77-47.22-79.7-1-20.55,6.44-36.75,21.58-46.85a4.57,4.57,0,1,1,5.07,7.61c-15.56,10.37-18.12,26.82-17.52,38.78,1.38,27.6,20.78,60.61,42.38,72.09,6.19,3.29,16.06,1.26,23-4.71,2.68-2.32,8.6-8.57,5.74-16.59a4.57,4.57,0,1,1,8.6-3.08c3.31,9.26.18,19.2-8.36,26.58A34.21,34.21,0,0,1,978.27,950.64Z"></path><path fill="#571519" d="M957.15,983a22.27,22.27,0,0,1-8.39-1.53c-11-4.46-18.37-15.24-24.28-23.9l-1.34-2c-18.65-27.11-32.63-76.27-5.37-100.68a4.57,4.57,0,0,1,6.1,6.81c-22.88,20.48-9.47,65,6.8,88.69l1.36,2c5.49,8,11.71,17.15,20.16,20.58,6.39,2.6,17.16-.94,23.52-7.69,2.66-2.83,6.65-8.56,3.5-15.15a4.57,4.57,0,1,1,8.24-4c4,8.4,2.17,17.64-5.09,25.36C975.57,978.76,965.82,983,957.15,983Z"></path><path fill="#571519" d="M937.49,1018.65a29.19,29.19,0,0,1-13.77-3.31c-31.56-16.77-46.2-68.57-37.74-101.94l.52-2.08c2.51-10,5.64-22.51,13.18-30.06a4.57,4.57,0,0,1,6.47,6.47c-5.76,5.75-8.54,16.87-10.78,25.81l-.53,2.11c-7.49,29.53,5.64,77,33.16,91.62,7.68,4.08,18.18,2.56,26.12-3.78,7.22-5.78,10.25-14,8.08-21.87a4.57,4.57,0,0,1,8.82-2.41c3.15,11.55-1,23.29-11.19,31.42A36.1,36.1,0,0,1,937.49,1018.65Z"></path><path fill="#571519" d="M926.49,1059.05a24.61,24.61,0,0,1-3.57-.26c-17.18-2.39-31.7-12.27-42-28.56-17.63-27.93-19.11-68.49-11.54-92.46,2.07-6.56,5.46-11.16,8.73-15.6a62.54,62.54,0,0,0,5.45-8.28,4.57,4.57,0,1,1,8.11,4.2,69.9,69.9,0,0,1-6.2,9.5c-3,4-5.75,7.81-7.37,12.93-7,22-5.61,59.23,10.55,84.83,8.93,14.14,20.88,22.35,35.53,24.39,15.13,2.08,20.14-18.86,21-23.08.16-.82.45-1.81.76-2.9.4-1.33,1.2-4,1-5.11a4.57,4.57,0,0,1,6.79-6.11c3.83,4,2.09,9.88.93,13.8-.23.8-.45,1.53-.58,2.13C951.07,1043.66,942.24,1059.05,926.49,1059.05Z"></path><path fill="#571519" d="M912.05,1093.65a21.12,21.12,0,0,1-5.39-.66c-18.6-4.94-36-20.2-47.67-41.89-13.28-24.61-17.15-53-10.11-74.09,2.18-6.51,7.07-12.32,11.39-17.44,1.36-1.61,2.67-3.17,3.85-4.69a4.57,4.57,0,1,1,7.23,5.59c-1.24,1.61-2.65,3.28-4.09,5-4,4.71-8.09,9.59-9.7,14.44-6.27,18.77-2.64,44.4,9.47,66.87,10.5,19.47,25.8,33.09,42,37.38,6.73,1.79,17.5-3,22.61-10.05,3.45-4.75,3.76-9.39.92-13.78a4.57,4.57,0,0,1,7.67-5c4.89,7.56,4.45,16.35-1.19,24.13C932.8,1088,921.63,1093.65,912.05,1093.65Z"></path><path fill="#571519" d="M895.22,1133.11a24.59,24.59,0,0,1-8.88-1.63c-35.82-13.79-56.16-59-54.46-92.9.73-14.45,3.47-32.89,12.41-38.67a4.57,4.57,0,0,1,5,7.68c-4.12,2.66-7.43,15.3-8.24,31.44-1.54,30.77,16.61,71.6,48.62,83.92,8.94,3.46,19.81-2.39,25.49-9.62,2.51-3.19,7.74-11.49,2.12-19.6a4.57,4.57,0,1,1,7.51-5.2c6.31,9.09,5.39,20.48-2.44,30.44C916.15,1126.8,905.75,1133.1,895.22,1133.11Z"></path><path fill="#571519" d="M891.41,1165.62a20.34,20.34,0,0,1-5.9-.88c-27.34-8.24-53-34.16-62.41-63-5.48-16.82-3.31-32.72-.16-47.4,2.73-12.54,5.72-13.94,7.15-14.62a5.63,5.63,0,0,1,5,.1,4.57,4.57,0,0,1-.79,8.43,40.91,40.91,0,0,0-2.43,8c-3.33,15.5-4.62,28.69-.09,42.63,8.54,26.2,31.72,49.69,56.37,57.13,6.93,2.08,14.17-2.86,18.29-8.67,3.54-5,6.17-12.91,1.9-18.77a4.57,4.57,0,1,1,7.39-5.38c5.86,8,5.14,19.61-1.84,29.44C908.93,1159.61,900.52,1165.61,891.41,1165.62Z"></path><path fill="#571519" d="M884.86,1201.71a29.26,29.26,0,0,1-6.69-.78c-33-7.68-60.73-43.19-67.43-71.68-2.41-10.27-4.06-32.51,6.9-43.17a4.57,4.57,0,0,1,6.37,6.55c-7,6.81-6.77,24.29-4.37,34.53,6.07,25.83,31,58,60.61,64.87a18.5,18.5,0,0,0,20.29-8.15,20.81,20.81,0,0,0-.43-24,4.57,4.57,0,1,1,7.39-5.38,29.87,29.87,0,0,1,.66,34.39A27.69,27.69,0,0,1,884.86,1201.71Z"></path><path fill="#571519" d="M784.45 1209.14a4.57 4.57 0 01-4.56-4.25c-1.78-26.06 7.47-44.52 17.27-64.07 3.33-6.64 6.77-13.52 9.82-20.81a4.57 4.57 0 118.43 3.51c-3.17 7.6-6.68 14.61-10.08 21.39-9.62 19.2-17.93 35.79-16.32 59.35a4.58 4.58 0 01-4.24 4.88zM902.91 1257.5a4.56 4.56 0 01-3.58-1.72c-13.18-16.52-12.76-42.06-8.4-58.91a4.57 4.57 0 018.85 2.3c-3.83 14.8-4.39 37 6.7 50.9a4.58 4.58 0 01-3.57 7.43zM806.4 1234.42a4.58 4.58 0 01-4.34-3.14l-.38-1.15c-2.82-8.57-6.34-19.23-3.24-29a4.57 4.57 0 018.71 2.77c-2.21 6.94.8 16 3.21 23.36l.39 1.15a4.58 4.58 0 01-2.92 5.77A4.41 4.41 0 01806.4 1234.42zM829.81 1249.36a4.59 4.59 0 01-3.68-1.84c-7.08-9.53-10.65-19.54-11.59-32.46a4.57 4.57 0 019.12-.66c.81 11.23 3.75 19.51 9.81 27.66a4.57 4.57 0 01-.94 6.4A4.62 4.62 0 01829.81 1249.36zM852.58 1255.82a4.55 4.55 0 01-3-1.11c-8.42-7.29-12.93-20-13.56-28.63a4.57 4.57 0 014.23-4.89 4.52 4.52 0 014.89 4.23c.5 6.9 4.32 17.09 10.42 22.38a4.57 4.57 0 01-3 8zM875.54 1259a4.56 4.56 0 01-3.61-1.77c-.82-1-1.74-2.17-2.72-3.36-5.12-6.23-11.48-14-12.07-22a4.57 4.57 0 119.12-.66c.37 5.16 6 12 10 16.9 1 1.26 2 2.45 2.87 3.55a4.57 4.57 0 01-3.6 7.38z"></path><path fill="#571519" d="M889,1260.08a4.56,4.56,0,0,1-3.35-1.47c-4.28-4.61-10.32-11.81-13.35-21.06a4.57,4.57,0,1,1,8.68-2.85c1.91,5.82,5.42,11.28,11.37,17.7a4.57,4.57,0,0,1-3.35,7.68Z"></path><path fill="#f0b85e" fill-rule="evenodd" d="M1362.76,1335.94a19.46,19.46,0,1,1-16.37,22A19.37,19.37,0,0,1,1362.76,1335.94Z"></path><path fill="#571519" d="M1365.46,1379.24a23.61,23.61,0,0,1-14.33-4.86,24.07,24.07,0,0,1,11-43h0a23.63,23.63,0,0,1,17.7,4.63,24.15,24.15,0,0,1,4.73,33.62,23.58,23.58,0,0,1-15.72,9.33A24,24,0,0,1,1365.46,1379.24Zm-2.06-38.77h0a14.93,14.93,0,0,0-6.74,26.63,14.59,14.59,0,0,0,20.57-2.9,15,15,0,0,0-2.94-20.88A14.45,14.45,0,0,0,1363.4,1340.47Z"></path><path fill="#e1685a" fill-rule="evenodd" d="M1413.65,1258.62l-3.21-55.14,10.14-14.2,15.14-4.81,15.22,6.91,7.24,11.17,4,54.07-30.28-2.7Z"></path><path fill="#fff" fill-rule="evenodd" d="M1413.42,1258.57l3.5,51.65,9,13.8,14.41,5.57,13.59-2.41,11.23-15.35L1461,1256l-25.26-2.57Z"></path><path fill="#571519" d="M1441.57,1334.19a28.55,28.55,0,0,1-28.4-26.32l-7.44-96.73a28.51,28.51,0,1,1,56.85-4.37h0l7.43,96.72a28.54,28.54,0,0,1-26.24,30.61C1443,1334.16,1442.3,1334.19,1441.57,1334.19Zm-7.4-144.6q-.75,0-1.5.06a19.37,19.37,0,0,0-17.82,20.79l7.43,96.73a19.37,19.37,0,0,0,38.62-3l-7.43-96.72A19.41,19.41,0,0,0,1434.17,1189.59Z"></path><path fill="#571519" d="M1414.25,1263.73a4.57,4.57,0,0,1-1.71-8.81,85.73,85.73,0,0,1,22.86-5.23c11.9-.94,24.93,1.34,25.48,1.44a4.57,4.57,0,0,1-1.58,9c-.12,0-12.48-2.16-23.2-1.33a78.24,78.24,0,0,0-20.16,4.6A4.62,4.62,0,0,1,1414.25,1263.73Z"></path><path fill="#fff" fill-rule="evenodd" d="M1270.43,1125.86a19.46,19.46,0,1,1-16.38,22A19.38,19.38,0,0,1,1270.43,1125.86Z"></path><path fill="#571519" d="M1273.18,1169.15a24.08,24.08,0,0,1-19.11-38.48,23.58,23.58,0,0,1,15.72-9.33h0a23.65,23.65,0,0,1,17.7,4.62,24.07,24.07,0,0,1-11,43A23.36,23.36,0,0,1,1273.18,1169.15Zm0-38.91a14.38,14.38,0,0,0-2.06.15h0a14.52,14.52,0,0,0-9.68,5.75,14.71,14.71,0,1,0,20.57-2.9A14.55,14.55,0,0,0,1273.13,1130.24Zm-2.7-4.38h0Z"></path><path fill="#c0e1f9" fill-rule="evenodd" d="M1481.49,1214.79c-.49-.51-12.82-15.42-3.43-28.8,5-7.14,17.53-9.82,23.56-2,2.82,3.62,6.64,15.57,7.14,20.15C1509.35,1209.35,1481.49,1214.79,1481.49,1214.79Z"></path><path fill="#571519" d="M1481.49,1219.36a4.58,4.58,0,0,1-3.29-1.4,23.94,23.94,0,0,1-1.76-2c-7.27-9.38-8.21-23.66-2.15-32.51a15.35,15.35,0,0,1,12.32-7.08c5.64-.14,10.91,2.73,14.93,7.92a30.34,30.34,0,0,1,6,15.08,4.57,4.57,0,1,1-9.08,1,21.16,21.16,0,0,0-4.09-10.49c-2.22-2.86-5-4.63-7.45-4.39a6.51,6.51,0,0,0-5,3.12c-3.82,5.57-3,15.53,1.83,21.74.36.46.74.9,1.12,1.3a4.56,4.56,0,0,1-3.29,7.74Z"></path><path fill="#571519" d="M1507.67,1207.49h-.23a4.58,4.58,0,0,1-4.34-4.79,21.54,21.54,0,0,0-4.19-14c-4.17-5.38-11.33-4.12-11.63-4.07a4.57,4.57,0,0,1-1.77-9c.53-.11,13-2.48,20.62,7.43a30.6,30.6,0,0,1,6.1,20A4.56,4.56,0,0,1,1507.67,1207.49Z"></path><path fill="#6687d4" fill-rule="evenodd" d="M1226.19,1230.32l12.69-55.55,12.72-9.49,13.42-1.51,10.57,4.62,7.44,8.85,1.43,10-11.19,53.51-22.64-9.44Z"></path><path fill="#fff" fill-rule="evenodd" d="M1226.77,1229.33,1215.69,1279l2.39,13.72,8.45,10.18,12.13,4,11.2-3.28,11.63-10.12,11.59-53.6-23.12-9.42Z"></path><path fill="#571519" d="M1239.84,1310.8a29,29,0,0,1-6.2-.68,28.51,28.51,0,0,1-21.7-34l20.91-94.74a28.51,28.51,0,0,1,55.67,12.29h0l-20.91,94.73a28.52,28.52,0,0,1-27.77,22.38Zm20.85-142.62a19.4,19.4,0,0,0-18.91,15.2l-20.91,94.73a19.36,19.36,0,0,0,37.82,8.34l20.91-94.73a19.39,19.39,0,0,0-18.91-23.54Zm23.37,24.53h0Z"></path><path fill="#571519" d="M1272,1244.31a4.45,4.45,0,0,1-2-.49c-.12-.06-11.32-5.68-21.82-8a77.57,77.57,0,0,0-20.63-1.45,4.57,4.57,0,0,1-.79-9.1,85.63,85.63,0,0,1,23.39,1.62c11.65,2.57,23.47,8.51,24,8.76a4.57,4.57,0,0,1-2.07,8.65Z"></path><path fill="#fff" fill-rule="evenodd" d="M1331.68,1066.41a32.43,32.43,0,1,1-45.49-3.85A32.27,32.27,0,0,1,1331.68,1066.41Z"></path><path fill="#571519" d="M1306.54,1124a36.51,36.51,0,0,1-28.11-13.07,37.06,37.06,0,0,1,31.78-60.43,36.51,36.51,0,0,1,33.32,39.84,37.18,37.18,0,0,1-37,33.66Zm.51-64.49a27.55,27.55,0,1,0,27.38,30,27.22,27.22,0,0,0-6.25-20.16h0a27.29,27.29,0,0,0-18.74-9.72C1308.64,1059.56,1307.85,1059.53,1307.05,1059.53Z"></path><path fill="#571519" d="M1304.05,1122.8c-.19,0-.39,0-.59,0a4.58,4.58,0,0,1-4-5.12l8.08-62.22a4.57,4.57,0,0,1,9.07,1.17l-8.08,62.23A4.58,4.58,0,0,1,1304.05,1122.8Z"></path><path fill="#fff" fill-rule="evenodd" d="M1415.21,1271a32.43,32.43,0,1,1-44.38,10.68A32.27,32.27,0,0,1,1415.21,1271Z"></path><path fill="#571519" d="M1397.83,1335.52a36.53,36.53,0,0,1-35.51-28.34,37.06,37.06,0,0,1,55.29-40.06A36.33,36.33,0,0,1,1434,1290a37.18,37.18,0,0,1-36.17,45.52Zm.64-64.7a28,28,0,0,0-27.24,34.3,27.35,27.35,0,0,0,33.13,20.48,28.08,28.08,0,0,0,20.73-33.54,27.34,27.34,0,0,0-26.62-21.24Z"></path></g><g><path fill="#fff" fill-rule="evenodd" d="M1365.31,1150.3a32.43,32.43,0,1,1-44.38,10.69A32.28,32.28,0,0,1,1365.31,1150.3Z"></path><path fill="#571519" d="M1347.93,1214.79a36.46,36.46,0,0,1-35.51-28.32,37.21,37.21,0,0,1,27.5-44.48,36.49,36.49,0,0,1,44.17,27.3,37.16,37.16,0,0,1-36.16,45.5Zm.64-64.7a28,28,0,0,0-27.24,34.32,27.22,27.22,0,0,0,12.28,17.17,27.92,27.92,0,0,0,41.58-30.23,27.36,27.36,0,0,0-26.62-21.26Z"></path><path fill="#fff" fill-rule="evenodd" d="M1298.84,1294.74a32.43,32.43,0,1,1-44.38,10.69A32.27,32.27,0,0,1,1298.84,1294.74Z"></path><path fill="#571519" d="M1281.46,1359.23a36.46,36.46,0,0,1-35.51-28.32,37.06,37.06,0,0,1,55.29-40.06h0a37.05,37.05,0,0,1-19.78,68.38Zm.64-64.68a28,28,0,0,0-27.24,34.3,27.22,27.22,0,0,0,12.28,17.17,27.86,27.86,0,0,0,29.3-47.4A27.29,27.29,0,0,0,1282.1,1294.55Z"></path><path fill="#fff" fill-rule="evenodd" d="M1482.79,1332.85a32.43,32.43,0,1,1-44.38,10.69A32.28,32.28,0,0,1,1482.79,1332.85Z"></path><path fill="#571519" d="M1465.4,1397.36a36.24,36.24,0,0,1-19.12-5.46,37.06,37.06,0,0,1,11.12-67.36,36.37,36.37,0,0,1,27.79,4.42,37.06,37.06,0,0,1-11.11,67.37A37.3,37.3,0,0,1,1465.4,1397.36Zm.66-64.71a27.35,27.35,0,0,0-6.52.78,27.91,27.91,0,0,0-8.45,50.69,27.13,27.13,0,0,0,20.84,3.32,27.92,27.92,0,0,0,8.46-50.7A27.11,27.11,0,0,0,1466.06,1332.65Z"></path><path fill="#fff" fill-rule="evenodd" d="M1319.84,1249.43a32.43,32.43,0,1,1-44.37,10.68A32.26,32.26,0,0,1,1319.84,1249.43Z"></path><path fill="#571519" d="M1302.47,1313.92a36.24,36.24,0,0,1-19.14-5.45,37.07,37.07,0,0,1,11.12-67.36,36.36,36.36,0,0,1,27.8,4.43h0a36.35,36.35,0,0,1,16.38,22.88,37.17,37.17,0,0,1-36.16,45.5Zm.64-64.7a27.6,27.6,0,1,0,26.61,21.26,27.22,27.22,0,0,0-12.28-17.17h0A27.17,27.17,0,0,0,1303.11,1249.22Z"></path><path fill="#fff" fill-rule="evenodd" d="M1491.27,1202.47a32.43,32.43,0,1,1-44.38,10.69A32.28,32.28,0,0,1,1491.27,1202.47Z"></path><path fill="#571519" d="M1473.89,1267a36.43,36.43,0,0,1-35.51-28.32,37.21,37.21,0,0,1,27.5-44.48,36.28,36.28,0,0,1,27.79,4.42h0a37,37,0,0,1-19.78,68.38Zm.64-64.7a28.06,28.06,0,0,0-27.25,34.32,27.25,27.25,0,0,0,12.29,17.17,27.86,27.86,0,0,0,29.3-47.4h0A27.21,27.21,0,0,0,1474.53,1202.26Z"></path><path fill="#f0b85e" fill-rule="evenodd" d="M1485,1214.33c2.57-8.35,14.93-14.2,23-8.57s12.77,18.88,10.2,27.23-15.14,12.26-23.23,6.63S1482.47,1222.67,1485,1214.33Z"></path><path fill="#571519" d="M1504,1247.31a20.54,20.54,0,0,1-11.6-3.94c-9.73-6.78-14.89-20.13-11.74-30.39a15.34,15.34,0,0,1,9.64-10.43c5.15-1.79,11.22-.65,16.62,3.1,9.74,6.79,14.9,20.14,11.74,30.4a15.06,15.06,0,0,1-14.66,11.26Zm-8.65-36.45a6.41,6.41,0,0,0-2.07.33,6.49,6.49,0,0,0-3.88,4.48c-2,6.46,1.78,15.71,8.23,20.2,3,2.07,6,2.79,8.41,2a6.51,6.51,0,0,0,3.89-4.48c2-6.46-1.79-15.71-8.23-20.21A11.52,11.52,0,0,0,1495.35,1210.86Z"></path><path fill="#571519" d="M1509.37,1246.05a4.57,4.57,0,0,1-2.68-8.28c3.32-2.4,6.81-5.68,7.31-6.89,2-6.4-1.81-15.65-8.25-20.14-5.6-3.89-12-.56-12.31-.41a4.58,4.58,0,0,1-4.37-8c.47-.25,11.62-6.22,21.9,1,9.74,6.78,14.9,20.13,11.75,30.39-1.38,4.48-7.93,9.57-10.68,11.56A4.56,4.56,0,0,1,1509.37,1246.05Z"></path><path fill="#571519" d="M1651.56,1432.24c-7.6,0-15.32-5.09-21.73-9.3-1.71-1.13-3.3-2.18-4.7-3-21.33-12.24-39.57-38.48-54.21-78-14.46-39.11-22.39-91.11-21.2-139.11.5-20.3,1-41.3-7.08-61.26-7.35-18.14-19.57-31.61-32.51-45.87-6.68-7.37-13.59-15-19.85-23.36-36.78-49.19-74.81-100.06-73.16-167a4.57,4.57,0,1,1,9.14.22c-1.58,63.75,35.49,113.32,71.34,161.27,6,8,12.76,15.48,19.3,22.69,12.9,14.22,26.25,28.94,34.21,48.57,8.81,21.73,8.27,43.69,7.75,64.93-1.17,46.89,6.55,97.63,20.63,135.71,13.88,37.46,30.76,62.11,50.19,73.25,1.54.88,3.29,2,5.18,3.27,5.75,3.79,13.61,8.94,18.52,7.55,7.33-2.13,7.43-11.79,6.83-23.26l-.14-3c-.62-14.94-4.63-29.54-8.52-43.66-3-10.85-6.08-22.07-7.7-33.58-6.88-48.66-2.8-96.64,1.15-143,2.58-30.44,5.26-61.92,4.76-93.06-.41-25.48-6.49-51.83-12.37-77.3l-2.18-9.49a4.57,4.57,0,1,1,8.91-2l2.17,9.45c6,25.95,12.18,52.77,12.61,79.21.5,31.61-2.19,63.32-4.8,94-3.9,45.9-7.94,93.36-1.2,141,1.54,10.93,4.55,21.86,7.46,32.44,4,14.61,8.19,29.72,8.84,45.71l.14,2.91c.55,10.54,1.48,28.19-13.42,32.5A15.52,15.52,0,0,1,1651.56,1432.24Z"></path><path fill="#571519" d="M1457 1604.11a12.9 12.9 0 01-8.27-2.95c-19.45-15.57-13.15-56.75-3.23-74 11.35-19.74 27.62-42.51 42-62.59 11.62-16.26 22.59-31.62 28.27-41.71 11.51-20.46 18.85-39.1 26.63-58.84 6-15.31 12.27-31.13 20.59-47.78a4.57 4.57 0 018.18 4.09c-8.15 16.29-14.3 31.92-20.26 47-7.55 19.16-15.36 39-27.18 60-5.91 10.53-16.52 25.36-28.8 42.54-14.22 19.92-30.36 42.49-41.48 61.84-8.5 14.78-13.8 50.42 1 62.28 7.1 5.7 27.09-17.16 33.65-24.67 2.1-2.39 3.81-4.33 5-5.51 29.05-29 54.27-56.12 77.12-82.78 6.2-7.23 25.38-34.12 45.27-65.81a4.57 4.57 0 117.74 4.86c-20.12 32.06-39.69 59.45-46.07 66.9-23 26.83-48.38 54.08-77.6 83.29-1.07 1.08-2.64 2.87-4.55 5.07C1485.16 1586.64 1469.89 1604.11 1457 1604.11zM1659.23 1351.26a4.57 4.57 0 01-4.13-6.52c9.13-19.24 14.36-34.4 15.54-45 4.71-42.34 2.63-203-4.87-261.28-4.32-33.61-21.18-89.65-36-139.08-7.75-25.77-15.08-50.11-19.85-68.72a4.57 4.57 0 018.85-2.27c4.73 18.42 12 42.68 19.75 68.36 15 49.77 32 106.18 36.37 140.55 7.55 58.71 9.63 220.72 4.88 263.44-1.29 11.65-6.8 27.78-16.36 47.94A4.56 4.56 0 011659.23 1351.26zM1344.45 1580.31a28.13 28.13 0 01-8.9-1.46 23.17 23.17 0 01-12.2-9 4.57 4.57 0 017.55-5.14 14.14 14.14 0 007.54 5.44c6.69 2.23 13.7.69 21.42-4.69a4.57 4.57 0 115.22 7.5C1358.1 1577.86 1351.18 1580.31 1344.45 1580.31zM1451.22 1455.47a4.51 4.51 0 01-2.7-.88 4.58 4.58 0 01-1-6.39c4.07-5.54 9.17-12.42 15-20.13a4.57 4.57 0 117.31 5.49c-5.76 7.68-10.85 14.52-14.89 20A4.56 4.56 0 011451.22 1455.47zM1510.68 1376.88a4.57 4.57 0 01-3.62-7.36c10.38-13.48 44.76-58 51.19-64.39a4.57 4.57 0 016.46 6.46c-4 4-23.33 28.35-50.41 63.51A4.55 4.55 0 011510.68 1376.88zM1367.12 855.85a4.84 4.84 0 01-1.29-.18 4.58 4.58 0 01-3.1-5.67c.91-3.1 2.59-11.5 5.43-34a4.62 4.62 0 015.11-4 4.57 4.57 0 014 5.11c-2.38 18.77-4.25 30.34-5.73 35.38A4.56 4.56 0 011367.12 855.85zM1403.07 1523.87a4.58 4.58 0 01-3.8-7.11A62.93 62.93 0 001403 1510a68.5 68.5 0 014.32-7.78 4.57 4.57 0 117.59 5.08 63.85 63.85 0 00-3.74 6.79 70.4 70.4 0 01-4.28 7.72A4.57 4.57 0 011403.07 1523.87zM1366.39 1454.71a4.57 4.57 0 01-3.91-6.92l.54-.9a8.31 8.31 0 001.06-2.11c.3-.87.79-2.3 1.88-5.09a4.57 4.57 0 118.52 3.32c-1 2.62-1.49 4-1.77 4.77a15.22 15.22 0 01-1.86 3.83l-.53.88A4.57 4.57 0 011366.39 1454.71zM1358.37 1441.33a4.57 4.57 0 01-3.8-7.1l.36-.54c.26-.39.41-.6.51-.78.34-1 .75-2.23 1.75-4.72a4.57 4.57 0 118.48 3.39c-.89 2.25-1.26 3.33-1.48 4a10.55 10.55 0 01-1.67 3.24l-.35.52A4.55 4.55 0 011358.37 1441.33z"></path><path fill="#571519" d="M1326.14 1570.74a4.56 4.56 0 01-3.23-1.34c-8.62-8.61-5.31-36.59 1.41-50.29a4.57 4.57 0 118.21 4c-6.65 13.55-7 36-3.16 39.8a4.57 4.57 0 01-3.23 7.8zM1234.6 1409.27a14.65 14.65 0 01-7.78-2.19c-12.24-7.57-12.86-32-12.86-36.8a4.57 4.57 0 019.14 0c0 9.55 2.27 25.15 8.52 29 .77.47 3.09 1.91 8.17-.63a4.57 4.57 0 014.09 8.18A20.8 20.8 0 011234.6 1409.27zM1265.9 1505.9a4.57 4.57 0 01-4.57-4.57c0-18.07 5.45-32.59 14.24-50.18a4.57 4.57 0 018.18 4.09c-8.2 16.39-13.28 29.82-13.28 46.09A4.56 4.56 0 011265.9 1505.9zM1283.42 1529c-.57 0-1.14 0-1.71-.08a4.57 4.57 0 01.8-9.1c10.15.93 24.54-13 26.85-17.63a4.57 4.57 0 118.18 4.08C1314.48 1512.4 1298.37 1529 1283.42 1529z"></path></g><g><path fill="#f0b85e" fill-rule="evenodd" d="M1497.76,1296a22.12,22.12,0,1,1,30.68,5.28A22,22,0,0,1,1497.76,1296Z"></path><path fill="#571519" d="M1515.73,1309.83a26.71,26.71,0,1,1,15.33-4.84A26.68,26.68,0,0,1,1515.73,1309.83Zm.3-43.95a17.59,17.59,0,0,0-14.53,27.47h0a17.55,17.55,0,0,0,28.76-20.11,17.41,17.41,0,0,0-14.23-7.36Z"></path><path fill="#e1685a" fill-rule="evenodd" d="M1338.75,1166.25l-54.21,31.64-19.62-3-12.66-12.86-.84-19L1259,1150l52.74-31.85,12.87,32.06Z"></path><path fill="#fff" fill-rule="evenodd" d="M1338.81,1166.5l50.54-30.15,9.32-16.27-1.78-17.47-9.44-12.52-21.33-3.49-54.41,33.05,10.41,26.9Z"></path><path fill="#571519" d="M1277.93,1202.83a32,32,0,0,1-7.57-.91,31.78,31.78,0,0,1-9-58h0l94.18-57.34a31.78,31.78,0,0,1,33,54.28l-94.18,57.34A31.55,31.55,0,0,1,1277.93,1202.83Zm-11.83-51.12h0a22.63,22.63,0,1,0,23.54,38.66l94.17-57.34a22.63,22.63,0,1,0-23.54-38.66Z"></path><path fill="#571519" d="M1339,1169.93a4.53,4.53,0,0,1-3-1.13,96.9,96.9,0,0,1-17-20.32c-7-11.52-11.41-25.82-11.6-26.42a4.57,4.57,0,0,1,8.75-2.67c0,.13,4.26,13.82,10.66,24.34a89.7,89.7,0,0,0,15.16,18.2,4.57,4.57,0,0,1-3,8Z"></path><path fill="#fff" fill-rule="evenodd" d="M1217.32,1303.92a36.86,36.86,0,1,1,51.13,8.8A36.68,36.68,0,0,1,1217.32,1303.92Z"></path><path fill="#571519" d="M1247.3,1324a42.76,42.76,0,0,1-7.11-.61,40.66,40.66,0,0,1-26.61-16.86h0a40.65,40.65,0,0,1-6.71-30.79,41.68,41.68,0,0,1,48-33.56,40.62,40.62,0,0,1,26.61,16.86,41.51,41.51,0,0,1-34.17,65Zm.48-73.29a32.59,32.59,0,0,0-31.92,26.67,31.61,31.61,0,0,0,5.2,23.91h0a31.59,31.59,0,0,0,20.68,13.09,32.37,32.37,0,0,0,32.25-50.1,31.56,31.56,0,0,0-20.68-13.09A32.45,32.45,0,0,0,1247.78,1250.72Z"></path><path fill="#571519" d="M1238.45,1322.18a4.73,4.73,0,0,1-1-.1,4.56,4.56,0,0,1-3.49-5.44l15.25-69.67a4.57,4.57,0,0,1,8.93,2l-15.25,69.66A4.57,4.57,0,0,1,1238.45,1322.18Z"></path><path fill="#fff" fill-rule="evenodd" d="M1404.83,1158.68a36.86,36.86,0,1,1,9.73,51A36.71,36.71,0,0,1,1404.83,1158.68Z"></path><path fill="#571519" d="M1435.48,1220.72a41.64,41.64,0,0,1-40.84-33.78,40.61,40.61,0,0,1,6.43-30.84h0a41.51,41.51,0,0,1,74.75,16,40.87,40.87,0,0,1-40.34,48.59Zm-26.88-59.45a31.57,31.57,0,0,0-5,24,32.36,32.36,0,0,0,58.24,12.58,31.51,31.51,0,0,0,5-24,32.36,32.36,0,0,0-58.24-12.58Z"></path><path fill="#571519" d="M1399.43,1187.85a4.57,4.57,0,0,1-.65-9.09l70.58-10.22a4.49,4.49,0,0,1,5.17,3.87,4.55,4.55,0,0,1-3.86,5.17l-70.58,10.22A4.89,4.89,0,0,1,1399.43,1187.85Z"></path><path fill="#fff" fill-rule="evenodd" d="M1278,1379.72a22.12,22.12,0,1,1,30.68,5.29A22,22,0,0,1,1278,1379.72Z"></path><path fill="#571519" d="M1296,1393.59a26.4,26.4,0,0,1-21.71-11.25h0a26.19,26.19,0,0,1-4.33-19.84,26.74,26.74,0,0,1,48.07-10.74,26.25,26.25,0,0,1,4.32,19.85,26.84,26.84,0,0,1-26.35,22Zm-14.22-16.48a17.59,17.59,0,0,0,31.57-7.14,17.08,17.08,0,0,0-2.81-13,17.59,17.59,0,0,0-31.58,7.13,17.15,17.15,0,0,0,2.82,13Z"></path><path fill="#c0e1f9" fill-rule="evenodd" d="M1193.61,1227.08a22.11,22.11,0,1,1,30.67,5.29A22,22,0,0,1,1193.61,1227.08Z"></path><path fill="#571519" d="M1211.59,1241a27.12,27.12,0,0,1-4.57-.39,26.23,26.23,0,0,1-17.16-10.87h0a26.22,26.22,0,0,1-4.32-19.85,26.82,26.82,0,0,1,30.9-21.61,26.23,26.23,0,0,1,17.16,10.87,26.74,26.74,0,0,1-22,41.85Zm.29-44a17.71,17.71,0,0,0-17.35,14.49,17.15,17.15,0,0,0,2.82,13h0a17.14,17.14,0,0,0,11.22,7.1,17.59,17.59,0,0,0,17.54-27.21,17.14,17.14,0,0,0-11.22-7.1A18,18,0,0,0,1211.88,1197Z"></path><path fill="#c0e1f9" fill-rule="evenodd" d="M1259.4,1120.07c-.26.77-9,20.94-27.41,18.3-9.82-1.4-19-12.69-14.2-22.81,2.23-4.72,12.36-14.75,16.75-17.62C1239.55,1094.65,1259.4,1120.07,1259.4,1120.07Z"></path><path fill="#571519" d="M1234.36,1143.09a22.56,22.56,0,0,1-3-.19c-5.84-.77-10.48-3.79-13.05-8.5-2.88-5.28-2.74-12.08.36-18.65a33.81,33.81,0,0,1,12-13.54,4.57,4.57,0,1,1,5,7.64,24.61,24.61,0,0,0-8.74,9.8c-1.85,3.91-2.07,7.68-.6,10.37a7.8,7.8,0,0,0,6.22,3.82c7.87,1,17.81-5.1,21.73-13.4.3-.64.55-1.26.77-1.87a4.57,4.57,0,0,1,8.63,3,26.84,26.84,0,0,1-1.15,2.78C1257.4,1135.32,1245.44,1143.09,1234.36,1143.09Z"></path><path fill="#571519" d="M1221.8,1137.47a4.53,4.53,0,0,1-3.57-1.73c-.37-.47-8.93-11.54-3-24.07a34.07,34.07,0,0,1,16.82-16.18,4.57,4.57,0,0,1,3.72,8.35,25.08,25.08,0,0,0-12.27,11.73c-3.48,7.36,1.71,14.24,1.93,14.53a4.57,4.57,0,0,1-3.62,7.37Z"></path><path fill="#c0e1f9" fill-rule="evenodd" d="M1428.09,1074.65c2.76-9.53,15.79-16.63,25.08-10.38s17,21.56,14.25,31.1c-1.42,4.92-8,9.76-13.59,11.22-5.25,1.39-9.44-.35-13.93-3.37C1430.62,1097,1425.33,1084.18,1428.09,1074.65Z"></path><path fill="#571519" d="M1450,1111.16a22.78,22.78,0,0,1-12.6-4.15c-11-7.39-17-22.16-13.65-33.63,1.64-5.66,5.33-9.79,10.38-11.62,5.63-2.06,12.34-.9,18.37,3.15,11,7.39,17,22.16,13.65,33.63a16.44,16.44,0,0,1-16.15,12.62Zm-10.06-41.27a7.64,7.64,0,0,0-2.69.46,7.83,7.83,0,0,0-4.72,5.57c-2.21,7.62,2.36,18.38,10,23.5,3.57,2.42,7.28,3.2,10.15,2.16a7.85,7.85,0,0,0,4.72-5.58c2.2-7.62-2.36-18.38-10-23.5A13.73,13.73,0,0,0,1439.89,1069.89Z"></path><path fill="#571519" d="M1456.25,1109.63a4.58,4.58,0,0,1-2.74-8.24c3.89-2.9,7.89-6.83,8.39-8.23,2.2-7.6-2.37-18.36-10-23.48-6.76-4.55-14.34-.45-14.66-.28a4.57,4.57,0,0,1-4.49-8c.51-.29,12.74-7.08,24.25.65,11,7.39,17,22.16,13.65,33.63-1.43,4.93-8.65,10.73-11.69,13A4.57,4.57,0,0,1,1456.25,1109.63Z"></path><path fill="#f0b85e" fill-rule="evenodd" d="M1257.11,1116.73c-9.78,1.7-22.07-7.81-20.53-18.9s12.55-22.68,22.33-24.37,20.23,9,18.69,20.12S1266.88,1115,1257.11,1116.73Z"></path><path fill="#571519" d="M1254.41,1121.54a16.25,16.25,0,0,1-11.51-4.53c-4.33-4.18-6.23-10.71-5.23-17.91,1.82-13.11,12.47-25,24.23-27,5.81-1,11.14.49,15,4.22,4.32,4.18,6.23,10.7,5.23,17.91-1.83,13.11-12.47,25-24.24,27A19.82,19.82,0,0,1,1254.41,1121.54Zm10.95-40.62a10.37,10.37,0,0,0-1.89.17c-7.81,1.35-15.48,10.18-16.75,19.27-.59,4.27.33,8,2.53,10.07a7.76,7.76,0,0,0,7.07,1.79h0c7.81-1.35,15.48-10.18,16.74-19.27.6-4.28-.32-8-2.52-10.07A7.25,7.25,0,0,0,1265.36,1080.92Z"></path><path fill="#571519" d="M1245.76,1119.11a4.54,4.54,0,0,1-2.57-.79c-.49-.33-12-8.35-10-22.08,1.82-13.11,12.46-25,24.23-27,5-.88,13.44,3.07,16.81,4.81a4.57,4.57,0,1,1-4.18,8.12c-4.32-2.22-9.57-4.15-11.09-3.92-7.79,1.35-15.46,10.18-16.72,19.27-1.14,8.19,6.08,13.22,6.16,13.27a4.57,4.57,0,0,1-2.59,8.34Z"></path><path fill="#f0b85e" fill-rule="evenodd" d="M1191.53,1324.9a22.11,22.11,0,1,1,31-3.27A22,22,0,0,1,1191.53,1324.9Z"></path><path fill="#571519" d="M1205.27,1334.37a26.32,26.32,0,0,1-26.19-23.85,26.84,26.84,0,0,1,23.85-29.21,26.35,26.35,0,0,1,29,23.71,26.84,26.84,0,0,1-23.85,29.21C1207.16,1334.32,1206.21,1334.37,1205.27,1334.37Zm.48-44.07a16.56,16.56,0,0,0-1.86.1,17.71,17.71,0,0,0-15.72,19.24,17.18,17.18,0,0,0,6.25,11.72h0a17.14,17.14,0,0,0,12.73,3.77,17.68,17.68,0,0,0,15.71-19.24,17.2,17.2,0,0,0-17.11-15.59Z"></path><path fill="#6687d4" fill-rule="evenodd" d="M1422.12,1438.34l-62.82,15.75-16.17-8-8.44-12.81-.76-13.09,5.14-12.1,9.4-6.6,60-16.22,2.09,27.8Z"></path><path fill="#fff" fill-rule="evenodd" d="M1420.82,1438.26l56-14.34,12.67-9.49,6-13.8-2.16-14.37-9.09-9.65L1468,1370l-60.28,15.86,2.36,28.28Z"></path><path fill="#571519" d="M1361,1457.19a31.78,31.78,0,0,1-8-62.55h0l106.76-27.6a31.78,31.78,0,0,1,15.9,61.53L1369,1456.17A31.53,31.53,0,0,1,1361,1457.19Zm-5.67-53.7a22.64,22.64,0,1,0,11.33,43.83l106.76-27.6a22.64,22.64,0,1,0-11.34-43.83Z"></path><path fill="#571519" d="M1421.16,1442.25a4.57,4.57,0,0,1-3.88-2.15,97,97,0,0,1-10.32-24.36c-3.38-13.06-3.45-28-3.45-28.65a4.57,4.57,0,0,1,4.56-4.58h0a4.58,4.58,0,0,1,4.57,4.56c0,.14.07,14.46,3.15,26.38a88.12,88.12,0,0,0,9.24,21.81,4.57,4.57,0,0,1-3.88,7Z"></path><path fill="#e1685a" fill-rule="evenodd" d="M1475.72,1319.45l-33.88,53.26-18.57-6.53-12.54-8.69-13.45-12.92,30.36-51.47,12.85-8.18,16.72.24,12.39,9,6,12.45Z"></path><path fill="#fff" fill-rule="evenodd" d="M1441.45,1372.73l-32.37,53.1-15.68,6.27-17.22-2.24-10.42-9.09-3.31-14.49,2.31-13.22,31.91-49.55,22.87,20.14Z"></path><path fill="#571519" d="M1389.27,1436.51a31.77,31.77,0,0,1-26.83-48.72h0l58.82-93.27a31.77,31.77,0,0,1,53.75,33.9l-58.81,93.27A31.79,31.79,0,0,1,1389.27,1436.51Zm-19.1-43.84a22.64,22.64,0,0,0,38.3,24.14l58.81-93.26A22.63,22.63,0,1,0,1429,1299.4l-58.82,93.27Z"></path><path fill="#571519" d="M1441.53,1377a4.29,4.29,0,0,1-1.17-.16,97.16,97.16,0,0,1-24.21-10.65c-11.42-7.2-21.72-18-22.15-18.51a4.57,4.57,0,0,1,6.64-6.28c.1.11,10,10.49,20.38,17.06a89.46,89.46,0,0,0,21.68,9.55,4.57,4.57,0,0,1-1.17,9Z"></path><path fill="#f0b85e" fill-rule="evenodd" d="M1342.13,1058.05a22.12,22.12,0,1,1,31-3.27A22,22,0,0,1,1342.13,1058.05Z"></path><path fill="#571519" d="M1355.87,1067.53a26.13,26.13,0,0,1-16.63-5.94h0a26.69,26.69,0,0,1,33.76-41.34,26.21,26.21,0,0,1,9.56,17.92,26.84,26.84,0,0,1-23.85,29.21A27.16,27.16,0,0,1,1355.87,1067.53Zm-10.85-13a17,17,0,0,0,12.73,3.78,17.71,17.71,0,0,0,15.72-19.24,17.16,17.16,0,0,0-6.25-11.72,17.55,17.55,0,0,0-22.2,27.18Z"></path><path fill="#c0e1f9" fill-rule="evenodd" d="M1426.09,1259.07a22.12,22.12,0,1,1,30.68,5.28A22,22,0,0,1,1426.09,1259.07Z"></path><path fill="#571519" d="M1444.06,1272.93a26.42,26.42,0,0,1-21.72-11.24h0a26.66,26.66,0,1,1,21.72,11.24Zm-14.23-16.48a17.55,17.55,0,1,0,4.44-24.27,17.47,17.47,0,0,0-4.44,24.27Z"></path><path fill="#c0e1f9" fill-rule="evenodd" d="M1311.15,1468.5a22.12,22.12,0,1,1,30.68,5.28A22,22,0,0,1,1311.15,1468.5Z"></path><path fill="#571519" d="M1329.14,1482.38a27.32,27.32,0,0,1-4.58-.39,26.19,26.19,0,0,1-17.15-10.87h0a26.73,26.73,0,0,1,26.58-41.46,26.36,26.36,0,0,1,21.48,30.72,26.89,26.89,0,0,1-26.33,22Zm.29-44a17.59,17.59,0,0,0-14.53,27.47h0a17.12,17.12,0,0,0,11.21,7.1,17.69,17.69,0,0,0,20.36-14.23,17.2,17.2,0,0,0-14-20.08A17,17,0,0,0,1329.43,1438.41Z"></path><path fill="#fff" fill-rule="evenodd" d="M1258.72,1414.45a36.86,36.86,0,1,1,19.53,48.07A36.69,36.69,0,0,1,1258.72,1414.45Z"></path><path fill="#571519" d="M1292.8,1470.08a41.7,41.7,0,0,1-38.54-25.92,40.85,40.85,0,0,1,22.86-53.46,41.64,41.64,0,0,1,53.84,23,40.66,40.66,0,0,1-.26,31.51A41.13,41.13,0,0,1,1292.8,1470.08Zm-.42-73.16a32.3,32.3,0,0,0-11.9,2.28,31.57,31.57,0,0,0-17.56,17h0a31.57,31.57,0,0,0-.19,24.47,32.36,32.36,0,0,0,59.57.91,31.61,31.61,0,0,0,.2-24.47,32.63,32.63,0,0,0-30.12-20.24Zm-33.66,17.53h0Z"></path><path fill="#571519" d="M1258.25,1444.2a4.57,4.57,0,0,1-1.52-8.88l67.2-23.86a4.57,4.57,0,1,1,3,8.61l-67.2,23.86A4.53,4.53,0,0,1,1258.25,1444.2Z"></path><path fill="#fff" fill-rule="evenodd" d="M1284.35,1221.31a36.86,36.86,0,1,1,33.68,39.46A36.7,36.7,0,0,1,1284.35,1221.31Z"></path><path fill="#571519" d="M1321.16,1265.47c-1.16,0-2.33,0-3.51-.15a41.26,41.26,0,0,1-28.17-14.42,40.65,40.65,0,0,1-9.69-30h0a41.5,41.5,0,0,1,72.89-23.07,40.69,40.69,0,0,1,9.69,30A41.29,41.29,0,0,1,1321.16,1265.47Zm-32.26-43.78a31.55,31.55,0,0,0,7.53,23.28,32.36,32.36,0,0,0,56.83-17.9,31.61,31.61,0,0,0-7.53-23.29,32.37,32.37,0,0,0-56.83,17.91Z"></path><path fill="#571519" d="M1291.84,1249.92a4.57,4.57,0,0,1-2.81-8.18l56.27-43.82a4.57,4.57,0,0,1,5.61,7.22L1294.65,1249A4.58,4.58,0,0,1,1291.84,1249.92Z"></path><path fill="#6687d4" fill-rule="evenodd" d="M1376.26,1304.39l-35,54.5-17.27,5.25-14.93-3.56-9.51-9-4.55-12.34,2.33-11.24,32.61-52.91,20.56,18.83Z"></path><path fill="#fff" fill-rule="evenodd" d="M1375.26,1305.23l31-48.8,2.74-15.6-5.11-14.13-11.41-9-13.23-.81-16.34,6.33-33.07,52.84,21.09,19Z"></path><path fill="#571519" d="M1322.83,1368.58a31.75,31.75,0,0,1-26.81-48.73h0l58.89-93.22a31.77,31.77,0,0,1,53.72,33.94l-58.88,93.22A31.78,31.78,0,0,1,1322.83,1368.58Zm-19.08-43.85a22.63,22.63,0,1,0,38.27,24.18l58.88-93.23a22.63,22.63,0,1,0-38.26-24.17Z"></path><path fill="#571519" d="M1375.11,1309.14a4.37,4.37,0,0,1-1.17-.15,97.62,97.62,0,0,1-24.21-10.68c-11.4-7.2-21.69-18-22.13-18.51a4.57,4.57,0,1,1,6.65-6.27c.1.1,10,10.48,20.37,17a89.33,89.33,0,0,0,21.66,9.58,4.57,4.57,0,0,1-1.17,9Z"></path><path fill="#c0e1f9" fill-rule="evenodd" d="M1475.94,1153a22.11,22.11,0,1,1,30.68,5.29A22,22,0,0,1,1475.94,1153Z"></path><path fill="#571519" d="M1493.93,1166.88a26.64,26.64,0,0,1-21.74-11.27h0a26.69,26.69,0,0,1,43.74-30.58,26.19,26.19,0,0,1,4.32,19.84,26.86,26.86,0,0,1-26.32,22Zm-14.25-16.51a17.13,17.13,0,0,0,11.22,7.1,17.69,17.69,0,0,0,20.36-14.23,17.13,17.13,0,0,0-2.82-13,17.55,17.55,0,0,0-28.76,20.1Z"></path><path fill="#c0e1f9" fill-rule="evenodd" d="M1387.83,1136.89a22.12,22.12,0,1,1,30.68,5.28A22,22,0,0,1,1387.83,1136.89Z"></path><path fill="#571519" d="M1405.8,1150.75a26.43,26.43,0,0,1-21.72-11.24h0a26.24,26.24,0,0,1-4.32-19.86,26.84,26.84,0,0,1,30.9-21.6,26.16,26.16,0,0,1,17.16,10.87,26.71,26.71,0,0,1-22,41.83Zm-14.23-16.48a17.55,17.55,0,0,0,28.76-20.11,17.12,17.12,0,0,0-11.22-7.1,17.69,17.69,0,0,0-20.36,14.23,17.15,17.15,0,0,0,2.82,13Z"></path></g></svg>