<svg xmlns="http://www.w3.org/2000/svg" enable-background="new 0 0 48 48" viewBox="0 0 48 48" id="patient"><path d="M29.104,21.584C32.03,19.837,34,16.648,34,13c0-5.514-4.486-10-10-10S14,7.486,14,13c0,3.648,1.97,6.837,4.896,8.584
	C12.572,23.053,8,27.162,8,32v12c0,0.552,0.448,1,1,1h30c0.552,0,1-0.448,1-1V32C40,27.162,35.428,23.053,29.104,21.584z
	 M24.707,40.707C24.512,40.902,24.256,41,24,41s-0.512-0.098-0.707-0.293C20.637,38.051,17,34.414,17,31c0-2.206,1.794-4,4-4
	c1.193,0,2.267,0.525,3,1.357C24.733,27.525,25.807,27,27,27c2.206,0,4,1.794,4,4C31,34.414,27.363,38.051,24.707,40.707z M29,31
	c0,2.329-2.786,5.346-5,7.583c-2.214-2.237-5-5.254-5-7.583c0-1.103,0.897-2,2-2s2,0.897,2,2c0,0.552,0.448,1,1,1s1-0.448,1-1
	c0-1.103,0.897-2,2-2S29,29.897,29,31z"></path></svg>