<svg xmlns="http://www.w3.org/2000/svg" viewBox="0 0 307.97 252.67" id="plank-yoga-pose"><g><g><circle cx="109.23" cy="20.03" r="20.03" fill="#f7bfbf"></circle><path fill="#f7bfbf" d="M49.84 81.98c3.77-6.82 12.63-10.31 20.09-7.92 7.55 2.41 12.77 10.46 11.92 18.35 0 0-.65-.47-.65-.47 4.73-2.2 10.96-.93 14.09 3.35 1.05 1.38 1.81 2.98 2.22 4.65.08.3-.16.6-.46.59-16.82-.04-33.65-.13-50.47-.48 16.82-.34 33.65-.44 50.47-.48 0 0-.46.59-.46.59-.78-3.1-2.86-5.9-5.73-7.27-2.87-1.38-6.37-1.43-9.28-.12-.23.11-.5 0-.61-.23.3-3.79-.52-7.7-2.65-10.93-6.44-10.71-22.03-9.98-28.48.35h0zM241.53 41.55c-8.5-8.61-22.8-3.06-23 9.05 0 .3-.29.53-.58.45-4.08-1.04-8.49 1.51-10.17 5.26 0 0-.44-.68-.44-.68 11.94.04 23.88.13 35.83.48-11.94.35-23.88.44-35.83.48-.34 0-.58-.37-.44-.68 1.83-4.21 6.74-6.97 11.27-5.77 0 0-.58.45-.58.45.21-12.71 15.52-18.53 23.93-9.06h0z"></path><path fill="#a59a55" d="m89.56,252.37c-11.17,0-22.34.01-33.55.25-9.4.2-18.97-.14-27.89-3.13-9.89-3.32-23.48-12.29-21.18-24.42,1.37-7.23,8.44-12.25,14.38-15.75-4.42-7.64-13.39-14.11-14.79-23.02-1.59-10.08-.02-20.91,6.26-29.29,6.05-8.08,15.82-13.16,25.86-16.4,17.54-5.67,37.82-6.28,54.05,2.09,15.93,8.22,25.93,23.96,30.74,40.22,4.25,14.37,4.89,30.13-1.51,43.8-6.4,13.67-16.26,25.65-32.39,25.65Z"></path><path fill="#c6f4d2" d="M137.21 200.7c1.57-21.82 10.04-43.3 24.8-59.45 14.76-16.15 35.9-26.63 57.76-27.32s44.1 8.83 57.74 25.93c6.69 8.38 11.36 18.8 11.02 29.52-.35 10.97-5.84 21.13-12.29 30.01-15.61 21.47-37.94 37.81-62.87 46.81-11.38 4.11-24.3 5.11-36.38 6.22-9.87.91-17.02-.73-24.27-7.18-13.09-11.63-16.73-27.54-15.51-44.55zM279.84 218.96c4.19-1.26 8.92-1.65 12.79.39 5.32 2.82 7.53 9.83 5.9 15.63-1.62 5.8-6.39 10.32-11.8 12.96-6.98 3.4-30.73 10.35-29.99-3.81.6-11.55 12.83-22.07 23.09-25.17z"></path><g><g><path fill="#fff" stroke="#8b4747" stroke-linecap="round" stroke-linejoin="round" stroke-width=".9" d="m149.3,210.94c-2.62-4.05-5.54-7.92-7.8-12.19-1.02-1.93-2-4.23-3.29-6.21-3.59,2.09-27.45,9.24-39.07,10.68-11.65,1.44-18.03-.32-27.29.32-9.26.64-19.95,4.31-30,7.82-10.05,3.51-12.45,2.71-16.28,2.87-3.83.16-7.5,1.28-7.66,4.31-.16,3.03,2.71,6.86,2.07,11.01-.64,4.15-1.6,9.1,1.76,15,3.35,5.9,5.11,8.14,12.77,6.06,0,0,.8-1.28-2.07-2.39,0,0-2.39-1.44-3.19-2.39-.8-.96,2.39-10.05,3.51-14.2,1.12-4.15.32-6.06,5.43-7.18,5.11-1.12,18.83-1.28,30.16-2.55,11.33-1.28,16.44-1.44,23.46-1.12,7.02.32,12.61.8,22.82,1.28,10.21.48,25.53.32,35.27-3.67,1.08-.44,2.14-.84,3.19-1.2-1.21-2.1-2.44-4.2-3.77-6.24Z"></path><path fill="#fff" stroke="#8b4747" stroke-linecap="round" stroke-linejoin="round" stroke-width=".9" d="M149.3 210.94c-2.22-3.43-4.66-6.74-6.72-10.27-3.74.32-6.65.66-6.65.66 0 0-91.79 13.6-94.28 16.09-1.78 1.78-1.25 4.93-.8 6.6 6.29-.76 17.77-1.03 27.49-2.13 11.33-1.28 16.44-1.44 23.46-1.12 7.02.32 12.61.8 22.82 1.28 10.21.48 25.53.32 35.27-3.67 1.08-.44 2.14-.84 3.19-1.2-1.21-2.1-2.44-4.2-3.77-6.24zM215.76 205.69s18.19-1.53 30.94-2.72c.42-.04.82-.08 1.21-.12-6.33-5.43-12.52-11.02-18.72-16.59-6.49 1.2-23.41 4.7-27.37 9.07-4.93 5.44 5.44 39.94 7.14 44.7 1.7 4.76 7.99 5.44 12.41 5.44s14.45.34 17.85.51c3.4.17 3.57-1.7 2.55-1.7s-3.06-1.53-7.82-3.4c-4.76-1.87-6.46-3.4-11.22-3.57-4.76-.17-6.46-.34-6.8-1.53-.34-1.19-2.21-14.96-1.36-21.59.85-6.63 1.19-8.5 1.19-8.5z"></path><g><path fill="#fff" d="m230.43,225.08c-5.23,0-8.62-3.9-9.17-4.58-.61-.26-4.07-1.7-10.89-3.67-5.44-1.57-15.31-2.21-22.51-2.67-2.95-.19-5.5-.35-7.33-.55-.35-.04-.7-.07-1.06-.1-.23-.02-.41-.21-.41-.44-.02-2.8.04-5.14.19-7.37.3-4.32.85-8.73,1.64-13.13.26-1.46.66-2.93,1.04-4.35.43-1.59.88-3.24,1.13-4.87.02-.14.1-.26.23-.33.07-.04.14-.05.22-.05.06,0,.12.01.18.04,3.24,1.42,9.31,2.86,15.55,2.86,1.75,0,3.4-.12,4.9-.35,2.96-.45,5.68-1.44,8.83-2.58,5.16-1.87,11-4,20.27-4.73,1.91-.15,3.75-.23,5.45-.23,10.27,0,14.91,2.72,18.64,4.91l.82.48c3.05,1.76,7.37,2.02,9.68,2.02.89,0,1.44-.04,1.45-.04l7.21-2.19s.09-.02.13-.02c.18,0,.36.11.42.3l2.89,7.99c.06.15.02.32-.08.45l-9.35,10.71c-.09.1-.21.15-.34.15-.06,0-.13-.01-.19-.04-.03-.01-3.16-1.45-6.92-1.45-2.43,0-4.59.59-6.42,1.76-3.42,2.18-4.22,3.21-6.36,5.93-1.6,2.03-4.01,5.11-8.85,10.32-3.6,3.87-7.29,5.83-10.99,5.83Z"></path><path fill="#8b4747" d="m238.68,178.43c10.91,0,15.39,3.11,19.23,5.33,3.16,1.82,7.61,2.08,9.9,2.08.92,0,1.48-.04,1.48-.04l7.31-2.21,2.89,7.99-9.35,10.71s-3.19-1.49-7.1-1.49c-2.14,0-4.5.45-6.66,1.83-6.12,3.91-4.08,4.25-15.3,16.32-4,4.31-7.64,5.69-10.66,5.69-5.44,0-8.89-4.5-8.89-4.5,0,0-3.4-1.53-11.05-3.74-7.65-2.21-23.46-2.55-29.92-3.23-.35-.04-.71-.07-1.07-.1-.02-2.45.02-4.89.19-7.34.31-4.39.86-8.75,1.63-13.08.55-3.07,1.7-6.12,2.17-9.23,3.54,1.56,9.75,2.9,15.73,2.9,1.7,0,3.38-.11,4.97-.35,7.82-1.19,14.11-6.12,29.07-7.31,1.97-.16,3.76-.23,5.41-.23m0-.9c-1.72,0-3.56.08-5.49.23-9.33.74-15.46,2.97-20.39,4.76-3.12,1.13-5.82,2.11-8.74,2.56-1.49.23-3.11.34-4.84.34-6.17,0-12.17-1.42-15.37-2.82-.12-.05-.24-.08-.36-.08-.15,0-.3.04-.43.11-.24.13-.41.38-.45.65-.24,1.6-.69,3.24-1.12,4.82-.39,1.43-.79,2.91-1.05,4.39-.79,4.41-1.34,8.84-1.64,13.17-.16,2.24-.22,4.59-.2,7.41,0,.46.36.85.82.89.36.03.71.06,1.05.1,1.84.19,4.39.36,7.34.55,7.18.46,17.02,1.09,22.42,2.65,6.5,1.88,9.93,3.27,10.74,3.61.76.91,4.22,4.66,9.45,4.66,3.82,0,7.63-2.01,11.31-5.98,4.86-5.22,7.28-8.31,8.88-10.34,2.1-2.68,2.89-3.68,6.25-5.83,1.75-1.12,3.83-1.69,6.18-1.69,3.65,0,6.7,1.39,6.73,1.41.12.06.25.08.38.08.25,0,.5-.11.68-.31l9.35-10.71c.21-.25.28-.59.17-.9l-2.89-7.99c-.13-.36-.47-.59-.84-.59-.09,0-.17.01-.26.04l-7.21,2.18c-.19.01-.67.03-1.32.03-2.26,0-6.5-.25-9.46-1.96-.27-.15-.54-.31-.82-.48-3.78-2.21-8.47-4.97-18.86-4.97h0Z"></path></g><path fill="#fff" stroke="#8b4747" stroke-linecap="round" stroke-linejoin="round" stroke-width=".9" d="m39.4,222.53c-1.98-3.98-1.72-8.27-.82-12.45-9.51,3.17-12.02,2.41-15.91,2.57-4.08.17-7.99,1.36-8.16,4.59s2.89,7.31,2.21,11.73c-.68,4.42-1.7,9.69,1.87,15.98,3.57,6.29,5.44,8.67,13.6,6.46,0,0,.85-1.36-2.21-2.55,0,0-2.55-1.53-3.4-2.55-.85-1.02,2.55-10.71,3.74-15.13,1.19-4.42.34-6.46,5.78-7.65.93-.2,2.14-.38,3.56-.53-.09-.16-.17-.31-.26-.47Z"></path><path fill="#fff" stroke="#8b4747" stroke-linecap="round" stroke-linejoin="round" stroke-width=".9" d="m187.98,184.9c-2.27-.58-4.21-1.27-5.53-1.99-4.08-2.21-13.94-8.33-24.14-4.42-10.2,3.91-11.9,8.84-15.64,11.05-3.74,2.21-29.24,9.86-41.64,11.39-12.41,1.53-19.21-.34-29.07.34-9.86.68-21.25,4.59-31.96,8.33-.73.25-1.41.48-2.07.7-2.76,6.2-.83,10.48.97,12.79,6.69-.81,18.94-1.1,29.31-2.27,12.07-1.36,17.51-1.53,24.99-1.19,7.48.34,13.43.85,24.31,1.36,10.88.51,27.2.34,37.57-3.91,10.37-4.25,19.04-4.59,25.5-3.91,1.16.12,2.62.23,4.28.35-1.26-12.03,2.07-24.94,3.12-28.61Z"></path><path fill="#f29494" d="m254.3,181.72c-4.05-2.07-9.82-3.95-21.03-3.06-9.42.75-15.4,2.98-20.49,4.83-3.24,10.75.68,30.43,1.44,34.03,5.03,1.59,7.32,2.62,7.32,2.62,0,0,8.33,10.88,19.55-1.19,11.22-12.07,9.18-12.41,15.3-16.32,1.17-.75,2.4-1.22,3.62-1.5,1.14-1.48,2.54-4.33,2.62-8.08-1.37-8.04-5.8-9.89-8.33-11.33Z"></path><path fill="#fff" stroke="#8b4747" stroke-linecap="round" stroke-linejoin="round" stroke-width=".9" d="m229.7,191.58s-.85-11.9,14.79-11.05c15.64.85,17.34,13.09,15.98,18.53-1.36,5.44-3.06,8.5-15.81,9.69-12.75,1.19-30.94,2.72-30.94,2.72,0,0-.34,1.87-1.19,8.5-.85,6.63,1.02,20.4,1.36,21.59.34,1.19,2.04,1.36,6.8,1.53,4.76.17,6.46,1.7,11.22,3.57,4.76,1.87,6.8,3.4,7.82,3.4s.85,1.87-2.55,1.7c-3.4-.17-13.43-.51-17.85-.51s-10.71-.68-12.41-5.44c-1.7-4.76-12.07-39.26-7.14-44.7,4.93-5.44,29.92-9.52,29.92-9.52Z"></path><path fill="#8b4747" d="m182.5,182.94c-1.48,4.17-6,18.28-3.86,30.06.66.04,1.31.1,1.93.17,1.16.12,2.62.23,4.28.35-1.26-12.03,2.07-24.94,3.12-28.61-2.24-.57-4.15-1.26-5.47-1.96Z"></path><g><g><path fill="#f29494" d="m295.36,197.76s.04.05.12.15c.08.1.2.24.35.42.16.18.36.38.6.6.25.21.54.43.88.63.68.39,1.61.62,2.56.41.47-.1.95-.27,1.41-.51.46-.24.89-.53,1.26-.89.37-.35.67-.77.93-1.23.26-.46.52-.94.86-1.36.33-.43.78-.77,1.24-.94.44-.18.84-.33,1.16-.55.31-.22.51-.51.62-.81.11-.3.13-.58.12-.81-.01-.23-.05-.42-.08-.54-.04-.12-.06-.19-.06-.19,0,0,.03.06.08.18.05.12.12.3.16.54.04.24.06.54-.03.89-.07.34-.29.72-.63.99-.34.27-.77.46-1.17.67-.4.2-.74.49-1.03.87-.29.39-.51.85-.78,1.32-.27.48-.59.97-1.01,1.36-.84.79-1.89,1.28-2.95,1.47-.53.09-1.06.05-1.54-.07-.48-.12-.9-.32-1.25-.55-.35-.23-.63-.5-.86-.74-.23-.25-.41-.48-.55-.67-.14-.2-.24-.36-.3-.47-.07-.11-.1-.17-.1-.17Z"></path><path fill="#f29494" d="m305.31,197s-.12.18-.33.51c-.21.32-.45.81-.77,1.38-.32.57-.71,1.27-1.36,1.86-.32.3-.7.56-1.13.73-.21.09-.43.16-.66.23-.2.05-.46.1-.69.11-.47.04-.95-.02-1.39-.15-.44-.14-.84-.36-1.19-.61-.7-.51-1.19-1.13-1.57-1.68-.37-.55-.62-1.05-.8-1.39-.17-.35-.25-.55-.25-.55,0,0,.12.18.34.5.21.32.53.77.94,1.27.41.5.93,1.05,1.6,1.48.65.44,1.46.69,2.28.61.21-.02.38-.05.6-.11.19-.05.39-.11.58-.19.38-.15.71-.37,1.01-.62.6-.5,1.02-1.13,1.4-1.67.37-.54.71-.98.96-1.28.12-.15.23-.25.3-.33.07-.07.11-.11.11-.11Z"></path></g><g><path fill="#fff" stroke="#8b4747" stroke-linecap="round" stroke-linejoin="round" stroke-width=".9" d="m296.11,198.58s-.44,2.56-3.52,3.59c-3.08,1.03-4.21.82-5.03,3.28-.82,2.46-1.25,3.65-1.96,3.93,0,0-.86.86-2-.61-1.14-1.47-2.85-1.27-3.92.26,0,0-.8.78-1.69-.32,0,0-.43,1.29-1.38.94-.95-.36-1.47-1.04-2.41-.34-.82.61-2.42,1.37-3.88.63-1.12-.57-1.78-2.34-1.36-3.53,0,0-2.72-4.74-1.1-9.6,1.62-4.86,5.08-6.9,6.44-7.02,0,0-1.7-1.54-.41-4.15,1.29-2.61,2.7-3.86,4.88-4.06,2.18-.19,4.49.91,4.74,1.58.26.67,1.21,2.65,1.21,2.65l6.74,2.85,3.33,3.6,1.31,6.3Z"></path><path fill="#f29494" d="M293.24 191.79c-.61.1.11 3.41.21 3.69.94 2.61 3.73 5.03 6.65 4.12 4.4-1.36 5.29-6.76 4.89-10.73-.38-3.8-2.22-8.49-4.75-11.39-1.27-1.46-3.1-2.19-4.69-3.22-2.03-1.31-3.18-3.53-4.93-5.13-6.17-5.65-15.98-1.01-19.98 4.97-.39.59-.75 1.19-1.08 1.81-.22.41-.55 1.68-.91 1.92 0 0-4.88 3.27-2.2 8.06 2.68 4.78 7.08.77 7.09.76.16-.15.26-.79.35-1 .38-.84.93-1.57 1.62-2.18 1.83-1.62 6.15-2.69 6.93.58.54 2.29-2.01 4.18-1.23 6.44.28.83 1.49 1.11 2.15.75.41-.22.72-.58 1.07-.88 1.48-1.29 2.69-.56 3.93.41 1.35 1.06 3.22 1.31 4.87 1.04zM305.72 168.86s2.41-.59 2.24-3.95c-.17-3.45-3.13-6.24-6.54-6.6-3.35-.35-7.06 2.12-5.53 5.82 1.41 3.41 9.83 4.72 9.83 4.72z"></path><path fill="#f29494" d="m299.29,176.68c.89-.06,1.52-.81,1.67-1.66.36-1.98-1.36-2.92-2.57-4.1-.68-.67-1.12-1.56-1.27-2.49-.15-.94.34-1.83.23-2.77-.38-3.09-5.21-2.09-6.39-.21-.83,1.32-.74,3.06-.15,4.51,1.25,3.03,4.01,5.63,7.16,6.55.42.12.88.21,1.31.18Z"></path><path fill="#f29494" d="m300.39,172.72c.83.32,1.73.37,2.68-.05,2.03-.91,3.27-3.1,2.33-5.24-.62-1.42-1.66-2.66-3.06-3.36-1.15-.57-2.75-.91-3.96-.34-2.44,1.13-2.46,5.1-.79,6.89.79.85,1.74,1.69,2.8,2.1Z"></path><path fill="#8b4747" stroke="#8b4747" stroke-miterlimit="10" stroke-width=".22" d="m288.11,202.36s-.07.05-.21.09c-.14.05-.36.09-.62.06-.13-.02-.28-.06-.42-.13-.14-.07-.28-.17-.4-.29-.12-.12-.23-.26-.31-.42-.09-.17-.14-.29-.21-.47-.06-.17-.1-.34-.13-.51-.03-.17-.03-.34-.03-.5,0-.33.1-.63.22-.86.12-.23.27-.4.38-.49.11-.1.2-.12.19-.13,0,0-.23.26-.34.71-.12.44-.09,1.07.12,1.63.04.13.12.31.17.42.07.13.13.25.22.36.08.1.17.2.28.27.1.07.21.13.31.17.21.08.41.1.55.1.14,0,.22,0,.22,0Z"></path></g></g></g><path fill="#8b4747" d="M85.48 203.67c5.46 1.2 11.13.96 16.47-.69-5.03 2.54-11.25 2.8-16.47.69h0zM39.99 211.96c-.56 3.16-.32 6.2.74 9.23-1.94-2.56-2.24-6.39-.74-9.23h0zM73.22 217.77c5.49-1.94 11.58-2.34 17.27-1.11-5.8-.31-11.57.06-17.27 1.11h0zM130.47 218.07c4.49.45 8.87.01 13.19-1.32-3.92 2.22-8.9 2.71-13.19 1.32h0zM232.69 190.21c.05-3.37 2.98-6.59 6.33-6.95-3.03 1.36-5.27 3.8-6.33 6.95h0zM231.06 241.99c1.86-.66 4.24.43 4.96 2.27-1.53-1.22-3.04-1.91-4.96-2.27h0zM148.33 189.59c2.09-5.54 8.53-9.15 14.35-8.04-1.46-.01-2.9.15-4.29.51-4.19 1.06-7.86 3.8-10.06 7.53h0zM176.25 202.43c-.3 3.08-.23 5.99.19 9.06-1.34-2.78-1.4-6.22-.19-9.06h0zM201.04 207.41c-1.04-2.84 1.11-6.42 4.11-6.83-2.57 1.42-4.06 3.9-4.11 6.83h0zM257.25 199.69c-.93 3.31-4.26 5.92-7.7 6.04 3.23-1.11 5.85-3.16 7.7-6.04h0zM211.51 240.18c.15 2.26 1.21 4.25 3.64 4.53-2.61.88-4.63-2.28-3.64-4.53h0zM18.41 221.98c-2.34-1.52-2.18-5.59.27-6.93-1.61 2.1-1.71 4.71-.27 6.93h0z"></path><path fill="#fff" d="M216.67 184.91c1.97-2.76 5.79-4.22 9.1-3.46-3.37.35-6.35 1.48-9.1 3.46h0zM217.41 216.82c2.36-.91 5.45.48 6.33 2.85-1.82-1.69-3.85-2.61-6.33-2.85h0z"></path></g><line x1="302.62" x2=".5" y1="252.17" y2="252.17" fill="none" stroke="#8b4747" stroke-linecap="round" stroke-linejoin="round"></line></g></g></svg>