<svg xmlns="http://www.w3.org/2000/svg" viewBox="0 0 485.015 456.751" id="work-from-home"><g><g><path fill="#dae0e0" d="M245.927 40.755c54.422 14.699 77.176-16.854 127.11-6.217 54.388 11.585 84.39 61.162 87.242 66.032 34.994 59.76 33.727 130.847-9.36 166.616-23.912 19.852-48.092 19.945-123.164 52.578-56.797 24.69-83.583 54.896-95.305 61.528-59.74 33.801-128.127 12.698-178.393-28.733-13.99-11.53-81.332-67.644-41.751-149.326 12.257-25.295 13.42-13.751 67.72-84.216C137.218 44.8 206.63 30.14 245.927 40.755Z"></path><path fill="#3ca05d" d="M367.29 405.34a136.258 136.258 0 0 0 28.57-13.654c.618-.392 9.547-6.172 14.664-15.17 1.07-1.881 2.162-4.234 1.517-6.826a8.188 8.188 0 0 0-6.32-5.815c-2.146-.356-4.038.444-6.574 1.517-3.064 1.295-3.857 2.432-5.815 2.275-1.372-.11-3.186-.843-3.793-2.275-1.186-2.798 2.964-6.542 3.287-6.827 2.643-2.334 4.022-1.52 8.596-3.792a29.416 29.416 0 0 0 8.344-6.321c2.57-2.594 4.027-4.108 3.792-6.068a5.602 5.602 0 0 0-4.045-4.298c-2.658-.708-3.86 1.413-6.827.758-1.745-.385-3.769-1.658-4.045-3.287-.277-1.631 1.304-3.007 3.793-5.31 8.932-8.266 10.263-10.627 10.871-11.882.854-1.762 2.245-4.634 1.265-7.838a8.425 8.425 0 0 0-5.31-5.563c-5.362-1.537-12.623 4.375-15.423 10.367-2.339 5.006-3.792 8.849-3.792 8.849a12.552 12.552 0 0 1-3.034 4.804c-.7.673-2.292 2.202-3.54 1.77-.804-.28-.935-1.188-1.77-3.287-1.246-3.135-1.87-4.702-3.034-5.31-1.764-.921-4.505.28-6.068 1.77-2.461 2.346-2.496 5.878-2.528 9.102-.03 2.947.47 2.958 1.011 8.343a61.364 61.364 0 0 1 .253 9.102c-.285 5.926-1.247 6.766-1.77 7.08-1.276.765-2.903.179-4.804-.506a17.06 17.06 0 0 1-6.826-4.804c-2.603-2.887-2.193-3.989-3.793-5.057a6.46 6.46 0 0 0-4.626-.803 12.81 12.81 0 0 0-9.279 6.417 21.493 21.493 0 0 0-1.012 1.972c-3.882 8.634-.867 17.314.759 21.996 6.016 17.325 22.55 26.207 27.306 28.57Z"></path><path fill="#4fba75" d="M367.29 405.34s4.026-48.76 43.26-99.841l-.002-.002a8.803 8.803 0 0 1 4.025 5.028c.976 3.203-.415 6.075-1.265 7.838-.61 1.257-1.945 3.617-10.871 11.883-2.494 2.304-4.074 3.68-3.793 5.31.274 1.629 2.297 2.9 4.045 3.286 2.964.66 4.165-1.46 6.827-.758a5.614 5.614 0 0 1 4.045 4.298c.232 1.96-1.222 3.477-3.792 6.068a29.5 29.5 0 0 1-8.344 6.32c-4.579 2.276-5.955 1.462-8.596 3.793-.323.288-4.474 4.032-3.287 6.827.604 1.433 2.416 2.17 3.793 2.275 1.952.162 2.746-.976 5.815-2.275 2.535-1.068 4.424-1.868 6.573-1.517a8.195 8.195 0 0 1 6.321 5.815c.64 2.592-.45 4.944-1.517 6.827-5.12 8.996-14.046 14.776-14.664 15.17a136.047 136.047 0 0 1-28.57 13.653"></path><path fill="#4fba75" d="M370.585 387.412a38.84 38.84 0 0 1-6.301-3.364 37.49 37.49 0 0 1-5.614-4.464 22.139 22.139 0 0 1-4.28-5.78 14.056 14.056 0 0 1-1.17-3.413 12.084 12.084 0 0 1-.128-3.575 13.858 13.858 0 0 0 1.779 6.741 23.224 23.224 0 0 0 4.292 5.528 42.168 42.168 0 0 0 5.424 4.52 64.794 64.794 0 0 0 5.998 3.807ZM383.903 349.593a29.633 29.633 0 0 1-3.262-3.944 30.694 30.694 0 0 1-2.618-4.42 22.553 22.553 0 0 1-1.722-4.858 13.66 13.66 0 0 1-.184-5.12 18.506 18.506 0 0 0 .708 4.988 30.828 30.828 0 0 0 1.83 4.685 49.26 49.26 0 0 0 2.435 4.43q1.327 2.16 2.813 4.24Z"></path><path fill="#c0e2cc" d="M370.56 387.143a64.789 64.789 0 0 0 7.069.71 42.183 42.183 0 0 0 7.056-.205 23.23 23.23 0 0 0 6.79-1.698 13.857 13.857 0 0 0 5.562-4.204 12.076 12.076 0 0 1-2.308 2.733 14.052 14.052 0 0 1-3.028 1.962 22.133 22.133 0 0 1-6.935 1.903 37.498 37.498 0 0 1-7.173.045 38.835 38.835 0 0 1-7.033-1.246ZM383.438 349.173q2.453-.72 4.83-1.598a49.29 49.29 0 0 0 4.651-1.98 30.83 30.83 0 0 0 4.332-2.555 18.502 18.502 0 0 0 3.638-3.487 13.655 13.655 0 0 1-3.307 3.914 22.55 22.55 0 0 1-4.354 2.757 30.671 30.671 0 0 1-4.789 1.861 29.618 29.618 0 0 1-5.001 1.088Z"></path><path fill="#c0e2cc" d="M367.688 402.058c.496-4.125 1.29-8.21 2.16-12.273.937-4.05 1.96-8.082 3.157-12.064.595-1.992 1.165-3.993 1.861-5.952.686-1.963 1.287-3.957 2.043-5.894l2.195-5.84 2.394-5.76a215.355 215.355 0 0 1 11.19-22.284c2.005-3.644 4.303-7.113 6.52-10.627 1.087-1.772 2.345-3.431 3.534-5.134l3.605-5.08c-4.658 6.876-9.205 13.827-13.188 21.108a228.195 228.195 0 0 0-11.017 22.294 222.304 222.304 0 0 0-8.622 23.325c-1.257 3.953-2.334 7.96-3.34 11.985-.978 4.031-1.883 8.087-2.492 12.196Z"></path><path fill="#601f24" d="M348.338 455.686h46.646l12.499-50.101h-71.644l12.499 50.101z"></path><rect width="82.996" height="8.487" x="330.163" y="397.407" fill="#7a3c43" rx="4.244" transform="rotate(-180 371.661 401.65)"></rect><path fill="#104f54" d="m214.393 354.822 30.542 68.993-17.528 7.702-30.808-52.055 17.794-24.64z"></path><path fill="#0a3e3f" d="m214.393 354.822-17.794 24.64 6.606 11.162c8.172-14.516 10.024-28.907 11.863-34.278Z"></path><path fill="#f6b98a" d="M176.355 294.273s24.67 27.469 28.742 26.14c0 0 1.27 4.604 34.084-19.594 0 0 3.718 5.386 8.676 2.11l9.384-5.577s5.135 7.525 7.17 5.887c0 0 .62-4.958-10.756-16.334 0 0-.22-1.637-15.802 5.268a93.082 93.082 0 0 1-30.808 7.436s-7.87-6.108-14.16-18.768Z"></path><path fill="#104f54" d="M162.16 336.526s60.142-10.21 53.767 16.348c0 0-5.252 25.526-44.294 78.643l-15.404-7.17s22.398-45.858 23.815-58.784l-16.82.354Z"></path><path fill="#4fba75" d="m88.259 322.877-16.96-1.135a3.918 3.918 0 0 1-3.602-3.31l-6.137-39.166a3.936 3.936 0 0 1 3.136-4.48l17.054-3.263a3.912 3.912 0 0 1 4.604 3.32l6.043 43.561a3.929 3.929 0 0 1-4.138 4.473Z"></path><path fill="#874106" d="M83.459 455.553h-5.445l29.731-75.294h10.683l-34.969 75.294zM154.328 455.63l-34.543-75.371h10.683l29.804 75.371h-5.944zM232.984 326.079h139.964v10.446H232.984zM355.951 455.686h-6.07l-12.787-119.16h18.857v119.16z"></path><path fill="#f6b98a" d="M156.23 424.346s-12.923 25.337-10.916 27.58l19.87.355 2.348-6.747-8.617-2.478 6.7-14.34ZM228.983 430.825s7.703 18.15 8.176 20.983h17.059l-1.817-9.343s-5.751 1.629-13.617-15.947Z"></path><path fill="#d4fcdf" d="M179.557 446.744c-3.488-1.381-7.865-4.568-9.621-5.902a2.144 2.144 0 0 0-1.771-.383l-.495.111a2.148 2.148 0 0 0-1.506 1.244c-3.394 7.898-5.194 9.272-5.5 9.46h-18.245a2.09 2.09 0 0 0 0 4.18l43.6-.123c4.25-1.416-1.991-6.816-6.462-8.587ZM270.79 446.744c-3.482-1.38-7.852-4.558-9.613-5.896a2.165 2.165 0 0 0-1.788-.386l-.474.106a2.171 2.171 0 0 0-1.522 1.256c-3.39 7.89-5.189 9.262-5.495 9.45h-18.245a2.09 2.09 0 0 0 0 4.18h18.68a2.068 2.068 0 0 0 .68-.123h24.24c4.25-1.416-1.991-6.816-6.462-8.587Z"></path><path fill="#f6b98a" d="m173.67 213.028-16.779 12.74 4.473 25.859 8.942-13.191a15.277 15.277 0 0 1 8.194-11.76l.15-.077Z"></path><path fill="#f6b98a" d="M173.67 213.028s4.692-3.098 4.426-3.187c-.245-.081-7.7-4.069-.157-9.748a5.83 5.83 0 0 1 5.753-.882c1.899.815 3.253 2.707-.107 7.089l10.977-8.941 26.648 12.836s-6.594 6.844-9.003 12.752a6.145 6.145 0 0 0-.32 1.088l-.785 3.812a2.924 2.924 0 0 1-4.33 1.965 5.31 5.31 0 0 1-.878-.672l-.948 1.547a1.385 1.385 0 0 1-1.886.468l-4.656-2.752-2.672 4.431a1.236 1.236 0 0 1-1.932.236l-.743-.743s-6.24 3.948-14.407-5.728Z"></path><path fill="#020202" d="M216.46 215.392c-1.638-4.124-6.412-4.662-6.46-4.668l.11-1.059c.222.023 5.466.617 7.34 5.334Z"></path><ellipse cx="210.586" cy="216.835" fill="#020202" rx="2.744" ry="1.239" transform="rotate(-60 210.586 216.835)"></ellipse><path fill="#874106" d="M168.656 216.835s-25.794-28.684 13.69-56.482c0 0 29.037-14.341 43.91 14.342 0 0 23.194 2.833 14.164 24.257s-44.618 9.561-45.858-1.594c0 0-.354 6.02-10.977 8.942l-5.489 3.541Z"></path><path fill="#f6b98a" d="M183.692 199.211a5.616 5.616 0 0 0-5.484.683c-7.986 5.785-.36 9.865-.112 9.947l5.489-3.541c3.36-4.382 2.006-6.274.107-7.089Z"></path><path fill="#ed860a" d="M157.38 225.157s-2.301 13.279 12.926 13.279l24.61 39.484s-7.259 12.394-21.423 17.528l-5.666-7.967s-17.352 21.778-5.666 49.045l-60.377-3.807s-7.79-54.445 55.596-107.562Z"></path><path fill="#4fba75" d="M167.04 380.26H70.878a3.443 3.443 0 0 1-3.443-3.444v-62.5a3.443 3.443 0 0 1 4.096-3.38l96.162 18.588a3.443 3.443 0 0 1 2.79 3.38v43.912a3.443 3.443 0 0 1-3.443 3.443Z"></path><path fill="#874106" d="M256.542 455.686h-6.56v-119.16h18.856l-12.296 119.16z"></path><path fill="#139da0" d="M414.906 456.751H65.972a1.065 1.065 0 1 1 0-2.13h348.934a1.065 1.065 0 0 1 0 2.13Z"></path><path fill="#161616" d="M331.146 134.756a1.066 1.066 0 0 1-1.066-1.065V24.49a1.065 1.065 0 0 1 2.131 0v109.2a1.066 1.066 0 0 1-1.065 1.065Z"></path><circle cx="331.145" cy="179.681" r="11.628" fill="#ed860a"></circle><path fill="#139da0" d="M331.55 132.897a40.112 40.112 0 0 1 40.111 40.111v6.673h-80.224v-6.673a40.112 40.112 0 0 1 40.112-40.111Z"></path><path fill="#9f9e9f" d="M319.893 326.74H240.44a2.904 2.904 0 1 1 0-5.809h77.421l21.479-58.825a2.904 2.904 0 0 1 5.455 1.992l-22.175 60.734a2.904 2.904 0 0 1-2.727 1.908Z"></path><path fill="#63cece" d="M344.842 296.132h22.448v29.481h-22.448z"></path><path fill="#6d6d6d" d="M240.439 319.36H314.7v1.404h-74.261z"></path><path fill="#63cece" d="M369.66 318.475h-2.37v-1.555h2.37a6.508 6.508 0 1 0 0-13.015h-2.37v-1.555h2.37a8.063 8.063 0 0 1 0 16.125Z"></path><path fill="#59c1be" d="M343.011 293.469h26.074v2.663h-26.074zM310.865 191.31c-2.946 3.447-6.117 6.664-9.343 9.824-3.248 3.137-6.553 6.216-10.085 9.061 2.945-3.45 6.116-6.666 9.343-9.825 3.25-3.135 6.555-6.214 10.085-9.06ZM324.158 197.358a101.165 101.165 0 0 1-1.8 10.882 99.981 99.981 0 0 1-2.84 10.657 99.985 99.985 0 0 1 1.8-10.881 101.158 101.158 0 0 1 2.84-10.657ZM337.328 197.358a89.192 89.192 0 0 1 4.952 9.097 88.23 88.23 0 0 1 3.993 9.557 88.182 88.182 0 0 1-4.953-9.097 89.244 89.244 0 0 1-3.992-9.556ZM348.699 191.31a83.75 83.75 0 0 1 9.494 3.242 82.76 82.76 0 0 1 9.097 4.231 82.74 82.74 0 0 1-9.494-3.243 83.724 83.724 0 0 1-9.097-4.23Z"></path><path fill="none" stroke="#afafaf" stroke-miterlimit="10" d="M338.005 15.465h72.36M374.185 15.465V33.84M331.525 33.84h59.76M347.365 33.84v15.12M334.405 48.96h51.12M347.365 15.465V0M389.845 15.465V0M391.285 49.133V33.667M40.355 164.998h72.36M76.535 164.998v18.374M33.875 183.372h59.76M49.715 183.372v15.12M36.755 198.492h51.12M49.715 164.998v-15.466M92.195 164.998v-15.466M93.635 198.665V183.2M374.545 246.267h72.36M410.725 246.267v18.374M368.065 264.641h59.76M383.905 264.641v15.12M370.945 279.761h51.12M383.905 246.267v-15.466M426.385 246.267v-15.466M427.825 279.934v-15.465"></path></g></g></svg>