<svg xmlns="http://www.w3.org/2000/svg" viewBox="0 0 328.06 274.5" id="seated-forward-bend-yoga-pose"><g><g><rect width="45.97" height="45.97" x="78.18" y="52.18" fill="none" stroke="#f29494" stroke-linecap="round" stroke-linejoin="round" stroke-width="6"></rect><rect width="45.15" height="34.47" x="138.12" y="80.06" fill="none" stroke="#f29494" stroke-linecap="round" stroke-linejoin="round" stroke-width="6"></rect><rect width="45.97" height="45.97" x="196.91" y="63.68" fill="none" stroke="#f29494" stroke-linecap="round" stroke-linejoin="round" stroke-width="6"></rect><rect width="45.97" height="35.47" x="196.91" y="16.71" fill="none" stroke="#f29494" stroke-linecap="round" stroke-linejoin="round" stroke-width="6"></rect><rect width="45.97" height="62.29" x="137.29" y="3" fill="none" stroke="#f29494" stroke-linecap="round" stroke-linejoin="round" stroke-width="6"></rect><path fill="#c6f4d2" d="m133.88,274.27c-4.68.45-9.42.26-14.03-.67-18.33-3.68-35.99-11.24-50-23.53-15.92-13.96-26.69-34.42-26.51-55.59s12.36-42.45,31.69-51.11c16.88-7.56,37.02-5.01,53.64,3.12,16.72,8.19,30.7,21.86,39.27,38.39,8.56,16.53,11.66,35.84,8.7,54.22-1.15,7.11-3.25,14.25-7.58,20.01-3.87,5.15-9.3,8.87-15.29,11.35-4.24,1.75-8.76,2.75-13.33,3.18l-6.55.62Z"></path><path fill="#a59a55" d="m160.28,213.91c-4.48-26.89,7.21-55.85,29.12-72.09s53.01-19.02,77.44-6.92c12.7,6.29,23.69,16.5,29.56,29.4,5.87,12.9,6.22,28.51-.37,41.06-6.59,12.55-20.41,21.34-34.57,20.64-4.87-.24-10.13-1.45-14.35,1-3.89,2.26-5.62,7.02-6.01,11.5s.26,9.02-.29,13.48c-1.85,14.99-19.62,27.78-34.04,20.33-14.53-7.51-27.79-18.03-36.46-32.04-4.98-8.04-8.48-17.02-10.03-26.36Z"></path><g><g><path fill="#fff" stroke="#8b4747" stroke-linecap="round" stroke-linejoin="round" d="M157.18 169.62c4.47.29 8.72.05 13.13.84 7.34 1.32 22.13 9.48 28.5 2.34l10.92-1.81s3.58 5.29 3.58 5.8-2.9 16.56-2.9 16.56l-2.73 4.98s-15.87-1.9-22.02 4.58c-6.14 6.49-30.36-26.8-28.49-33.28zM287.22 212.46c-.85-8.53-5.29-7.34-5.29-7.34 0 3.58-1.71 8.36-1.71 8.36-2.56 2.05-5.63 7.68-8.88 12.46-3.24 4.78-3.96 10.01-14.34 14.85-10.37 4.84-35.5 1.71-46.08-1.19-10.58-2.9-35.84-7.85-35.84-7.85-13.79-2.83-26.56-4.66-37.19-5.83.11 3.12.26 6.24.68 9.38l-.14-1.04c.31 3.87-.2 7.37-2.14 11.02-2.18 4.13-6.34 6.8-10.66 8.2-1.63.53-3.46.72-5.3.63-.15 4.26-.23 8.53-.26 12.79 14.66-2.5 26.86-5.91 32.65-7.32 11.95-2.9 25.6 2.74 25.6 2.74 25.6 11.1 65.03 1.53 75.27-1.54 10.24-3.07 16.73 1.19 23.04 1.54 6.31.34 5.8-10.92 5.8-10.92.68-3.93 2.9-10.07 6.14-22.02 3.24-11.95-1.37-16.9-1.37-16.9z"></path><path fill="#fff" stroke="#8b4747" stroke-linecap="round" stroke-linejoin="round" d="m254.79,248.27c.13-3.34-.96-5.12-2.07-6.07-11.87,2.69-32.47-.04-41.79-2.6-10.58-2.9-35.84-7.85-35.84-7.85-13.79-2.83-26.56-4.66-37.19-5.83.11,3.12.26,6.24.68,9.38l-.14-1.04c.31,3.87-.2,7.37-2.14,11.02-2.18,4.13-6.34,6.8-10.66,8.2-1.63.53-3.46.72-5.3.63-.07,2.06-.13,4.12-.17,6.18,36.35-1.64,134.42-6.55,134.62-12.01Z"></path><path fill="#f29494" d="m187.38,197.61s3.93-11.95-6.83-19.63c-10.21-7.29-21.68-3.24-22.87-8.88,0,0-38.4-3.41-81.24,33.28,0,0,22.87,7.17,34.14,25.43,0,0,19.97.68,29.87,2.05,0,0,9.56,7.85,19.63,4.61,10.07-3.24,17.07-17.24,27.31-36.87Z"></path><path fill="#f29494" d="m180.55,177.99c-10.21-7.29-21.68-3.24-22.87-8.88,0,0-19.29-1.64-45.86,10.65-.49,7.08-.33,26.71,13.03,48.75,5.49.33,11.43.79,15.59,1.36,0,0,9.56,7.85,19.63,4.61,10.07-3.24,18.6-15.02,28.84-34.65,0,0,2.39-14.17-8.36-21.85Z"></path><g><g><path fill="#f29494" d="m235.51,180.54s.29.2.84.48c.54.29,1.34.66,2.35.83.5.08,1.06.09,1.62,0,.56-.1,1.13-.31,1.66-.64.53-.32,1.03-.76,1.47-1.25.45-.49.84-1.04,1.12-1.64.29-.59.46-1.24.57-1.91.11-.67.21-1.36.43-2.03.21-.66.6-1.28,1.07-1.7.45-.42.87-.78,1.15-1.19.28-.4.39-.84.39-1.25,0-.41-.11-.76-.22-1.04-.12-.28-.25-.48-.34-.62-.1-.13-.15-.2-.15-.2,0,0,.06.06.18.18.11.12.28.3.43.58.15.27.32.63.37,1.08.07.44-.02,1-.31,1.49-.28.49-.72.91-1.12,1.34-.4.41-.68.92-.86,1.52-.17.6-.24,1.26-.35,1.95-.11.7-.28,1.43-.62,2.1-.33.66-.76,1.27-1.26,1.79-.5.52-1.05.98-1.65,1.32-.6.35-1.26.55-1.89.62-.63.08-1.24,0-1.76-.12-1.06-.26-1.83-.75-2.34-1.09-.26-.17-.44-.33-.57-.43-.13-.11-.19-.16-.19-.16Z"></path><path fill="#f29494" d="m247.21,175.15s-.07.28-.17.76c-.11.48-.19,1.18-.32,2.02-.06.42-.14.88-.26,1.37-.11.49-.29,1-.54,1.5-.25.5-.6.99-1.03,1.39-.21.21-.44.39-.69.57-.22.15-.51.33-.78.45-.55.26-1.15.41-1.75.44-.6.02-1.18-.05-1.71-.2-1.07-.31-1.95-.83-2.65-1.33-.7-.5-1.22-.99-1.59-1.33-.36-.34-.55-.55-.55-.55,0,0,.23.17.63.46.4.29.98.69,1.71,1.11.72.41,1.6.86,2.6,1.08.98.24,2.08.18,3.03-.28.25-.12.44-.23.68-.4.21-.15.43-.31.61-.49.39-.35.69-.77.94-1.2.5-.87.73-1.83.95-2.65.21-.82.42-1.51.59-1.98.08-.24.17-.41.22-.53.05-.12.08-.19.08-.19Z"></path></g><g><path fill="#fff" stroke="#8b4747" stroke-linecap="round" stroke-linejoin="round" d="m236.79,181.19s.62,3.3-2.65,5.93c-3.27,2.63-4.73,2.88-4.61,6.23.11,3.35.13,4.98-.61,5.64,0,0-.65,1.43-2.69.16-2.04-1.27-4.02-.26-4.62,2.07,0,0-.62,1.3-2.19.37,0,0,.06,1.76-1.25,1.75-1.31,0-2.24-.61-3.07.67-.72,1.11-2.32,2.75-4.41,2.51-1.61-.18-3.2-2.04-3.23-3.66,0,0-5.42-4.51-5.64-11.13-.22-6.61,3.05-10.63,4.64-11.38,0,0-2.75-1.11-2.35-4.84.4-3.74,1.54-5.89,4.09-7.1,2.55-1.21,5.84-.91,6.45-.21.61.7,2.65,2.67,2.65,2.67l9.43.43,5.65,2.86,4.41,7.03Z"></path><path fill="#f29494" d="M230.27 174.27c-.69.4 1.67 4.08 1.91 4.37 2.31 2.74 6.76 4.41 9.9 2 4.71-3.62 3.37-10.56 1.1-15.18-2.17-4.43-6.5-9.28-10.85-11.65-2.19-1.2-4.73-1.27-7.12-1.8-3.04-.68-5.43-2.84-8.27-4-10-4.07-19.79 5.95-21.95 14.98-.21.88-.37 1.78-.5 2.68-.08.59.09 2.28-.24 2.73 0 0-4.44 6.15.95 10.74 5.39 4.59 8.91-2.24 8.92-2.27.13-.25-.05-1.07-.02-1.37.08-1.19.42-2.32.98-3.37 1.49-2.78 6.24-6.02 8.64-2.41 1.69 2.53-.55 5.96 1.4 8.35.72.87 2.3.67 2.94-.06.39-.45.61-1.02.9-1.55 1.21-2.22 3-1.89 4.95-1.27 2.1.68 4.49.14 6.35-.93zM235.08 140.9s2.65-1.79.95-5.78c-1.75-4.11-6.59-6.15-10.88-5.05-4.21 1.07-7.59 5.74-4.08 9.53 3.23 3.49 14.02 1.31 14.02 1.31z"></path><path fill="#f29494" d="m230.81,153.26c1.05-.48,1.47-1.67,1.28-2.76-.45-2.56-2.96-2.92-4.95-3.81-1.12-.5-2.05-1.38-2.66-2.44-.61-1.07-.41-2.37-.97-3.45-1.85-3.56-7.24-.19-7.83,2.61-.41,1.97.48,4.04,1.85,5.52,2.87,3.11,7.38,5.01,11.61,4.71.56-.04,1.16-.14,1.67-.37Z"></path><path fill="#f29494" d="m230.37,147.98c1.15.01,2.27-.33,3.22-1.26,2.05-2.01,2.57-5.22.47-7.39-1.39-1.44-3.2-2.48-5.21-2.69-1.65-.17-3.73.14-4.95,1.36-2.44,2.46-.69,7.28,2.14,8.69,1.34.67,2.86,1.26,4.33,1.28Z"></path><path fill="#8b4747" d="m233.62,187.21c-.1.59-.58,1.21-1.17,1.39-.67.21-.9-.25-.85-.85.07-.79.35-1.56-.03-2.32-.5-.98-1.29-1.63-2.39-1.79-1.08-.15-2.52-.39-3.1-1.44.64.21,1.31.35,1.97.42.49.05.97,0,1.46.06,1.12.14,2.17.72,2.95,1.52.43.44.78.97.99,1.56.18.49.25.99.17,1.44Z"></path><path fill="#8b4747" stroke="#8b4747" stroke-miterlimit="10" stroke-width=".25" d="m228.8,189.35s-.06.09-.21.21c-.15.12-.39.27-.73.35-.17.03-.36.06-.56.03-.2-.02-.42-.07-.61-.17-.2-.09-.39-.22-.56-.37-.19-.17-.3-.28-.47-.47-.15-.18-.27-.36-.38-.56-.12-.19-.19-.4-.26-.6-.14-.4-.16-.81-.12-1.14.04-.34.15-.6.24-.76.1-.17.18-.24.18-.24,0,0-.16.41-.09,1.01.01.15.05.3.09.47.04.16.11.33.18.49.07.17.17.33.27.49.1.16.22.33.34.47.1.14.28.33.4.43.14.13.28.25.43.33.15.09.3.16.45.2.15.04.3.06.45.06.29,0,.54-.06.71-.12.17-.06.27-.11.27-.11Z"></path></g></g><path fill="#fff" stroke="#8b4747" stroke-linecap="round" stroke-linejoin="round" d="m79.68,199.66s22.52,7.57,32.77,28.23c0,0,29.87.27,67.25,7.95,0,0,25.26,4.95,35.84,7.85,10.58,2.9,35.71,6.04,46.08,1.19,10.37-4.84,11.09-10.07,14.34-14.85,3.24-4.78,6.31-10.41,8.88-12.46,0,0,1.71-4.78,1.71-8.36,0,0,4.44-1.19,5.29,7.34,0,0,4.61,4.95,1.37,16.9-3.24,11.95-5.46,18.09-6.14,22.02,0,0,.51,11.26-5.8,10.92-6.31-.34-12.8-4.61-23.04-1.54-10.24,3.07-49.67,12.65-75.27,1.54,0,0-13.65-5.64-25.6-2.74-11.95,2.9-51.2,14.34-82.95,8.7-31.75-5.63-25.87-36.66-17.07-50.52,9.22-14.51,22.36-22.19,22.36-22.19Z"></path><path fill="#fff" stroke="#8b4747" stroke-linecap="round" stroke-linejoin="round" d="m255.82,246.6c-12.04,2.16-31.35-.45-40.28-2.91-10.58-2.9-35.84-7.85-35.84-7.85-37.38-7.68-67.25-7.95-67.25-7.95-10.24-20.67-32.77-28.23-32.77-28.23,0,0-13.14,7.68-22.36,22.19-8.81,13.86-14.68,44.89,17.07,50.52,31.75,5.63,71-5.8,82.95-8.7,11.95-2.9,25.6,2.74,25.6,2.74,25.6,11.1,65.03,1.53,75.27-1.54.64-.19,1.27-.36,1.88-.49,2.4-11.59-2.13-16.26-4.27-17.76Z"></path><path fill="#8b4747" d="m79.68,199.66s-2.77,1.62-6.65,4.77c2.5,1.16,18.25,8.86,29.69,23.91l12.12-.34-.03-.05c-1.54-.05-2.36-.05-2.36-.05-10.24-20.67-32.77-28.23-32.77-28.23Z"></path><circle cx="167.49" cy="200.17" r="20.48" fill="#fff" stroke="#8b4747" stroke-linecap="round" stroke-linejoin="round" transform="rotate(-76.58 167.477 200.174)"></circle><path fill="#fff" stroke="#8b4747" stroke-linecap="round" stroke-linejoin="round" d="m186.69,196.42s8.7,8.7,9.73,23.38c0,0,1.71,3.93,4.95,7.34,3.24,3.41,11.26,17.24,14,22.19,0,0,10.41-1.54,18.77-.51,8.36,1.02,26.45-.51,30.21-2.73,3.75-2.22,6.83-7.17,12.29-7.68,5.46-.51,11.95-2.22,13.14-4.78,0,0,2.22,1.02.68,4.27-1.54,3.24-6.66,3.58-7.85,4.78-1.19,1.19,2.05,3.07,4.27,3.75,2.22.68,3.24-.34,3.24-.34,0,0,2.22-.85,2.9,2.73,0,0,0,2.56-2.39,2.9,0,0,2.39,2.39-.51,4.61,0,0,1.37,2.22,0,3.41l-2.05,1.02s1.65.35.85,1.71c-1.19,2.05-5.29,1.88-8.19,1.88s-8.53-4.44-17.92-2.05c-9.39,2.39-31.49,10.24-44.59,11.26-13.1,1.02-11.73.34-15.15-3.24-3.41-3.58-30.55-30.38-38.23-54.96"></path><path fill="#8b4747" d="M156.66 209.22s.11 0 .31.01c.2.02.51.04.88.12.38.07.83.19 1.35.37.5.19 1.08.43 1.65.78.59.33 1.18.77 1.76 1.29.29.26.56.56.85.85.26.32.53.64.77.99.48.69.92 1.5 1.27 2.27.35.77.71 1.55 1.07 2.33.36.78.71 1.56 1.06 2.33.36.77.68 1.54 1.01 2.27.33.73.63 1.46.92 2.14.29.68.56 1.33.8 1.93.49 1.2.87 2.21 1.13 2.93.26.71.4 1.13.4 1.13 0 0-.25-.35-.67-.99-.41-.64-1-1.55-1.65-2.67-.66-1.12-1.4-2.44-2.15-3.87-.37-.72-.77-1.46-1.14-2.22-.38-.76-.75-1.55-1.11-2.33-.36-.79-.71-1.58-1.04-2.37-.16-.4-.34-.75-.49-1.11-.15-.37-.37-.68-.55-1.02-.19-.33-.43-.62-.62-.94-.23-.28-.44-.58-.68-.84-.24-.25-.47-.52-.72-.73-.12-.11-.24-.23-.36-.34-.13-.1-.25-.2-.37-.3-.48-.39-.97-.7-1.41-.97-.45-.25-.85-.46-1.19-.61-.68-.3-1.11-.42-1.11-.42zM180.72 191.98s.08.02.23.07c.15.05.37.12.65.24.27.11.6.27.97.47.36.2.77.43 1.19.73.21.15.43.3.66.46.22.17.44.35.67.53.46.36.91.79 1.37 1.23.22.23.45.46.68.7.23.23.46.48.67.74.43.51.87 1.03 1.27 1.58.4.55.8 1.1 1.15 1.67.37.56.71 1.12 1.01 1.68.3.56.6 1.09.85 1.62.25.53.47 1.03.67 1.49.22.46.38.89.51 1.28.14.39.26.73.36 1 .19.56.29.88.29.88 0 0-.18-.29-.48-.8-.15-.26-.32-.56-.52-.92-.2-.36-.42-.76-.68-1.19-.26-.43-.54-.89-.82-1.39-.29-.49-.63-.99-.95-1.52-.31-.54-.7-1.05-1.06-1.6-.35-.55-.75-1.08-1.14-1.61-.37-.55-.8-1.05-1.2-1.56-.4-.51-.84-.98-1.23-1.45-.43-.44-.82-.9-1.23-1.29-.2-.2-.4-.39-.59-.57-.2-.18-.39-.35-.58-.52-.37-.33-.73-.61-1.04-.86-.32-.24-.61-.46-.85-.62-.24-.16-.44-.29-.57-.37-.14-.08-.21-.12-.21-.12zM209.05 254.11s.06-.14.2-.38c.14-.24.37-.59.73-.98.35-.4.82-.83 1.4-1.29.3-.21.62-.44.96-.67.36-.2.73-.43 1.14-.63.41-.18.84-.41 1.29-.58.46-.16.93-.35 1.43-.5.5-.14 1.02-.28 1.54-.42.54-.1 1.08-.21 1.64-.32 1.12-.15 2.28-.33 3.46-.35 1.18-.09 2.39-.04 3.59-.03 1.19.06 2.38.11 3.54.17 1.17.06 2.32.12 3.43.18 2.22.13 4.3.25 6.08.36 3.56.22 5.93.37 5.93.37 0 0-.59.06-1.63.1-1.04.04-2.53.1-4.31.11-1.79.02-3.87 0-6.1-.04-1.11-.03-2.27-.05-3.44-.1-1.17-.04-2.36-.09-3.54-.13-1.17-.02-2.35-.08-3.5 0-1.16.02-2.28.14-3.38.25-.54.08-1.07.17-1.6.25-.51.11-1.02.23-1.51.33-.49.12-.95.28-1.4.41-.45.14-.87.32-1.28.47-.41.16-.77.37-1.14.53-.35.19-.68.38-.99.56-.6.39-1.1.76-1.47 1.12-.38.35-.65.65-.82.87-.17.22-.25.35-.25.35zM90.78 232.26s.23-.23.75-.55c.51-.32 1.29-.77 2.35-1.19 2.1-.87 5.24-1.78 9.1-2.35 3.85-.58 8.4-.9 13.26-.89 2.43 0 4.94.07 7.49.2 2.54.15 5.13.33 7.7.58 1.29.12 2.57.27 3.85.42 1.28.14 2.55.31 3.82.47 2.52.32 4.99.63 7.39.93 4.8.62 9.27 1.27 13.1 1.9 1.91.3 3.66.62 5.21.91 1.55.29 2.89.56 4 .8.55.11 1.04.24 1.47.34.43.1.79.19 1.08.29.58.17.89.26.89.26 0 0-.32-.06-.91-.18-.59-.13-1.47-.24-2.58-.42-1.12-.17-2.47-.34-4.03-.53-1.56-.18-3.32-.38-5.24-.6-3.84-.42-8.33-.9-13.14-1.43-1.2-.13-2.42-.26-3.66-.39-.62-.06-1.24-.13-1.87-.19-.66-.07-1.26-.15-1.89-.23-1.26-.16-2.52-.31-3.8-.45-1.27-.14-2.55-.28-3.83-.39-2.56-.27-5.12-.46-7.64-.63-2.52-.14-5.01-.29-7.42-.33-2.41-.04-4.73-.06-6.94.02-2.2.08-4.28.2-6.2.39-1.91.2-3.66.45-5.19.75-1.53.3-2.85.65-3.92 1.01-1.06.36-1.88.71-2.41.99-.54.28-.79.48-.79.48z"></path></g><path fill="#8b4747" d="M53.97 245.63c1.47 6.3 4.07 12.26 7.68 17.63-4.46-4.75-7.23-11.13-7.68-17.63h0zM61.31 224.62c.97-3.36 3.21-6.41 6.15-8.32-2.24 2.71-4.22 5.38-6.15 8.32h0zM100.31 234.9c7.72-4.12 17.54-4.29 25.4-.41-8.2-2.87-17.29-2.72-25.4.41h0zM110.71 269.42c3.65.07 7.07-.39 10.57-1.44-3.04 2.01-7.11 2.56-10.57 1.44h0zM163.11 259c6.06-1.12 12.63.33 17.65 3.91-5.51-2.64-11.54-3.98-17.65-3.91h0zM181.85 241.01c2.16 2.79 4.26 5.41 6.49 8.15-2.92-1.96-5.23-4.86-6.49-8.15h0zM205.3 269.08c2.13 2.09 4.76 3.16 7.75 3.15-2.81 1.17-6.55-.36-7.75-3.15h0zM269.36 258.7c2.67-.99 6.05-.02 7.79 2.23-2.47-1.41-4.96-2.12-7.79-2.23h0zM283.83 222.86c1.4-1.51 2.14-3.08 2.41-5.12.9 1.92-.36 4.59-2.41 5.12h0zM178.79 196.18c6.23 1.8 11.09 7.8 11.56 14.26-1.53-6.18-5.83-11.48-11.56-14.26h0zM83.92 257.25c-2.25 2.25-.32 6.05 2.74 5.37.65-.14 1.33-.5 2.16-.59 2.56-.22 4.04 2.4 4.63 4.45-.74-1.26-1.47-2.6-2.67-3.3-1.35-.88-2.52-.27-3.96.17-3.69.81-5.97-3.92-2.91-6.1h0z"></path></g><line x1="327.56" x2=".5" y1="274" y2="274" fill="none" stroke="#8b4747" stroke-linecap="round" stroke-linejoin="round"></line></g></g></svg>