<svg xmlns="http://www.w3.org/2000/svg" viewBox="0 0 328.69 256.34" id="warrior-1-yoga-pose"><g><g><path fill="#c6f4d2" d="m234.55,256.34h-29.88c-10.25-1.09-20.81-2.55-30.02-7.18-9.21-4.64-16.98-13.57-17.2-23.88-.14-6.38,2.56-12.47,5.7-18.03,18.25-32.28,54.24-53.76,91.32-54.47,10.14-.2,21.03,1.37,28.52,8.22,7.42,6.78,10,17.49,9.92,27.54-.14,16.5-6.66,32.87-17.9,44.94-11.25,12.08-23.96,22.86-40.46,22.86Z"></path><path fill="#a59a55" d="m60.37,240.84c-14.3-11.22-24.14-27.99-26.94-45.95-2.2-14.06-.07-28.96,7.07-41.28,7.14-12.32,19.46-21.78,33.46-24.34,14-2.56,29.4,2.27,38.59,13.13,13.19-4.18,27.28-6.92,40.84-4.2,13.56,2.72,26.5,11.87,30.51,25.11,3.46,11.41-.05,23.8-5.27,34.52-8.1,16.62-20.53,31.04-35.53,41.8-7.56,5.43-15.79,9.93-24.46,13.33-3.72,1.46-7.5,3.16-11.52,3.33-5.11.21-10.32-.32-15.34-1.27-11.39-2.17-22.28-7.02-31.4-14.18Z"></path><line x1="328.19" x2=".5" y1="255.84" y2="255.84" fill="none" stroke="#8b4747" stroke-linecap="round" stroke-linejoin="round"></line><g><line x1="251.17" x2="251.17" y1="150.28" y2="255.84" fill="none" stroke="#8b4747" stroke-linecap="round" stroke-linejoin="round"></line><line x1="277.55" x2="296.08" y1="150.28" y2="255.84" fill="none" stroke="#8b4747" stroke-linecap="round" stroke-linejoin="round"></line><line x1="207.15" x2="225.68" y1="255.84" y2="150.28" fill="none" stroke="#8b4747" stroke-linecap="round" stroke-linejoin="round"></line><rect width="68.38" height="7.94" x="217.23" y="143.93" fill="#f7bfbf" rx="1.48" ry="1.48"></rect></g><g><circle cx="225.85" cy="30.15" r="29.65" fill="#f7bfbf" stroke="#8b4747" stroke-linecap="round" stroke-linejoin="round"></circle><circle cx="225.85" cy="30.15" r="22.24" fill="#fff" stroke="#8b4747" stroke-linecap="round" stroke-linejoin="round"></circle><line x1="214.55" x2="223.14" y1="41.03" y2="33.03" fill="#fff" stroke="#8b4747" stroke-linecap="round" stroke-linejoin="round"></line><line x1="225.85" x2="225.85" y1="26.68" y2="12.09" fill="#fff" stroke="#8b4747" stroke-linecap="round" stroke-linejoin="round"></line></g><g><polygon fill="none" stroke="#8b4747" stroke-linecap="round" stroke-linejoin="round" points="241.65 143.93 229.36 143.93 227.4 121.44 243.61 121.44 241.65 143.93"></polygon><polygon fill="#f7bfbf" points="239.69 142.24 231.32 142.24 229.99 128.72 241.03 128.72 239.69 142.24"></polygon><path fill="none" stroke="#8b4747" stroke-linecap="round" stroke-linejoin="round" d="m271.96,143.8h-23.88l3.09-33.76s-3.97-3.88-.56-4.59h19.24l2.12,38.35Z"></path><path fill="#8b4747" d="m251.17,109.54l14.12.5-14.12.5c-.68.02-.68-1.02,0-1h0Z"></path><g><path fill="#fff" d="m271.38,131.93c-.09,0-.18-.02-.26-.07-.11-.07-.2-.18-.23-.31l-.24-.97c-.07-.27.1-.54.36-.61,3.88-.97,6.59-4.46,6.59-8.48v-9.57h-7.46c-.28,0-.5-.22-.5-.5v-1c0-.28.22-.5.5-.5h8.96c.28,0,.5.22.5.5v11.07c0,4.94-3.33,9.22-8.11,10.42-.04,0-.08.01-.12.01Z"></path><path fill="#8b4747" d="m279.11,110.42v11.07c0,4.71-3.18,8.79-7.73,9.94l-.24-.97c4.1-1.03,6.97-4.72,6.97-8.97v-10.07h-7.96v-1h8.96m0-1h-8.96c-.55,0-1,.45-1,1v1c0,.55.45,1,1,1h6.96v9.07c0,3.79-2.56,7.08-6.21,8-.54.13-.86.68-.73,1.21l.24.97c.06.26.23.48.46.62.16.09.33.14.51.14.08,0,.16,0,.24-.03,5-1.25,8.49-5.74,8.49-10.91v-11.07c0-.55-.45-1-1-1h0Z"></path></g><polygon fill="#f7bfbf" points="269.69 141.17 250.23 141.17 251.09 128.72 268.84 128.72 269.69 141.17"></polygon></g><g><g><path fill="#fff" stroke="#8b4747" stroke-linecap="round" stroke-linejoin="round" stroke-width=".98" d="M141.2 69.1c.2.03 2.64-7.08 3.01-7.92 1.15-2.58 2.46-5.08 3.92-7.49 3.23-5.34 7.37-9.73 11.39-14.44 1.58-1.85 3.05-4.22 5.21-5.41 2.5-1.38 5.55-1.96 8.38-2.15l-22.29 38.8-9.63-1.38zM68.69 236.81c.24-.92.92-3.29 1.72-6.55-2.18.14-4.35.25-6.54.13-2.6-.14-5.3-.56-7.64-1.72.11 6.66-.71 12.1-4.06 14.33-5.57 3.71-12.79 6.4-16.1 8.05 0 0-3.3-.21-3.92.62-.62.83-.83 4.33 8.25 3.92 9.08-.41 16.1-1.65 21.87-.62 5.78 1.03 9.7 0 9.08-4.33-.62-4.33-3.71-9.91-2.68-13.83z"></path><path fill="#fff" stroke="#8b4747" stroke-linecap="round" stroke-linejoin="round" stroke-width=".98" d="M112.86 177.65s-44.37-21.12-54.27-8.53c-8.3 10.54-4.33 32.81-3.3 45.19.47 5.6 1.02 11.25.97 16.09 2.2.86 7.87 2.7 13.73 1.6 2.57-9.99 7.36-31.77 2.02-42.46.02.04 1.21.2 1.31.23 1.4.38 2.7 1.2 3.88 2.02 15.32 10.61 33.06 22.76 52.59 21.76 2.48-.13 3.49.31 5.78-.69 16.51-7.22-22.7-35.22-22.7-35.22zM131.5 110.97c-.14.69-1.09 2.58-1.38 3.19 1.14.34 3.18-.92 4.26-.81 2.6.27 5.21.58 7.82.75 2.22.14 4.5.21 6.73-.03-1.92-8.1-4.55-16-3.47-20.89l-17.47 1.1 1.93 4.95c1.4 3.61 2.39 7.89 1.59 11.74z"></path><path fill="#f29494" d="m140.92,162.52c.65-2.67,1.45-5.26,2.31-7.82-.31.06-.62.13-.94.19-3.25.65-6.57.76-9.88.81-6.89.11-13.76-.44-20.58-1.39-.05,0-.09-.01-.13-.02-.67,7.84-.95,15.83-.39,23.66,2.04,1.17,4.59,1.3,6.88,1.34,2.63.04,5.27-.09,7.9-.2,3.37-.15,6.73-.55,9.99-1.42,1.67-.45,3.3-1.03,4.91-1.66.43-.17.86-.35,1.29-.53-1.86-4.02-2.42-8.65-1.37-12.95Z"></path><path fill="#fff" stroke="#8b4747" stroke-linecap="round" stroke-linejoin="round" stroke-width=".98" d="m290.19,250.43s-3.03-4.95-7.98-6.05c-4.95-1.1-8.81-2.48-10.18-5.5-1.38-3.03-7.98-7.29-10.59-2.75-2.61,4.54-5.78,3.44-13.35,2.89-.61-.04-1.36-.14-2.2-.27.5.99.77,2.08.92,3.24.29,2.23.39,4.48.28,6.72-.04.79-.1,1.57-.18,2.35,2.37-.17,4.22-.25,5.46-.2,6.74.28,15.96,2.06,22.15,3.3,6.19,1.24,17.47.41,18.57-.96,1.1-1.38-.55-3.03-2.89-2.75Z"></path><path fill="#fff" stroke="#8b4747" stroke-linecap="round" stroke-linejoin="round" stroke-width=".98" d="m201.05,237.4c-2.67.99-5.64.77-8.09-.66-2.02-1.18-4.31-3.01-6.22-5.84-4.54-6.74-19.95-20.22-21.74-22.98-.72-1.11-.55-2.97-.65-4.22-.19-2.48-.46-4.96-1.13-7.36-1.18-4.24-3.72-7.91-7.26-10.52-3.71-2.75-9.06-3.27-11.81-7.13-.93-1.3-1.69-2.71-2.29-4.19-10.09,5.12-25.78,3.18-30.62,2.42.12,1.89.28,3.78.5,5.65.97,8.25,3.73,16.44,8.77,23.12,4.31,5.71,10.53,8.86,15.41,13.91,9.71,10.04,18.86,20.77,30.72,28.4,7.48,4.81,16.13,8.33,25.17,7.81,24.29-1.4,46.1-4.19,56.26-4.83,1.3-5.83.15-9.8-.96-12.05-8.1-.98-30.65-7.24-46.08-1.51Z"></path><path fill="#ee988e" d="m137.89,107.76s.03-.04.09-.11c.05-.07.13-.18.24-.31.2-.27.48-.66.81-1.14.16-.24.33-.5.51-.78.18-.27.35-.58.54-.88.17-.31.36-.63.53-.96.17-.33.35-.67.5-1.01.08-.17.16-.34.25-.51.07-.17.14-.35.21-.52.07-.17.15-.34.21-.51.06-.17.12-.34.18-.51.06-.17.12-.33.17-.5.05-.16.1-.33.14-.48.05-.16.09-.31.14-.46.04-.15.07-.29.11-.43.06-.28.13-.53.18-.76.04-.23.08-.43.11-.6.06-.33.11-.52.11-.52,0,0,0,.19.02.53,0,.17,0,.38,0,.62-.01.24-.04.5-.07.8-.02.15-.03.3-.05.46-.03.16-.06.32-.1.48-.03.17-.07.34-.1.51-.03.17-.1.34-.14.52-.1.35-.2.72-.36,1.08-.07.18-.14.36-.21.54-.08.18-.16.36-.24.54-.16.36-.36.7-.54,1.04-.09.17-.19.33-.29.49-.1.16-.2.32-.3.47-.21.3-.41.59-.62.85-.1.13-.21.26-.3.38-.1.12-.2.23-.3.34-.19.22-.38.41-.55.58-.17.17-.32.31-.45.42-.13.11-.23.2-.3.26-.07.06-.11.09-.11.09Z"></path><path fill="#8b4747" d="m144.57,179.21c-.14-.17-.28-.34-.41-.53-.93-1.3-1.69-2.71-2.29-4.19-10.09,5.12-25.78,3.18-30.62,2.42.12,1.89.28,3.78.5,5.65,0,0,14.08,4.78,32.83-3.35Z"></path><path fill="#f29494" d="m149.73,131.01c-3.35,3.19-8.47,2.16-11.97-.31-4.2-2.96-5.55-7.72-4.95-12.64.22-1.77.72-3.48,1.58-5.1l2.35-3.24c.19-.2.4-.41.61-.61.59-.4,1.53-.44,2.41-.88.89-.45,1.2-3.96.48-3.03-.72.93-4.68,4.2-4.68,4.2v.04c-4.02,3.23-10.64,8.57-13.62,11.07-6.27,5.25-17.31,10.98-14.61,20.98.74,2.73,2.35,5.16,4.21,7.26.21.23.43.47.63.69,0,0,.06.03.18.08-.07.14-.15.27-.23.4-.2,1.98-.39,3.97-.55,5.97,3.45,1.05,14.25,3.6,31,.79,2.79-8.78,6.55-17.04,7.88-26.52-.24.31-.48.59-.73.84Z"></path><g><g><path fill="#f29494" d="m129.86,75.53s-.06-.02-.17-.07c-.11-.05-.27-.12-.47-.22-.2-.11-.43-.24-.69-.42-.25-.19-.54-.41-.79-.71-.25-.3-.49-.66-.66-1.09-.17-.43-.27-.91-.25-1.41.05-1,.37-2.03,1-2.91.31-.44.72-.8,1.13-1.1.4-.31.81-.57,1.13-.88.32-.31.55-.66.68-1.06.14-.4.26-.82.48-1.16.21-.35.54-.6.84-.7.3-.12.59-.14.81-.13.23,0,.4.05.52.08.11.04.17.06.17.06,0,0-.06-.01-.18-.03-.12-.01-.29-.03-.51-.01-.21.02-.48.07-.74.21-.26.14-.5.36-.67.67-.17.32-.25.71-.37,1.14-.11.44-.37.9-.72,1.26-.35.36-.76.66-1.15.96-.39.29-.74.62-1.02,1.01-.29.39-.51.82-.67,1.27-.17.45-.27.91-.31,1.36-.08.9.24,1.73.69,2.31.45.58.95.98,1.32,1.22.36.25.59.37.59.37Z"></path><path fill="#f29494" d="m129.36,66.25s-.03.04-.09.12c-.06.08-.14.19-.27.32-.24.27-.61.64-1.07,1.04-.45.41-.98.89-1.37,1.5-.19.31-.36.64-.45,1-.05.18-.08.37-.11.56-.03.21-.03.37-.03.57.02.76.36,1.48.84,2.03.47.56,1.05.98,1.56,1.3.51.32.96.56,1.29.72.32.16.5.25.5.25,0,0-.2-.05-.54-.17-.34-.12-.83-.29-1.38-.57-.55-.29-1.18-.67-1.74-1.24-.28-.29-.52-.64-.71-1.03-.18-.39-.29-.83-.31-1.26-.01-.21,0-.46.02-.65.03-.22.07-.43.13-.63.11-.41.31-.8.54-1.13.47-.67,1.07-1.1,1.56-1.47.49-.37.91-.66,1.18-.89.27-.23.43-.36.43-.36Z"></path></g><g><path fill="#fff" stroke="#8b4747" stroke-linecap="round" stroke-linejoin="round" stroke-width=".98" d="m129.02,74.94s-2.32.72-2.89,3.69c-.58,2.97-.25,3.99-2.42,5.04-2.18,1.05-3.22,1.6-3.39,2.29,0,0-.69.9.81,1.77,1.5.87,1.52,2.48.24,3.65,0,0-.62.83.5,1.52,0,0-1.14.55-.7,1.39.44.83,1.14,1.23.61,2.19-.47.84-.97,2.4-.12,3.66.66.96,2.38,1.36,3.42.83,0,0,4.7,1.94,9-.14,4.3-2.08,5.76-5.52,5.7-6.79,0,0,1.63,1.38,3.88-.13,2.25-1.51,3.24-2.96,3.16-5-.08-2.03-1.38-4.03-2.04-4.19-.65-.16-2.6-.79-2.6-.79l-3.45-5.88-3.73-2.64-5.97-.45Z"></path><path fill="#f29494" d="M135.63 76.77c-.02.58-3.17.31-3.44.25-2.53-.56-5.09-2.83-4.61-5.64.73-4.23 5.61-5.7 9.32-5.81 3.55-.11 8.11 1.03 11.09 3.01 1.5 1 2.4 2.6 3.55 3.94 1.45 1.71 3.64 2.51 5.34 3.93 5.96 5.01 2.86 14.64-2.18 19.05-.49.43-1.01.84-1.54 1.22-.35.25-1.49.71-1.66 1.07 0 0-2.43 4.91-7.18 3.01-4.74-1.89-1.57-6.44-1.56-6.46.12-.17.7-.33.88-.45.73-.45 1.34-1.05 1.82-1.76 1.27-1.89 1.74-6.01-1.37-6.33-2.18-.23-3.62 2.36-5.8 1.92-.8-.16-1.2-1.24-.95-1.9.15-.4.45-.74.69-1.1 1.01-1.52.2-2.55-.86-3.58-1.14-1.12-1.6-2.82-1.55-4.37zM155.31 62.47s.25-2.3 3.37-2.55c3.21-.26 6.14 2.14 6.89 5.25.73 3.05-1.11 6.78-4.71 5.81-3.32-.89-5.55-8.51-5.55-8.51z"></path><path fill="#f29494" d="m148.86,69.35c-.05-.83.57-1.5,1.33-1.75,1.78-.57,2.86.9,4.1,1.87.7.54,1.57.85,2.45.87.89.03,1.65-.54,2.53-.54,2.9-.02,2.56,4.56.97,5.88-1.12.93-2.74,1.05-4.15.68-2.95-.78-5.68-3.03-6.91-5.83-.16-.37-.3-.79-.33-1.19Z"></path><path fill="#600a37" d="m152.38,67.86c-.4-.73-.56-1.56-.28-2.48.59-1.99,2.47-3.4,4.56-2.79,1.39.4,2.66,1.21,3.47,2.42.66,1,1.17,2.43.79,3.62-.75,2.39-4.41,2.89-6.27,1.56-.88-.63-1.77-1.4-2.27-2.33Z"></path><path fill="#8b4747" d="M126.24 78.99c-.34.27-.58.78-.49 1.21.09.5.46.49.83.26.48-.31.87-.75 1.49-.76.79-.01 1.47.27 1.94.92.46.63 1.1 1.48 1.96 1.5-.35-.34-.66-.72-.93-1.11-.2-.29-.33-.62-.53-.91-.47-.67-1.19-1.14-1.96-1.37-.43-.13-.88-.17-1.33-.11-.37.05-.72.18-.98.38zM126.49 82.79s0 .08.02.21c.02.13.07.31.16.49.05.09.11.18.19.26.08.08.17.16.28.22.11.07.23.11.36.16.11.04.29.09.41.11.55.12 1.12.08 1.52-.09.4-.15.61-.4.61-.4 0 0-.02.08-.09.19-.07.12-.2.28-.41.41-.2.14-.47.26-.77.31-.3.05-.63.04-.95-.02-.18-.04-.29-.07-.46-.14-.15-.06-.3-.14-.42-.24-.26-.19-.43-.46-.49-.7-.06-.24-.05-.45-.02-.58.03-.14.06-.21.06-.21zM141.69 88.12s.05-.13.23-.32c.17-.18.49-.41.95-.46.22-.03.48-.02.73.05.26.08.5.17.76.4.09.1.18.18.27.3.08.14.19.28.23.43.11.29.17.6.16.9 0 .15 0 .3-.04.45-.02.15-.05.29-.09.43-.03.14-.08.28-.15.41-.05.13-.12.26-.19.38-.07.12-.14.24-.23.34-.08.11-.17.21-.26.29-.18.18-.39.32-.59.42-.11.04-.2.09-.3.12-.1.01-.2.03-.29.04-.18.02-.34-.02-.46-.03-.24-.09-.37-.14-.37-.14 0 0 .14.01.38.04.12-.02.26-.01.42-.06.07-.03.15-.05.24-.08.08-.04.16-.09.24-.14.16-.11.32-.25.46-.42.08-.08.14-.18.2-.28.07-.1.13-.2.18-.31.06-.11.11-.22.15-.34.05-.12.08-.24.11-.36.04-.12.06-.25.07-.38.02-.13.03-.25.02-.38.01-.25-.04-.5-.11-.73-.03-.12-.1-.19-.14-.3-.06-.1-.17-.2-.24-.3-.13-.12-.35-.27-.54-.34-.2-.08-.41-.11-.6-.12-.39 0-.71.11-.9.25-.09.07-.17.13-.22.17-.05.05-.07.07-.07.07z"></path></g></g><path fill="#fff" stroke="#8b4747" stroke-linecap="round" stroke-linejoin="round" stroke-width=".98" d="m162.66,35.4s.96-7.02,6.19-10.04c0,0,5.23-7.02,7.7-5.37,0,0,2.75-4.13,4.4-2.48,0,0,1.51-1.65,2.48-1.1.96.55-.28,2.75-.28,2.75,0,0,1.24.83.41,2.61-.83,1.79-2.06,4.68-3.99,7.84-1.93,3.16-3.16,6.6-3.16,6.6,0,0,6.33-3.85,9.08-.28,0,0-1.93.28-4.13,1.65-2.2,1.38-7.02,4.26-11.69,3.99,0,0-1.93,3.71-3.03,7.98-1.1,4.26-3.3,12.66-5.37,17.33-2.06,4.68-4.68,21.6-4.4,27.24.28,5.64-1.38,31.37-7.15,36.87-7.93,7.55-19.39-.97-18.86-10.56.47-8.46,9.01-11.75,11.23-19.21,1.94-6.52,1.03-13.43,2.4-20.03,1.51-7.29,3.71-22.43,8.94-29.85,5.23-7.43,9.22-15.96,9.22-15.96Z"></path></g><path fill="#8b4747" d="M144.59 188.19c6.87.24 10.36 7.5 11.79 13.35-.68-1.42-1.29-2.87-1.99-4.27-1.97-4.11-5.07-8.18-9.8-9.09h0zM146.96 226.16c4.3 3.6 7.91 8.06 12.96 10.69-5.51-1.72-9.39-6.4-12.96-10.69h0zM192.65 239.21c2.52 2.67 6.57 2.8 9.25.29-1.87 3.49-7.6 3.31-9.25-.29h0zM244.24 240.86c2.38 1.88 2.97 5.8 1.25 8.3.66-2.91.24-5.71-1.25-8.3h0zM263.09 238.96c.91-1.98 4.27-2.03 5.23-.08-1.72-.98-3.55-.96-5.23.08h0zM285.26 252.49c1.69-.97 4.14-.49 5.35 1.04-1.84-.65-3.4-.95-5.35-1.04h0zM83.84 192.82c5.59 4.11 11.52 7.94 18.33 9.63-7.04-.68-13.39-4.74-18.33-9.63h0zM76.44 168.56c4.35-1.58 9.77-.17 12.79 3.34-3.75-2.67-8.21-3.84-12.79-3.34h0zM57.19 182.58c-1.47-3.32-.29-7.74 2.63-9.88-2.11 2.91-3.02 6.3-2.63 9.88h0zM70.29 210.72c1.29 4.2.61 9.08-1.8 12.77 1.46-4.16 2.05-8.37 1.8-12.77h0zM58.31 228.53c3.44 1.35 6.86 2.08 10.55 2.24-3.57.89-7.64.02-10.55-2.24h0zM65.6 252.59c.77.77 2.09.43 2.63-.34.55-.8.51-1.94.3-3.09.37.46.63 1.03.71 1.64.09.61-.03 1.3-.41 1.85-.71 1.11-2.79 1.28-3.24-.07h0zM134.53 119.8c-1.01-2.95 1.45-5.65 3.36-7.55 2.02-1.99 3.43-4.43 4.15-7.18-.07 1.43-.47 2.85-1.09 4.16-1.58 3.9-6.88 5.89-6.42 10.57h0zM148.22 74.57c.13-4.35 1.5-8.69 3.89-12.33-1.48 4.1-2.75 8.12-3.89 12.33h0zM153.7 104.47c.43-4.59.66-9.05.73-13.65.95 4.5.69 9.28-.73 13.65h0zM164.35 36.6c.26-3.16 2.27-6.21 5.08-7.69-2.16 2.33-3.79 4.79-5.08 7.69h0zM170.32 39.85c1.97-.09 3.57-.45 5.39-1.21-1.15 1.62-3.66 2.18-5.39 1.21h0z"></path><path fill="#fff" d="M113.57 150.8c5.25.58 10.6-1.23 14.43-4.87-3.09 4.44-9.28 6.52-14.43 4.87h0zM138.9 159.23c-1.37 3.75-1.7 7.59-1 11.52-1.72-3.6-1.31-8.27 1-11.52h0z"></path></g></g></g></svg>