<svg xmlns="http://www.w3.org/2000/svg" viewBox="0 0 321.85 267.5" id="warrior-3-yoga-pose"><g><g><path fill="#c6f4d2" d="m220.44,153.08c9.86-10.26,22.96-17.35,36.93-20,6.7-1.27,13.67-1.54,20.3.07,6.63,1.61,12.89,5.19,17.02,10.62,7.26,9.57,6.79,22.84,4.72,34.68-5.91,33.84-23.48,64.6-47.6,89.07h-103.41c-12.95-5.87-25.28-13.67-34.07-24.84-8.8-11.17-14.21-25.28-13.64-39.48.57-14.21,7.53-28.34,19.3-36.31,7.06-4.78,15.46-7.22,23.87-8.67,12.34-2.13,25.43-2.18,36.92,2.78,5.26,2.27,10.05,5.69,13.84,9.98,4.01,4.53,4.92,10.3,8.14,14.88,3.79-12.29,8.62-23.34,17.69-32.77Z"></path><path fill="#a59a55" d="m43.05,192.99c1.97-1.2.94-4.98.76-9.34-.17-4.2-.26-8.4-.17-12.59.17-8.07.97-16.16,2.95-24,1.03-4.08,2.49-8.27,5.57-11.14,3.6-3.36,8.95-4.35,13.81-3.53s9.29,3.24,13.36,6.01c18.5,12.57,31.08,32.94,36.02,54.75,4.94,21.82,2.56,44.94-4.79,66.06-.74,2.12-1.59,4.32-3.27,5.8-3.04,2.67-7.6,2.18-11.63,1.94-12.09-.71-24.54,2.3-36.17-1.07-10.01-2.9-18.06-10.16-25.95-16.96-9.9-8.54-20.22-16.79-28.17-27.16-2.23-2.9-4.3-6.05-5.06-9.63-1.76-8.29,4.38-16.77,12.23-19.94,7.86-3.17,16.82-2.05,24.91.46,2.91.9,4.63.94,5.6.34Z"></path><line x1="321.35" x2="19.23" y1="267" y2="267" fill="none" stroke="#8b4747" stroke-linecap="round" stroke-linejoin="round"></line><g><path fill="#fff" stroke="#8b4747" stroke-linecap="round" stroke-linejoin="round" d="m247.98,99.98c-3.58-1.68-5.74-5.57-6.24-9.49s.41-7.88,1.6-11.65c4.76-15.18,14.02-28.84,25.95-39.37,3.22-2.84,6.71-5.51,10.75-6.97,4.04-1.46,8.74-1.58,12.48.52,3.75,2.1,6.19,6.71,5.01,10.85-.68,2.4-2.41,4.34-4.09,6.19s-3.04,3.38-4.62,5.15c-4.7.44-10.07.84-14.77,1.28,3.24.74,6.46,1.42,9.7,2.16-4.09,4.89-7.59,11.08-10.52,16.75-2.88,5.57-5.2,11.52-9.11,16.42-3.91,4.9-10.45,10.84-16.13,8.18Z"></path><path fill="#8b4747" d="m281.77,46.09c-17.41,10.27-26.27,29.88-30.93,48.79-1.62,6.39-2.91,12.87-4.19,19.35-.05.27-.32.45-.59.39-.27-.05-.45-.32-.39-.59,5.09-25.19,12.24-54.12,36.1-67.94h0Z"></path><path fill="#fff" stroke="#8b4747" stroke-linecap="round" stroke-linejoin="round" d="m237.33,34.81c-2.84-.9-6.19-1.63-9.02-2.53-.16,11.23.47,22.48,1.88,33.63.35,2.77.76,5.58,1.94,8.11,1.18,2.53,3.26,4.78,5.95,5.52,3.77,1.04,7.84-1.17,10.14-4.33,2.3-3.16,3.2-7.11,3.96-10.94,3.42-17.18,5.15-35.3-.24-51.96-1.1-3.4-2.57-6.83-5.23-9.21s-6.77-3.46-9.89-1.72c-2.52,1.41-3.85,4.25-4.83,6.97-2.17,6.1-3.35,12.55-3.45,19.02,2.87,2.31,5.92,5.15,8.79,7.46Z"></path><g><path fill="#fff" stroke="#8b4747" stroke-linecap="round" stroke-linejoin="round" d="m249.42,123.54c2.73,2.92,4.35,7.03,4.25,11.02-.19,7.38-6.28,14.9-13.95,14.52-7.25-.35-12.39-7.6-12.52-14.34-.09-4.33,1.87-8.76,5.01-11.72"></path><path fill="none" stroke="#8b4747" stroke-linecap="round" stroke-linejoin="round" d="m249.36,123.68c1.17-2.86,2.34-6.22,3.51-9.08h-24.35c1.19,2.67,2.27,5.69,3.46,8.36"></path><path fill="#8b4747" d="m232.05,122.46c.34.04.59.27.86.35,0,0-.07,0-.07,0l11.12.46s-11.12.46-11.14.46c-.34,0-.64-.24-.92-.28-.67-.08-.52-1.11.15-.99h0Z"></path></g><line x1="240.43" x2="240.43" y1="154.95" y2="267" fill="none" stroke="#8b4747" stroke-linecap="round" stroke-linejoin="round"></line><line x1="266.81" x2="285.34" y1="154.95" y2="267" fill="none" stroke="#8b4747" stroke-linecap="round" stroke-linejoin="round"></line><line x1="196.41" x2="214.94" y1="267" y2="154.95" fill="none" stroke="#8b4747" stroke-linecap="round" stroke-linejoin="round"></line><path fill="#fff" stroke="#8b4747" stroke-linecap="round" stroke-linejoin="round" d="m204.68,50.41c-2.82.59-5.72,1.01-8.54,1.6,2.13,3.17,4.34,6.22,6.37,9.46,6.43,10.22,8.58,23.31,17.5,31.44,3.14,2.86,7.56,5,11.58,3.64,3.08-1.04,5.24-3.96,6.1-7.09s.59-6.46.06-9.66c-2.73-16.52-12.13-31.2-22.93-43.99-2.64-3.12-5.41-6.21-8.83-8.45s-7.58-3.6-11.62-2.95c-3.8.62-8.7,3.91-8.82,8.15-.14,5.17,3.18,10.68,6.08,14.7,4.24.93,8.8,2.22,13.04,3.15Z"></path><path fill="#8b4747" d="M199.11 37.15c10.69 9.84 18.99 22.1 25.15 35.21 6.21 13.18 9.2 27.61 11.19 41.96.07.61-.88.82-.99.13-1.82-14.32-4.63-28.69-10.67-41.88-5.94-13.14-14.33-25.54-24.68-35.43h0zM240.52 17.83c-.3 27.39.3 68.96.32 96.71 0 .28-.22.5-.5.5s-.5-.22-.5-.5c.28-27.78.07-69.38.68-96.71h0z"></path><rect width="68.38" height="7.94" x="206.5" y="148.59" fill="#f7bfbf" rx="1.48" ry="1.48"></rect></g><g><g><path fill="#fff" stroke="#8b4747" stroke-linecap="round" stroke-linejoin="round" d="M116.16 118.52s-3.94.14-5.91-2.95c-1.97-3.09-5.62-4.36-5.62-4.36l-5.76 15.04s7.31.28 14.2 9.98c6.89 9.7 3.23-17.15 3.23-17.15l-.14-.56zM306.94 132.15s1.83-2.53-1.83-5.06c0 0-.7-7.03-5.9-9.28-5.2-2.25-9.14-4.5-11.25-6.61 0 0-2.95-2.53-6.05 1.55-3.09 4.08-6.05 3.37-10.54 3.51-4.5.14-15.89-.56-25.59 3.09-9.7 3.66-15.18 7.17-24.46 7.31-9.28.14-20.67 2.67-24.46.56-3.8-2.11-12.09-10.12-28.26-1.55l-9 3.09 36.41 21.79s16.59-3.94 22.78-5.9c6.19-1.97 9.28-2.95 14.48-5.76 5.2-2.81 17.15-6.61 23.48-7.87 6.33-1.27 17.15-6.05 24.46-5.48 7.31.56 9.98-.28 14.48 1.41 4.5 1.69 7.45 1.55 8.3 3.23.84 1.69 2.95 1.97 2.95 1.97z"></path><path fill="#fff" stroke="#8b4747" stroke-linecap="round" stroke-linejoin="round" d="m168.6,125.69c16.17-8.58,24.46-.56,28.26,1.55,3.8,2.11,15.18-.42,24.46-.56,9.28-.14,14.76-3.66,24.46-7.31,9.7-3.66,21.09-2.95,25.59-3.09.82-.03,1.58-.02,2.31-.03-.32,1.05-1.3,5.24,1.74,9.71-6.48,1.14-13.87,4.12-18.67,5.08-6.33,1.27-18.28,5.06-23.48,7.87-5.2,2.81-8.3,3.8-14.48,5.76-6.19,1.97-22.78,5.9-22.78,5.9l-36.41-21.79,9-3.09Z"></path><g><g><path fill="#f29494" d="m84.46,114.95s-.21.08-.58.18c-.37.11-.91.22-1.55.19-.64-.03-1.37-.28-1.93-.84-.28-.27-.53-.6-.73-.97-.21-.36-.37-.75-.47-1.16-.1-.4-.12-.82-.09-1.25.02-.43.06-.87.01-1.3-.04-.44-.2-.87-.43-1.19-.22-.32-.43-.6-.55-.88-.11-.29-.13-.57-.07-.82.05-.25.17-.45.28-.61.11-.15.22-.26.29-.33.08-.07.12-.1.12-.1,0,0-.05.03-.14.08-.09.06-.21.15-.34.3-.13.15-.28.34-.37.62-.1.26-.12.62,0,.95.11.34.32.65.51.97.19.31.29.66.32,1.05.03.39-.02.81-.05,1.25-.03.44-.02.92.1,1.37.23.91.73,1.7,1.37,2.3.32.3.7.5,1.08.63.38.13.75.17,1.1.17.34,0,.65-.07.91-.13.26-.07.49-.15.67-.22.18-.07.32-.14.41-.19.09-.05.14-.07.14-.07Z"></path><path fill="#f29494" d="m78,110.06s0,.18,0,.49c0,.31-.05.75-.08,1.28-.03.53-.08,1.18.1,1.86.09.34.23.69.45.99.1.16.22.3.35.44.11.12.27.27.42.38.3.23.65.4,1.01.51.36.09.73.13,1.08.11.7-.05,1.31-.26,1.81-.46.5-.21.88-.44,1.15-.6.27-.16.41-.26.41-.26,0,0-.16.07-.45.19-.28.13-.7.29-1.2.45-.5.16-1.1.31-1.74.31-.64.01-1.3-.17-1.82-.58-.13-.11-.24-.2-.36-.34-.11-.12-.22-.25-.31-.38-.19-.27-.32-.56-.42-.86-.18-.6-.21-1.22-.23-1.75,0-.53-.05-.98-.09-1.29-.02-.16-.05-.28-.06-.36-.02-.08-.03-.13-.03-.13Z"></path></g><g><path fill="#fff" stroke="#8b4747" stroke-linecap="round" stroke-linejoin="round" d="m83.59,115.18s-.83,1.94.83,4c1.65,2.05,2.51,2.4,1.99,4.44-.52,2.04-.75,3.04-.38,3.54,0,0,.21.96,1.63.46,1.42-.51,2.5.39,2.56,1.89,0,0,.2.88,1.29.52,0,0-.27,1.07.53,1.24.8.17,1.46-.07,1.79.82.29.78,1.05,2,2.37,2.13,1.01.1,2.24-.82,2.47-1.81,0,0,3.93-2.04,4.96-6.07,1.03-4.03-.44-6.93-1.31-7.61,0,0,1.84-.31,2.1-2.65.26-2.35-.15-3.82-1.55-4.91-1.4-1.09-3.46-1.35-3.93-1-.47.35-1.99,1.28-1.99,1.28l-5.85-1.01-3.85.99-3.66,3.72Z"></path><path fill="#f29494" d="M88.52 111.81c.37.34-1.57 2.28-1.76 2.43-1.79 1.37-4.75 1.8-6.34-.1-2.4-2.86-.64-6.93 1.37-9.46 1.93-2.42 5.24-4.82 8.23-5.69 1.51-.44 3.08-.14 4.61-.14 1.96 0 3.71-1.01 5.61-1.34 6.68-1.15 11.34 6.32 11.45 12.15.01.57 0 1.14-.06 1.71-.03.37-.36 1.39-.22 1.71 0 0 1.9 4.37-2.03 6.46-3.92 2.09-5.17-2.58-5.17-2.59-.05-.17.17-.65.2-.84.11-.74.05-1.48-.15-2.2-.54-1.91-3.02-4.53-4.98-2.64-1.38 1.32-.47 3.73-1.98 4.93-.56.44-1.5.1-1.8-.43-.18-.33-.24-.71-.34-1.07-.44-1.53-1.59-1.57-2.86-1.44-1.38.13-2.77-.52-3.77-1.43zM90.06 90.69s-1.39-1.46.2-3.68c1.63-2.28 4.87-2.88 7.36-1.63 2.44 1.23 3.89 4.54 1.22 6.4-2.46 1.71-8.78-1.09-8.78-1.09z"></path><path fill="#f29494" d="m91.02,98.85c-.58-.43-.68-1.22-.41-1.87.62-1.51,2.21-1.39,3.55-1.67.75-.16,1.45-.57,1.96-1.14.52-.58.57-1.4,1.06-1.99,1.61-1.94,4.47.86,4.45,2.66-.01,1.27-.84,2.41-1.88,3.14-2.18,1.52-5.21,2.08-7.76,1.32-.34-.1-.69-.24-.98-.45Z"></path><path fill="#f29494" d="m92,95.66c-.71-.15-1.35-.5-1.81-1.21-.99-1.51-.87-3.55.71-4.6,1.05-.7,2.3-1.09,3.56-.95,1.04.12,2.27.59,2.85,1.5,1.17,1.84-.56,4.56-2.49,5.05-.91.23-1.93.39-2.83.2Z"></path><path fill="#8b4747" d="M84.72 119.3c-.02.38.19.82.53 1.01.38.22.58-.03.63-.41.07-.49 0-1 .33-1.42.44-.53 1.01-.83 1.7-.77.68.05 1.6.1 2.1-.46-.42.04-.85.04-1.27 0-.31-.03-.6-.13-.9-.16-.71-.06-1.43.15-2.01.53-.33.21-.61.49-.82.82-.17.28-.29.58-.3.86zM87.39 121.26s.03.06.1.16c.08.09.2.22.4.31.19.1.47.13.74.07.13-.03.27-.08.39-.15.14-.08.23-.13.35-.23.22-.18.42-.39.55-.62.14-.23.21-.47.23-.68.02-.21 0-.39-.05-.5-.04-.12-.08-.17-.08-.17 0 0 .04.28-.08.63-.11.36-.41.76-.8 1.06-.08.07-.22.16-.3.21-.1.06-.2.11-.31.15-.1.03-.21.06-.31.06-.1 0-.2 0-.28-.02-.18-.04-.32-.11-.42-.17-.1-.06-.15-.1-.15-.1zM99.47 114.16s0-.03 0-.09c0-.06 0-.14 0-.24.02-.21.12-.49.34-.74.11-.13.25-.24.42-.33.16-.09.37-.16.53-.17.11 0 .24 0 .34 0 .09.03.18.03.28.08.19.07.39.18.55.33.09.07.17.14.24.23.08.08.15.17.21.26.07.09.13.18.18.28.06.09.11.19.14.29.05.1.08.19.11.29.03.1.06.19.07.29.04.19.04.37.02.54-.01.08-.03.16-.04.24-.03.07-.05.14-.08.21-.06.13-.14.22-.2.31-.15.14-.24.23-.24.23 0 0 .11-.05.3-.16.08-.08.19-.16.28-.29.04-.07.09-.14.13-.21.04-.08.06-.17.09-.27.05-.19.08-.4.05-.63 0-.11-.02-.23-.05-.34-.02-.12-.05-.23-.1-.34-.04-.12-.08-.23-.14-.34-.05-.11-.11-.22-.19-.33-.07-.11-.15-.21-.24-.31-.08-.1-.18-.19-.28-.28-.2-.17-.44-.31-.69-.4-.12-.05-.28-.06-.41-.08-.13 0-.24.01-.35.01-.3.04-.49.15-.69.28-.19.13-.34.29-.44.46-.22.33-.25.68-.23.89.03.22.09.33.08.33z"></path></g></g><path fill="#f29494" d="m119.22,117.73s-14.47,2.39-8.86,15.18c5.27,12.02,7.92,14.89,11.6,20.24,4.88,7.11,12.23,3.8,14.97.42,0,0,6.54,2.71,13.95,1.39,7.4-1.31,13.78,2.81,17.34,1.69,0,0,.37,12.84.94,18.75.56,5.9,3.56,18.18,3.56,22.87s-.19,8.62-.19,11.9-3.84,15.84-4.41,25.12c-.56,9.28-1.97,19.87-4.78,20.81-2.81.94-12.18,3.94-17.9,7.03,0,0-2.62.75-3.37-.28,0,0-.28,3,2.34,2.91,0,0,4.31,1.69,8.62,1.12,4.31-.56,11.81-.37,15.75-.09,3.94.28,7.59-.37,7.03-5.25-.56-4.87,0-11.06,4.03-21.56,4.03-10.5,7.78-15,6.65-29.15-1.12-14.15,3.75-20.9,6.28-31.02,2.53-10.12,8.73-37.52-3.09-49.21-12.79-12.65-29.52.7-41.19-2.53-11.67-3.23-24.8-11.27-29.27-10.34Z"></path><path fill="#f29494" d="m117.96,117.52c7.38-2.11,18.87,7.32,30.54,10.55.73.2,1.48.34,2.25.42-.87,1.7-6.45,13.01-7.01,26.67-4-.43-6.79-1.59-6.79-1.59-2.74,3.37-10.1,6.69-14.97-.42-3.67-5.36-7.57-7.75-11.6-20.24-4.22-13.07,7.59-15.39,7.59-15.39Z"></path><path fill="#fff" stroke="#8b4747" stroke-linecap="round" stroke-linejoin="round" d="m107.49,129.76c1.41,5.18,4.44,12.23,10.85,12.23,6.41,0,11.6-5.19,11.6-11.6s-5.19-11.6-11.6-11.6c-6.41,0-12.53,4.78-10.85,10.97Z"></path><path fill="#ef998f" d="m112.36,121.61s-.43-.1-1.21-.18c-.77-.07-1.88-.16-3.22-.12-.67.02-1.39.05-2.15.14-.38.03-.77.09-1.17.15-.4.05-.81.12-1.22.21-.41.08-.83.16-1.25.27-.42.11-.85.2-1.26.34-.42.14-.85.26-1.27.41-.42.16-.84.32-1.25.48-.82.37-1.63.75-2.41,1.13-.78.36-1.56.71-2.32,1.02-1.53.62-2.99,1.1-4.25,1.46-1.27.36-2.34.62-3.1.77-.76.15-1.19.24-1.19.24,0,0,.11,0,.32-.02.21-.02.51-.04.9-.08.77-.09,1.87-.23,3.18-.51,1.3-.28,2.81-.7,4.38-1.28.78-.3,1.59-.61,2.39-.98.79-.38,1.59-.74,2.38-1.09.41-.16.81-.32,1.22-.48.41-.15.82-.28,1.23-.41.82-.25,1.64-.49,2.44-.66.4-.1.79-.17,1.18-.25.39-.08.77-.15,1.14-.2.37-.06.74-.11,1.09-.15.35-.04.69-.09,1.02-.11,1.31-.12,2.42-.16,3.19-.14.39,0,.69.01.9.02.21.01.32.02.32.02Z"></path><path fill="#8b4747" d="m119.39,134.36s-.29-.18-.85-.36c-.28-.09-.63-.18-1.03-.25-.41-.07-.87-.13-1.38-.13-.51-.02-1.06.03-1.64.12-.58.11-1.18.23-1.78.45-.61.21-1.19.44-1.81.67-.61.23-1.23.45-1.86.65-.63.21-1.25.41-1.88.59-.62.18-1.24.35-1.84.51-.6.15-1.18.29-1.74.43-.56.13-1.08.25-1.57.36-.97.22-1.79.4-2.35.52-.57.12-.89.2-.89.2,0,0,.33-.02.91-.07.58-.06,1.41-.12,2.4-.26.99-.13,2.15-.32,3.37-.58.61-.14,1.25-.28,1.88-.46.64-.17,1.28-.37,1.92-.57.64-.21,1.26-.44,1.88-.68.62-.23,1.21-.51,1.78-.72.56-.22,1.13-.39,1.67-.52.55-.11,1.07-.2,1.56-.23.98-.07,1.8,0,2.37.12.28.06.51.11.65.15.15.04.23.07.23.07Z"></path><path fill="#fff" stroke="#8b4747" stroke-linecap="round" stroke-linejoin="round" d="m109.73,135.76c-5.53,2.44-25.03,3.75-31.12,3.66-6.09-.09-7.97.09-14.81-1.12-6.84-1.22-16.12-3.28-19.68-3.56-.89-.07-1.76-.06-2.6-.03-2.73.33-8.27-.21-9.45-.68-1.41-.56-8.48-2.11-8.15-3,0,0,0,0,0-.01,0-.02.01-.03.03-.04.21-.32.86-.25,1.17-.24.72.03,1.44.14,2.15.25.42.06,5,1.03,4.8.02-.04-.22-.39-.21-.56-.25-.37-.09-.75-.15-1.13-.2-.59-.09-1.19-.14-1.78-.22-1.4-.21-2.81-.42-4.2-.71-2.72-.56-2.7-.88-2.67-1.55.04-.74,1.27-.77,1.27-.77,0,0-1.73-.16-2.11-.63-.37-.47-.07-1.05,1.05-1.34,1.12-.28,9.07.56,9.07.56,0,0-4.29-.3-6.26-.59-1.97-.28-1.5-1.36-1.5-1.36.56-1.22,3.66-.66,7.5-.28,3.84.37,8.39.37,9.14-.28.75-.66-.19-3.19-.84-5.44-.66-2.25,1.69-2.72,1.69-2.72,0,0-.56,1.41,1.31,4.12,1.87,2.72,2.06,4.31,2.81,6.65.75,2.34,3.19,1.69,9.65,1.78,6.47.09,14.06,0,20.9.37,6.84.37,13.78,0,21.56-3.84,7.78-3.84,15.37-2.72,15.37-2.72"></path><path fill="#8b4747" d="M32.85 125.83s-.77-.1-1.94-.22c-.58-.05-1.26-.12-1.99-.18-.73-.05-1.51-.11-2.28-.17-.78-.04-1.56-.08-2.29-.12-.37-.02-.72-.03-1.06-.03-.34 0-.67.01-.96.07-.59.1-1.05.31-1.32.54-.13.11-.2.24-.22.33-.02.09-.01.14-.01.14 0 0 0-.05.03-.14.03-.08.11-.19.25-.29.27-.2.74-.35 1.31-.43.29-.04.59-.04.93-.02.33.02.69.04 1.05.06.73.05 1.51.1 2.28.15.78.04 1.56.09 2.29.13.73.04 1.41.06 2 .09 1.17.05 1.95.06 1.95.06zM32.97 127.75s-.72-.1-1.81-.21c-.54-.05-1.18-.12-1.86-.17-.68-.05-1.41-.1-2.13-.16-.73-.04-1.46-.07-2.14-.11-.34-.02-.67-.02-.99-.02-.32 0-.61.03-.89.08-.54.09-1 .28-1.22.53-.11.13-.15.26-.15.34 0 .09 0 .13 0 .13 0 0 0-.05.02-.13.02-.08.07-.2.18-.31.22-.23.67-.36 1.2-.42.26-.03.56-.05.87-.03.31.02.64.04.98.06.68.05 1.41.09 2.13.14.73.04 1.45.08 2.14.12.68.04 1.32.06 1.86.09 1.09.04 1.82.05 1.82.05z"></path><path fill="#fff" stroke="#8b4747" stroke-linecap="round" stroke-linejoin="round" d="m165.91,251.69c1.17-4.14,1.86-10.53,2.22-16.38.56-9.28,4.41-21.84,4.41-25.12s.19-7.22.19-11.9-3-16.97-3.56-22.87c-.56-5.9-.94-18.75-.94-18.75-2.67.84-6.92-1.26-12-1.82-.79-13.7,3.16-24.58,4.23-27.26,9.64-2.04,20.38-5.73,29.23,3.02,11.82,11.69,5.62,39.09,3.09,49.21-2.53,10.12-7.4,16.87-6.28,31.02,1.12,14.15-2.62,18.65-6.65,29.15-2.17,5.65-3.33,10.05-3.86,13.67-6.09,1.09-9.07-1.01-10.07-1.97Z"></path><path fill="#8b4747" d="M165.58 126.44c-.91 2.72-4.04 13.3-3.98 29.46-1.65-.41-3.45-.84-5.38-1.06-.79-13.7 3.16-24.58 4.23-27.26 1.68-.36 3.39-.76 5.12-1.14zM170.85 142.42s-.22.37-.51 1.05c-.15.34-.31.76-.49 1.25-.17.49-.37 1.04-.52 1.66-.35 1.23-.67 2.69-.93 4.26-.1.79-.25 1.6-.31 2.44-.07.83-.16 1.68-.2 2.53-.04.85-.08 1.7-.08 2.54 0 .84-.01 1.66.03 2.45.04 1.59.19 3.07.3 4.34.09 1.27.31 2.31.4 3.05.12.73.19 1.15.19 1.15 0 0 0-.42-.02-1.16-.02-.74-.07-1.79-.09-3.06-.01-.63-.03-1.32-.04-2.04 0-.72 0-1.49 0-2.28-.02-.79.03-1.6.04-2.43 0-.83.06-1.67.1-2.5.07-1.68.24-3.35.4-4.91.12-.78.18-1.54.3-2.25.11-.71.22-1.39.35-2 .26-1.23.48-2.26.7-2.97.21-.71.35-1.11.35-1.11z"></path></g><g><path fill="#fff" stroke="#8b4747" stroke-linecap="round" stroke-linejoin="round" d="m142.07,262.86s-.28,3,2.34,2.9c0,0,4.31,1.69,8.63,1.13,4.31-.57,11.81-.38,15.74-.1,3.94.28,7.59-.37,7.03-5.25-.26-2.25-.28-4.77.17-7.88-6.09,1.08-9.06-1.01-10.07-1.98-.68,2.43-1.53,4.08-2.56,4.43-2.82.93-12.19,3.93-17.91,7.03,0,0-2.62.75-3.37-.28Z"></path><path fill="#fff" stroke="#8b4747" stroke-linecap="round" stroke-linejoin="round" d="m166.43,249.55c-.16.76-.34,1.47-.52,2.13.19-.66.36-1.37.52-2.13Z"></path></g><path fill="#8b4747" d="M259.68 119.54c-3.27.02-6.28.44-9.43 1.3 2.69-1.83 6.34-2.33 9.43-1.3h0zM230.59 127.72c-3.1 2.08-7.34 2.57-10.83 1.27 3.73.24 7.27-.16 10.83-1.27h0zM226.48 139.49c-3.5.86-6.88 1.64-9.84 3.79 2.21-2.96 6.29-4.01 9.84-3.79h0zM272.37 124.84c-2.07-1.35-2.85-5.02-1.71-7.17-.02 2.47.47 5.02 1.71 7.17h0zM192.83 154.73c1.31 4.2.94 8.99-.99 12.95.93-4.31 1.25-8.54.99-12.95h0zM189.65 138.72c-.65-3.24-2.8-6.4-5.86-7.76 3.47.26 6.37 4.4 5.86 7.76h0zM188.88 184.3c-1.72 3.26-2.74 6.59-3.18 10.24-.65-3.62.6-7.63 3.18-10.24h0zM174.85 196.31c1.43 2.9 1.25 6.64-.47 9.38.71-3.16.86-6.16.47-9.38h0zM183.75 217.59c.73 4.07-.24 8.8-2.88 12.03 1.72-3.78 2.55-7.91 2.88-12.03h0zM175.12 250.62c-2.01 1.71-5.97 1.33-7.29-1.06 2.06 1.5 4.87 1.7 7.29 1.06h0zM126.77 133.57c.53-2.6.5-4.97-.06-7.56 1.58 2.13 1.6 5.4.06 7.56h0zM107.72 124.5c-2.86 0-5.71.73-8.17 2.21 1.77-2.35 5.45-3.3 8.17-2.21h0zM87.17 136.8c-3.07 1.77-7.21 1.8-10.3.06 3.48.72 6.83.7 10.3-.06h0zM49.09 129.23c-2.21 1.54-5.81-.18-6-2.87 1.34 2.15 3.48 3.18 6 2.87h0zM173.32 261.19c1.4 1.33.21 3.88-1.78 3.48 1.49-.83 1.93-1.8 1.78-3.48h0zM283.67 113.83c-.12-1.62 2.42-2.36 3.19-.92-1.35-.26-2.18-.02-3.19.92h0z"></path><path fill="#fff" d="M132.73 125.82c3.52 1.62 7.01 2.78 10.79 3.6-3.85.24-7.86-1.1-10.79-3.6h0zM138.58 151.89c2.51 1.01 4.88 1.56 7.58 1.76-2.55.88-5.68.15-7.58-1.76h0z"></path></g></g></g></svg>