<svg xmlns="http://www.w3.org/2000/svg" viewBox="0 0 466.152 410.558" id="wash-hands-frequently"><g><g><path fill="#caefd1" d="M65.297.735H445.22v405.933H65.297z"></path><path fill="none" stroke="#fff" stroke-miterlimit="10" stroke-width="1.47" d="M65.29 406.67V.735h75.874V406.67M141.164 406.67V.735h75.873V406.67M65.29.735H445.217M445.217 64.946H65.29M65.29 64.946H445.217M445.217 129.155H65.29M65.29 129.155H445.217M445.217 193.366H65.29M65.29 193.366H445.217M445.217 257.576H65.29M65.29 257.576H445.217M445.217 321.786H65.29M65.29 321.786H445.217M445.217 385.996H65.29M217.613 406.67V.735h75.857V406.67M293.47 406.67V.735h75.874V406.67"></path><path fill="none" stroke="#fff" stroke-miterlimit="10" stroke-width="1.47" d="M369.344 406.67V.735h75.873V406.67"></path><path fill="#cfd3d3" d="M70.682 13.644h89.905v127.518H70.682z"></path><path fill="#fff" d="M78.14 81.84c2.938-4.942 5.98-9.816 9.04-14.679 3.056-4.864 6.2-9.672 9.296-14.511 3.174-4.788 6.306-9.604 9.52-14.366l4.839-7.131c1.648-2.354 3.263-4.73 4.94-7.065-1.458 2.478-2.979 4.915-4.467 7.373l-4.57 7.307c-3.059 4.863-6.199 9.673-9.297 14.51-3.177 4.787-6.306 9.604-9.522 14.365-3.213 4.763-6.443 9.515-9.778 14.198ZM87.038 94.41c2.937-4.942 5.98-9.815 9.039-14.678 3.057-4.865 6.2-9.673 9.296-14.512 3.174-4.788 6.306-9.603 9.52-14.366l4.839-7.131c1.648-2.354 3.263-4.73 4.94-7.065-1.458 2.478-2.98 4.915-4.467 7.373l-4.57 7.307c-3.059 4.863-6.199 9.674-9.297 14.51-3.177 4.787-6.306 9.605-9.522 14.365-3.213 4.763-6.442 9.515-9.778 14.198ZM105.855 123.287c2.937-4.943 5.98-9.816 9.04-14.68 3.056-4.864 6.2-9.672 9.295-14.51 3.174-4.789 6.307-9.604 9.52-14.367l4.839-7.13c1.648-2.355 3.264-4.73 4.941-7.066-1.458 2.478-2.98 4.915-4.467 7.374l-4.57 7.307c-3.06 4.863-6.2 9.673-9.298 14.51-3.176 4.786-6.305 9.604-9.521 14.365-3.214 4.762-6.443 9.514-9.779 14.197ZM115.008 132.984c2.937-4.942 5.98-9.816 9.04-14.68 3.056-4.863 6.2-9.671 9.295-14.51 3.174-4.788 6.307-9.604 9.52-14.366l4.839-7.131c1.648-2.355 3.263-4.73 4.941-7.065-1.458 2.478-2.98 4.914-4.468 7.373l-4.569 7.307c-3.06 4.863-6.2 9.673-9.298 14.51-3.176 4.787-6.306 9.604-9.521 14.365-3.214 4.762-6.443 9.514-9.779 14.197Z"></path><path fill="#6aaaa8" d="M297.132 97.55h135.399v6.339H297.132z"></path><path fill="#7c9b9b" d="M367.138 64.273h7.801a2.306 2.306 0 0 1 2.306 2.306V97.55h-12.413V66.58a2.306 2.306 0 0 1 2.306-2.306Z"></path><path fill="#7c9b9b" d="M370.137 58.455h1.803a1.153 1.153 0 0 1 1.153 1.153v4.775h-4.109v-4.775a1.153 1.153 0 0 1 1.153-1.153Z"></path><path fill="#7dbcbc" d="M323.895 103.889h3.521v12.442h-3.521zM408.058 103.889h3.521v12.442h-3.521z"></path><path fill="#8dd3d3" d="M318.181 75.893h19.351a1.153 1.153 0 0 1 1.153 1.153V97.55h-21.657V77.046a1.153 1.153 0 0 1 1.153-1.153Z"></path><path fill="none" stroke="#7dbcbc" stroke-miterlimit="10" stroke-width=".489" d="M317.028 81.586h21.657"></path><circle cx="327.857" cy="86.722" r="2.964" fill="none" stroke="#7dbcbc" stroke-miterlimit="10" stroke-width=".489"></circle><path fill="none" stroke="#507776" stroke-miterlimit="10" stroke-width=".489" d="M364.832 75.013h12.413"></path><path fill="#7c9b9b" d="M398.44 64.273h7.8a2.306 2.306 0 0 1 2.307 2.306V97.55h-12.413V66.58a2.306 2.306 0 0 1 2.306-2.306Z"></path><path fill="#7c9b9b" d="M401.439 58.455h1.802a1.153 1.153 0 0 1 1.153 1.153v4.775h-4.108v-4.775a1.153 1.153 0 0 1 1.153-1.153Z"></path><path fill="none" stroke="#507776" stroke-miterlimit="10" stroke-width=".489" d="M396.134 75.013h12.413"></path><path fill="#8dd3d3" d="M381.81 57.884h10.185a2.306 2.306 0 0 1 2.306 2.306v37.36h-14.796V60.19a2.306 2.306 0 0 1 2.306-2.306Z"></path><path fill="#8dd3d3" d="M385.607 50.95h2.591a1.153 1.153 0 0 1 1.153 1.153v5.913h-4.897v-5.913a1.153 1.153 0 0 1 1.153-1.153Z"></path><path fill="none" stroke="#7dbcbc" stroke-miterlimit="10" stroke-width=".583" d="M379.505 70.687h14.796"></path><path fill="#8dd3d3" d="M30.168.735h50.926v406.371H30.168z"></path><path fill="#8dbfe2" d="M181.742 405.63h-36.965l-9.905-65.025h56.776l-9.906 65.025z"></path><rect width="65.771" height="6.726" x="130.374" y="334.124" fill="#139da0" rx="3.363"></rect><path fill="#26b5bf" d="M144.01 347.848c.737 4.191 1.398 8.393 2.046 12.596l1.856 12.623 1.691 12.646c.533 4.22 1.056 8.44 1.498 12.673-.739-4.19-1.399-8.393-2.047-12.596l-1.855-12.623-1.69-12.646c-.533-4.22-1.056-8.44-1.5-12.673ZM181.75 347.848c-.38 4.23-.838 8.45-1.309 12.669l-1.5 12.645-1.665 12.624c-.585 4.204-1.181 8.407-1.858 12.6.38-4.23.838-8.45 1.308-12.669l1.501-12.644 1.667-12.625c.585-4.204 1.182-8.407 1.857-12.6ZM162.649 347.848c.148 4.187.218 8.374.276 12.56l.084 12.56-.083 12.56c-.058 4.187-.128 8.374-.277 12.56-.15-4.186-.22-8.373-.277-12.56l-.083-12.56.084-12.56c.058-4.186.127-8.373.276-12.56Z"></path><path fill="#26b5bf" d="M141.983 355.7c3.546-.148 7.092-.218 10.639-.276l10.638-.083 10.639.082c3.546.058 7.092.128 10.638.277-3.546.15-7.092.22-10.638.278l-10.639.082-10.638-.084c-3.547-.057-7.093-.127-10.639-.276ZM145.529 375.246c2.892-.149 5.784-.218 8.676-.276 2.891-.06 5.783-.054 8.675-.084l8.675.082c2.892.059 5.784.128 8.676.278-2.892.15-5.784.219-8.676.277l-8.675.083c-2.892-.03-5.784-.025-8.675-.084-2.892-.058-5.784-.128-8.676-.276ZM148.822 394.708c2.396-.149 4.792-.218 7.187-.276 2.396-.06 4.792-.054 7.187-.084 2.397.028 4.792.026 7.188.083 2.396.058 4.791.127 7.188.277-2.397.15-4.792.22-7.188.277-2.396.058-4.791.055-7.188.083-2.395-.03-4.79-.024-7.187-.084-2.395-.058-4.79-.127-7.187-.276Z"></path><path fill="#6baaa8" d="m43.688 15.239.015 1.729h-.031l.016-1.729zM43.733 20.438l.03 3.469h-.151l.03-3.469h.091zM43.793 27.377l.031 3.469h-.273l.031-3.469h.211zM43.854 34.316l.03 3.469h-.393l.03-3.469h.333zM43.915 41.254l.03 3.47h-.515l.031-3.47h.454zM43.975 48.193l.018 3.47h-.61l.017-3.47h.575zM44.01 55.132l.017 3.47h-.679l.017-3.47h.645zM44.043 62.071l.018 3.47h-.746l.017-3.47h.711zM44.078 69.01l.017 3.469h-.815l.017-3.469h.781zM44.113 75.949l.016 3.469h-.882l.016-3.469h.85zM44.146 82.888l.017 3.468h-.951l.017-3.468h.917zM44.176 89.826l.006 3.469h-.988l.005-3.469h.977zM44.187 96.764l.006 3.47h-1.011l.006-3.47h.999zM44.199 103.703l.006 3.47H43.17l.006-3.47h1.023zM44.209 110.642l.006 3.47H43.16l.005-3.47h1.044zM44.221 117.581l.006 3.47h-1.078l.005-3.47h1.067zM44.232 124.52l.006 3.47h-1.101l.006-3.47h1.089zM44.244 131.459l.006 3.469h-1.124l.005-3.469h1.113zM44.255 138.398l.005 3.469h-1.145l.005-3.469h1.135zM44.262 145.337l-.005 3.469h-1.138l-.005-3.469h1.148zM44.251 152.276l-.006 3.469H43.13l-.006-3.469h1.127zM44.239 159.215l-.005 3.469h-1.092l-.006-3.469h1.103zM44.228 166.153l-.006 3.47h-1.069l-.006-3.47h1.081zM44.216 173.092l-.005 3.47h-1.046l-.006-3.47h1.057zM44.206 180.031l-.007 3.47h-1.023l-.006-3.47h1.036zM44.194 186.97l-.005 3.468h-1.001l-.007-3.468h1.013zM44.183 193.908l-.006 3.469h-.979l-.006-3.469h.991zM44.166 200.847l-.018 3.469h-.921l-.017-3.469h.956zM44.131 207.786l-.017 3.469h-.852l-.018-3.469h.887zM44.096 214.725l-.017 3.469h-.783l-.017-3.469h.817zM44.063 221.663l-.017 3.47h-.716l-.018-3.47h.751zM44.028 228.602l-.017 3.47h-.647l-.017-3.47h.681zM43.994 235.541l-.018 3.47h-.577l-.018-3.47h.613zM43.946 242.48l-.03 3.47h-.457l-.03-3.47h.517zM43.885 249.419l-.03 3.47h-.335l-.03-3.47h.395zM43.824 256.358l-.03 3.469h-.213l-.031-3.469h.274zM43.764 263.297l-.031 3.469h-.091l-.031-3.469h.153zM43.703 270.236l-.015 1.729-.016-1.729h.031z"></path><path fill="#6aaaa8" d="M87.195 188.12h26.783a6.102 6.102 0 0 1 6.102 6.1v63.63H81.093v-63.63a6.102 6.102 0 0 1 6.102-6.1Z"></path><path fill="#8dbfe2" d="m173.224 256.583-53.144 1.268v-51.665l58.145 1.28a197.863 197.863 0 0 1 27.435 2.524c-3.646 21.395-15.847 36.599-32.436 46.593Z"></path><path fill="#2c386c" d="m128.233 206.48-6.408-.256c.026-.183 2.55-19.01 6.964-37.228a166.403 166.403 0 0 1 8.065-25.812c3.96-9.16 8.003-13.606 12.727-13.989 6.361-.517 10.97 8.145 15.824 23.53h-5.764c-5.47-17.334-9.363-16.96-9.527-16.948-.677.055-6.846 1.497-14.908 34.774-4.341 17.921-6.947 35.75-6.973 35.93ZM247.2 186.508s4.284 171.796 12.508 205.15h17.293l13.25-185.503Z"></path><path fill="#1b1833" d="m247.2 186.508 2.736 1.388 39.952 26.072-2.005 25.742c-2.283-10.244-7.976-24.646-7.976-24.646s-32.691-27.96-32.707-28.556Z"></path><path fill="#2c386c" d="M314.365 165.262s16.519 22.845 11.607 112.741c0 0 20.872 57.913 37.016 103.832l-20.215 5.14-42.115-94.237a42.923 42.923 0 0 1-5.483-16.62c-.685-8.738-13.364-63.91-13.364-63.91l-34.61-25.7Z"></path><path fill="#707fb7" d="m310.767 172.904.439 1.913-.045.01-.394-1.923zM312.025 178.612l.77 3.804-.225.041-.68-3.819.135-.026zM313.525 186.231l.69 3.822-.404.067-.602-3.835.316-.054zM314.87 193.883l.618 3.836-.587.085-.527-3.845.496-.076zM316.065 201.561l.526 3.851-.718.09-.475-3.852.667-.089zM317.079 209.268l.45 3.86-.821.086-.399-3.857.77-.089zM317.941 216.994l.371 3.87-.925.079-.319-3.866.873-.083zM318.642 224.741l.286 3.875-1.029.064-.234-3.868.977-.071zM319.169 232.498l.184 3.886-1.115.042-.15-3.874 1.081-.054zM319.48 240.274l.075 3.892-1.15.011-.057-3.876 1.132-.027zM319.575 248.06l-.04 3.893-1.183-.023.056-3.876 1.167.006zM319.435 255.847l-.167 3.892-1.215-.066.182-3.87 1.2.044zM319.031 263.628l-.311 3.884-1.246-.115.326-3.859 1.231.09zM318.327 271.391l-.48 3.871-1.273-.177.493-3.838 1.26.144zM316.963 279.153l1.21-.489 1.456 3.602-1.21.489zM321.076 285.871l1.447 3.605-1.18.476-1.462-3.598 1.195-.483zM323.97 293.082l1.447 3.605-1.147.464-1.464-3.6 1.164-.469zM326.864 300.293l1.447 3.604-1.115.451-1.463-3.599 1.131-.456zM329.758 307.503l1.447 3.605-1.084.438-1.463-3.599 1.1-.444zM332.652 314.714l1.447 3.605-1.051.425-1.464-3.599 1.068-.431zM335.546 321.924l1.442 3.609-1.008.407-1.47-3.598 1.036-.418zM338.418 329.144l1.431 3.611-.912.369-1.479-3.593.96-.387zM341.28 336.367l1.431 3.612-.816.33-1.478-3.593.863-.349zM344.142 343.591l1.432 3.611-.721.291-1.479-3.592.768-.31zM347.005 350.815l1.431 3.611-.625.253-1.479-3.593.673-.271zM349.855 358.043l1.413 3.618-.468.191-1.498-3.586.553-.223zM352.68 365.281l1.413 3.619-.299.121-1.497-3.585.383-.155zM355.505 372.519l1.413 3.62-.128.052-1.498-3.585.213-.087zM358.348 379.804l.716 1.834-.758-1.816.042-.018z"></path><path fill="#f6b98a" d="m236.935 85.85-6.269 14.969-17.152.885-4.978-10.098 13.688-33.414 14.711 27.658z"></path><path fill="#e8a77c" d="M219.97 73.576c-.04-.706-11.434 18.03-11.434 18.03l1.045 2.12c.172-.03.282-.17.438-.25 8.077-4.18 10.616-8.173 9.951-19.9Z"></path><path fill="#ed860a" d="M212.09 98.815s16.507 7.22 24.286-14.016l12.7-.842s32.727 3.428 66.804 84.054c0 0-16.765 38.746-68.622 20.72l-.693-16.7-13.828-16.05-21.137-33.09-7.508-11.606s3.282-8.248 7.998-12.47Z"></path><path fill="#ce700b" d="M266.13 161.564a54.234 54.234 0 0 0 2.712-13.789l2.607-37.853a20.233 20.233 0 0 0-15.735-19.984 16.482 16.482 0 0 0-6.125-.259 9.51 9.51 0 0 0-7.459 4.912 17.087 17.087 0 0 0-2.407 8.702l-.498 52.755-4.574 2.154 11.914 13.83.635 12.187c9.855-4.434 15.278-11.947 18.93-22.655Z"></path><path fill="#ed860a" d="m204.092 111.285-2.963 41.238-29.386 23.213 12.84 14.26 39.969-29.678s2.935-10.776 1.238-15.212Z"></path><path fill="#ce700b" d="M226.263 150.454a13.626 13.626 0 0 0-.473-5.348l-21.698-33.821Z"></path><ellipse cx="202.665" cy="66.438" fill="#f6b98a" rx="16.874" ry="25.846" transform="rotate(-12.417 202.665 66.438)"></ellipse><ellipse cx="222.224" cy="60.373" fill="#f6b98a" rx="6.353" ry="3.764" transform="rotate(-84.027 222.224 60.373)"></ellipse><path fill="#3f1510" d="m201.046 43.047-6.255 3.951s-8.972 8.478-13.582 9.63c0 0-8.314 2.141-6.997-3.62 0 0-6.914-9.96 8.808-13.253 0 0 6.996-2.552 9.63-5.68s12.018-4.692 15.887 0c0 0 7.212-10.253 14.348 19.98 0 0-2.61-1.505-4.405 5.926a20.445 20.445 0 0 1-8.461-9.69s-.215-7.74-8.973-7.244Z"></path><path d="M186.312 62.473a4.713 4.713 0 0 1 2.326-3.572 4.494 4.494 0 0 1 2.14-.615 4.786 4.786 0 0 1 2.12.4 15.577 15.577 0 0 0-2.029.294 5.975 5.975 0 0 0-1.78.697 6.586 6.586 0 0 0-1.508 1.192 12.016 12.016 0 0 0-1.269 1.604ZM199.482 54.077a6.809 6.809 0 0 1 3.052-2.828 4.9 4.9 0 0 1 2.118-.473 3.26 3.26 0 0 1 1.992.75 5.811 5.811 0 0 0-1.95-.05 7.324 7.324 0 0 0-1.784.588 14.773 14.773 0 0 0-1.708.93Z"></path><ellipse cx="205.66" cy="59.345" rx="1.235" ry="2.552" transform="rotate(-22.359 205.66 59.345)"></ellipse><ellipse cx="191.173" cy="65.848" rx="1.235" ry="2.552" transform="rotate(-22.359 191.173 65.848)"></ellipse><path fill="#e8a77c" d="M197.791 62.967a14.54 14.54 0 0 1 1.065 3.586 15.831 15.831 0 0 1 .249 3.751 4.308 4.308 0 0 0-.019.397 1.172 1.172 0 0 0 .02.283 1.35 1.35 0 0 0 .184.525 1.801 1.801 0 0 0 .922.771 1.875 1.875 0 0 0 1.35-.036 3.303 3.303 0 0 0 .716-.448c.245-.174.508-.344.785-.515-.125.285-.265.572-.421.855a3.233 3.233 0 0 1-.576.832 2.67 2.67 0 0 1-2.127.687 2.975 2.975 0 0 1-2.573-2.324 4.31 4.31 0 0 1-.053-1.139c.144-2.313.087-4.73.478-7.225Z"></path><path fill="#a03041" d="M201.623 81.488c1.632-.642 3.125-.988 4.357-1.628a5.724 5.724 0 0 0 1.592-1.15 7.67 7.67 0 0 0 1.13-1.997 3.315 3.315 0 0 1 .08 2.704 4.14 4.14 0 0 1-1.998 2.049 5.653 5.653 0 0 1-2.622.589 5.422 5.422 0 0 1-2.54-.567Z"></path><path fill="#ce700b" d="M262.538 159.768a54.233 54.233 0 0 0 2.712-13.788l2.607-37.854a20.233 20.233 0 0 0-15.734-19.984 16.482 16.482 0 0 0-6.126-.259 9.51 9.51 0 0 0-7.458 4.912 17.087 17.087 0 0 0-2.408 8.702l-.842 51.628-3.42 1.495.868 1.36 13.828 16.052.106 7.075c7.767-4.255 12.674-9.978 15.867-19.339ZM225.151 157.817l-33.474 17.988 1.931 7.714 30.944-23.2s.27-.996.6-2.502Z"></path><path fill="#ed860a" d="m195.45 189.996-3.773-14.191 45.752-21.553.498-52.755a17.086 17.086 0 0 1 2.408-8.702 9.51 9.51 0 0 1 7.458-4.912 16.483 16.483 0 0 1 6.125.26 20.233 20.233 0 0 1 15.735 19.983l-2.607 37.854a54.232 54.232 0 0 1-2.712 13.788c-5.727 16.79-16.96 21.886-40.346 27.774Z"></path><path fill="#f6b98a" d="M173.06 174.995s-7.49-1.976-17.45 3.704a13.75 13.75 0 0 1-5.48 1.47 2.826 2.826 0 0 0-2.064.97c-.639.775-.84 1.91 1.7 2.993 0 0 3.832.922 6.423-.396a2.907 2.907 0 0 1 1.845-.325c.895.168 1.783.77.868 2.696a10.171 10.171 0 0 1-2.003 2.937l-8.13 8.316a5.255 5.255 0 0 0-1.269 5.424c1.22 3.361 6.208 5.95 24.655-6.223 0 0 8.56-1.153 10.289-11.03Z"></path><path fill="#e8a77c" d="m182.444 185.53-4.612-5.177-8.296 3.161-3.7 3.25a1.756 1.756 0 0 0-.55 1.766c.443 1.665 2.14 4.213 8.625.941l2.626-.363s.175 5.787-4.97 7.515c0 0-.664.273-.585.7.387-.25.773-.498 1.173-.762 0 0 8.56-1.153 10.289-11.03Z"></path><path fill="#f6b98a" d="M191.677 176.723a14.692 14.692 0 0 0-12.567 3.046l-7.779 3.745-4.403 3.869s-1.647 5.474 7.326.947l3.827-.165s-.123 6.626-5.268 8.355c0 0-1.44 4.733 9.425-.288 0 0 4.136 3.58 13.211-6.236Z"></path><path fill="#8c3e56" d="M258.324 386.257s-3.929 6.98-27.878 10.737a6.15 6.15 0 0 0-3.075 1.354c-1.446 1.246-2.399 3.4 2.682 6.068a23.709 23.709 0 0 0 14.816 2.378 40.055 40.055 0 0 0 13.149-4.78s4.145-2.25 4.686 3.885l13.656-1.515s3.623-10.593.534-16.898Z"></path><path fill="#6aaaa8" d="M166.2 407.106H81.093V257.851h38.986L166.2 407.106z"></path><path fill="#5f9693" d="M120.079 257.851H81.093l40.436 4.688-1.45-4.688z"></path><path fill="#69a5c9" d="M185.277 215.648a45.076 45.076 0 0 1-2.519 10.06 49.19 49.19 0 0 1-4.609 9.342 39.176 39.176 0 0 1-6.673 8.015 33.932 33.932 0 0 1-8.606 5.79q1.061-.752 2.13-1.467l1.064-.72.986-.827 1.985-1.619 1.825-1.795a47.692 47.692 0 0 0 6.318-7.997 64.219 64.219 0 0 0 4.76-9.048 62.267 62.267 0 0 0 1.836-4.799c.594-1.613 1.06-3.267 1.503-4.935Z"></path><path fill="#298c8e" d="M97.019 159.61h5.915a3.476 3.476 0 0 1 3.476 3.477v25.032H93.542v-25.032a3.476 3.476 0 0 1 3.477-3.476Z"></path><path fill="#298c8e" d="M97.595 154.595h4.762v5.016h-4.762z"></path><rect width="6.973" height="6.973" x="96.489" y="170.378" fill="#c3d8d8" rx="1.153"></rect><path fill="#1d7777" d="M98.248 155.321a10.894 10.894 0 0 1 .144 1.816 10.758 10.758 0 0 1-.144 1.816 10.773 10.773 0 0 1-.144-1.816 10.906 10.906 0 0 1 .144-1.816ZM99.078 155.321a10.906 10.906 0 0 1 .144 1.816 10.773 10.773 0 0 1-.144 1.816 10.76 10.76 0 0 1-.144-1.816 10.908 10.908 0 0 1 .144-1.816ZM99.943 155.321a10.906 10.906 0 0 1 .144 1.816 10.773 10.773 0 0 1-.144 1.816 10.759 10.759 0 0 1-.144-1.816 10.91 10.91 0 0 1 .144-1.816ZM100.825 155.321a10.906 10.906 0 0 1 .144 1.816 10.773 10.773 0 0 1-.144 1.816 10.757 10.757 0 0 1-.144-1.816 10.894 10.894 0 0 1 .144-1.816ZM101.688 155.321a10.908 10.908 0 0 1 .144 1.816 10.755 10.755 0 0 1-.144 1.816 10.787 10.787 0 0 1-.144-1.816 10.923 10.923 0 0 1 .144-1.816Z"></path><path fill="#8dbfe2" d="m159.859 156.106-1.824 27.305 10.111.982-2.741-28.287h-5.546z"></path><path fill="#76abcc" d="M159.859 156.106c.045 1.993-.003 3.98-.066 5.965-.054 1.986-.174 3.968-.296 5.95-.141 1.98-.285 3.96-.495 5.936-.202 1.977-.417 3.952-.728 5.921-.048-1.993.001-3.98.064-5.965.054-1.986.174-3.968.297-5.95.143-1.98.286-3.96.497-5.936.201-1.976.417-3.952.727-5.921ZM165.405 156.106c.323 2.034.552 4.075.766 6.118.225 2.041.381 4.087.537 6.134.136 2.047.27 4.095.337 6.148.075 2.052.138 4.105.104 6.165-.325-2.035-.553-4.076-.768-6.118-.223-2.042-.38-4.088-.535-6.134-.134-2.048-.269-4.096-.335-6.149-.076-2.051-.138-4.104-.106-6.164ZM162.025 161.917c.318 1.547.542 3.102.752 4.659.22 1.555.371 3.117.523 4.68.131 1.563.26 3.127.324 4.696.071 1.57.13 3.14.09 4.719-.319-1.547-.543-3.102-.753-4.659-.219-1.556-.371-3.117-.522-4.68-.13-1.563-.26-3.127-.322-4.697-.072-1.569-.13-3.14-.092-4.718ZM163.715 158.536a34.51 34.51 0 0 1 .954 5.719 34.112 34.112 0 0 1 .094 5.797 34.122 34.122 0 0 1-.955-5.719 34.538 34.538 0 0 1-.093-5.797ZM160.862 170.052a29.174 29.174 0 0 1 .432 5.31 28.826 28.826 0 0 1-.432 5.309 28.838 28.838 0 0 1-.432-5.31 29.185 29.185 0 0 1 .432-5.309Z"></path><path fill="#298c8e" d="M158.274 152.725h8.875v3.381h-8.875z"></path><path fill="#76abcc" d="M158.034 158.536a50.35 50.35 0 0 1-.897 6.95 49.78 49.78 0 0 1-1.747 6.785 49.76 49.76 0 0 1 .898-6.95 50.342 50.342 0 0 1 1.746-6.785ZM167.149 158.536a37.203 37.203 0 0 1 1.754 5.76 36.785 36.785 0 0 1 .912 5.954 36.8 36.8 0 0 1-1.755-5.761 37.229 37.229 0 0 1-.911-5.953ZM156.712 175.903a53.88 53.88 0 0 1-1.226 7.145 53.243 53.243 0 0 1-2.067 6.948 53.276 53.276 0 0 1 1.226-7.145 53.876 53.876 0 0 1 2.067-6.948ZM168.482 173.412a15.247 15.247 0 0 1 1.596 3.495 15.065 15.065 0 0 1 .774 3.764 15.084 15.084 0 0 1-1.596-3.495 15.249 15.249 0 0 1-.774-3.764ZM162.472 181.417a15.251 15.251 0 0 1-.018 3.842 15.074 15.074 0 0 1-.877 3.741 15.063 15.063 0 0 1 .018-3.842 15.242 15.242 0 0 1 .877-3.74Z"></path><path fill="#e8a77c" d="M222.223 56.677a2.92 2.92 0 0 1 1.358 1.849 2.563 2.563 0 0 1 .009 1.229 1.163 1.163 0 0 1-.854.935 2.039 2.039 0 0 0-.044-.993c-.078-.288-.142-.584-.23-.895a6.694 6.694 0 0 1-.239-2.125Z"></path><path fill="none" stroke="#139da0" stroke-linecap="round" stroke-linejoin="round" stroke-width="2.306" d="M1.153 406.669h463.846"></path><path fill="#8c3e56" d="M341.05 382.215s-.886 15.508-15.05 19.76c0 0-6.525 1.11-4.01 5.483s22.156 6.375 26.03-9.776c0 0 1.458-7.196 7.37-3.299l9.442-13.398-4.568-6.473Z"></path></g></g></svg>